<svg width="77" height="71" viewBox="0 0 77 71" fill="none" xmlns="http://www.w3.org/2000/svg">
<ellipse cx="38.5" cy="35.5" rx="38.5" ry="35.5" fill="#FFED4C"/>
<path d="M5.03101 50.7683H72.956V52.7681C72.956 53.5829 72.6372 54.3644 72.0698 54.9406C71.5023 55.5167 70.7327 55.8404 69.9303 55.8404H8.05676C7.25428 55.8404 6.48466 55.5167 5.91723 54.9406C5.34979 54.3644 5.03101 53.5829 5.03101 52.7681V50.7683Z" fill="#68E1FD"/>
<path d="M69.9432 56.1673H8.05674C7.16833 56.1664 6.31656 55.8077 5.68836 55.1698C5.06015 54.5319 4.70685 53.6671 4.70599 52.765V50.7685C4.70599 50.681 4.74023 50.597 4.80118 50.5351C4.86213 50.4732 4.9448 50.4385 5.03099 50.4385H72.956C73.0422 50.4385 73.1248 50.4732 73.1858 50.5351C73.2467 50.597 73.281 50.681 73.281 50.7685V52.765C73.2801 53.6648 72.9286 54.5277 72.3032 55.1652C71.6778 55.8026 70.8294 56.1629 69.9432 56.1673ZM5.35599 51.0985V52.765C5.35685 53.492 5.64167 54.189 6.14797 54.7031C6.65428 55.2172 7.34072 55.5064 8.05674 55.5073H69.9432C70.6593 55.5064 71.3457 55.2172 71.852 54.7031C72.3583 54.189 72.6431 53.492 72.644 52.765V51.0985H5.35599Z" fill="#093F68"/>
<path d="M12.298 15.6135H65.702C66.414 15.6135 67.0968 15.9007 67.6002 16.4119C68.1036 16.9231 68.3865 17.6164 68.3865 18.3393V50.7651H9.61023V18.3393C9.61023 17.9811 9.67977 17.6264 9.81488 17.2954C9.95 16.9645 10.148 16.6639 10.3977 16.4107C10.6473 16.1576 10.9436 15.9569 11.2697 15.8201C11.5957 15.6833 11.9452 15.6131 12.298 15.6135Z" fill="#68E1FD"/>
<path d="M68.3898 51.0983H9.61028C9.52408 51.0983 9.44142 51.0636 9.38047 51.0017C9.31952 50.9398 9.28528 50.8559 9.28528 50.7683V18.3392C9.28614 17.5285 9.60393 16.7512 10.1688 16.1783C10.7337 15.6053 11.4996 15.2834 12.298 15.2834H65.702C66.5005 15.2834 67.2663 15.6053 67.8312 16.1783C68.3961 16.7512 68.7139 17.5285 68.7148 18.3392V50.7683C68.7148 50.8559 68.6805 50.9398 68.6196 51.0017C68.5586 51.0636 68.476 51.0983 68.3898 51.0983ZM9.93528 50.4383H68.0648V18.3392C68.0639 17.7035 67.8146 17.0942 67.3716 16.645C66.9286 16.1958 66.3281 15.9434 65.702 15.9434H12.298C11.6719 15.9434 11.0715 16.1958 10.6285 16.645C10.1855 17.0942 9.93614 17.7035 9.93528 18.3392V50.4383Z" fill="#093F68"/>
<path d="M63.2385 19.7517H14.7583C14.3419 19.7517 14.0043 20.0945 14.0043 20.5173V46.0725C14.0043 46.4953 14.3419 46.8381 14.7583 46.8381H63.2385C63.6549 46.8381 63.9925 46.4953 63.9925 46.0725V20.5173C63.9925 20.0945 63.6549 19.7517 63.2385 19.7517Z" fill="white"/>
<path d="M63.2418 47.168H14.7583C14.4721 47.168 14.1976 47.0526 13.9953 46.8471C13.7929 46.6417 13.6793 46.363 13.6793 46.0724V20.5172C13.6793 20.2267 13.7929 19.948 13.9953 19.7425C14.1976 19.5371 14.4721 19.4216 14.7583 19.4216H63.2418C63.5279 19.4216 63.8024 19.5371 64.0047 19.7425C64.2071 19.948 64.3208 20.2267 64.3208 20.5172V46.0724C64.3208 46.363 64.2071 46.6417 64.0047 46.8471C63.8024 47.0526 63.5279 47.168 63.2418 47.168ZM14.7583 20.0816C14.6447 20.0825 14.5361 20.1287 14.4559 20.2102C14.3756 20.2917 14.3301 20.402 14.3293 20.5172V46.0724C14.3301 46.1877 14.3756 46.298 14.4559 46.3795C14.5361 46.461 14.6447 46.5072 14.7583 46.508H63.2418C63.3553 46.5072 63.4639 46.461 63.5442 46.3795C63.6244 46.298 63.6699 46.1877 63.6708 46.0724V20.5172C63.6699 20.402 63.6244 20.2917 63.5442 20.2102C63.4639 20.1287 63.3553 20.0825 63.2418 20.0816H14.7583Z" fill="#093F68"/>
<path d="M39 17.7751C39.2172 17.7751 39.3933 17.614 39.3933 17.4154C39.3933 17.2167 39.2172 17.0557 39 17.0557C38.7828 17.0557 38.6068 17.2167 38.6068 17.4154C38.6068 17.614 38.7828 17.7751 39 17.7751Z" fill="#68E1FD"/>
<path d="M39 18.1051C38.8676 18.0973 38.7403 18.0504 38.6338 17.9701C38.5274 17.8897 38.4464 17.7795 38.4009 17.653C38.3554 17.5265 38.3474 17.3893 38.3779 17.2582C38.4083 17.1271 38.4759 17.0079 38.5723 16.9154C38.6686 16.8229 38.7896 16.761 38.9202 16.7374C39.0508 16.7139 39.1853 16.7297 39.3071 16.7828C39.429 16.836 39.5329 16.9242 39.6059 17.0366C39.679 17.149 39.718 17.2807 39.7182 17.4154C39.7123 17.6033 39.6335 17.7812 39.499 17.9104C39.3644 18.0395 39.1851 18.1095 39 18.1051ZM39 17.3857C38.9545 17.3857 38.9317 17.4121 38.9317 17.4187C38.9403 17.4282 38.9509 17.4355 38.9628 17.4401C38.9746 17.4447 38.9874 17.4464 39 17.4451C39.0422 17.4451 39.065 17.4253 39.0682 17.4154C39.06 17.4053 39.0495 17.3973 39.0377 17.3921C39.0258 17.387 39.0129 17.3848 39 17.3857Z" fill="#093F68"/>
<path d="M63.9958 25.8336H14.0043C13.9181 25.8336 13.8354 25.7988 13.7745 25.7369C13.7135 25.675 13.6793 25.5911 13.6793 25.5036C13.6793 25.4161 13.7135 25.3321 13.7745 25.2702C13.8354 25.2084 13.9181 25.1736 14.0043 25.1736H63.9958C64.082 25.1736 64.1646 25.2084 64.2256 25.2702C64.2865 25.3321 64.3208 25.4161 64.3208 25.5036C64.3208 25.5911 64.2865 25.675 64.2256 25.7369C64.1646 25.7988 64.082 25.8336 63.9958 25.8336Z" fill="#093F68"/>
<path d="M24.6448 43.8055H16.4158C16.3296 43.8055 16.2469 43.7707 16.1859 43.7088C16.125 43.6469 16.0908 43.563 16.0908 43.4755V27.8995C16.0908 27.8119 16.125 27.728 16.1859 27.6661C16.2469 27.6042 16.3296 27.5695 16.4158 27.5695H24.6448C24.731 27.5695 24.8136 27.6042 24.8746 27.6661C24.9355 27.728 24.9698 27.8119 24.9698 27.8995V43.4755C24.9698 43.563 24.9355 43.6469 24.8746 43.7088C24.8136 43.7707 24.731 43.8055 24.6448 43.8055ZM16.7408 43.1455H24.3198V28.2295H16.7408V43.1455Z" fill="#DFEAEF"/>
<path d="M60.8888 43.8055H26.5298C26.4436 43.8055 26.3609 43.7707 26.3 43.7088C26.239 43.6469 26.2048 43.563 26.2048 43.4755V27.8995C26.2048 27.8119 26.239 27.728 26.3 27.6661C26.3609 27.6042 26.4436 27.5695 26.5298 27.5695H60.8888C60.975 27.5695 61.0576 27.6042 61.1186 27.6661C61.1795 27.728 61.2138 27.8119 61.2138 27.8995V43.4755C61.2138 43.563 61.1795 43.6469 61.1186 43.7088C61.0576 43.7707 60.975 43.8055 60.8888 43.8055ZM26.8548 43.1455H60.5638V28.2295H26.8548V43.1455Z" fill="#DFEAEF"/>
<path d="M17.6053 23.55C17.3776 23.55 17.155 23.4814 16.9657 23.3529C16.7765 23.2244 16.629 23.0418 16.542 22.8281C16.4551 22.6145 16.4325 22.3794 16.4771 22.1527C16.5218 21.926 16.6317 21.7179 16.7929 21.5546C16.9541 21.3914 17.1594 21.2804 17.3828 21.2357C17.6062 21.191 17.8376 21.2146 18.0478 21.3035C18.258 21.3924 18.4374 21.5427 18.5635 21.7352C18.6895 21.9278 18.7564 22.1539 18.7558 22.3851C18.7549 22.6944 18.6333 22.9907 18.4176 23.209C18.202 23.4274 17.9098 23.55 17.6053 23.55ZM17.6053 21.8769C17.5063 21.8769 17.4095 21.9067 17.3272 21.9626C17.2449 22.0184 17.1807 22.0978 17.1429 22.1906C17.105 22.2835 17.0951 22.3857 17.1144 22.4843C17.1337 22.5828 17.1814 22.6734 17.2514 22.7445C17.3214 22.8155 17.4105 22.8639 17.5076 22.8836C17.6047 22.9032 17.7053 22.8931 17.7968 22.8546C17.8883 22.8162 17.9664 22.751 18.0214 22.6675C18.0764 22.5839 18.1058 22.4856 18.1058 22.3851C18.1079 22.317 18.0966 22.2491 18.0724 22.1856C18.0483 22.122 18.0117 22.064 17.965 22.0151C17.9184 21.9661 17.8624 21.9272 17.8006 21.9006C17.7388 21.8741 17.6724 21.8604 17.6053 21.8604V21.8769Z" fill="#DFEAEF"/>
<path d="M21.3558 23.55C21.1279 23.5507 20.9051 23.4826 20.7154 23.3545C20.5257 23.2264 20.3777 23.044 20.2902 22.8304C20.2027 22.6168 20.1797 22.3816 20.224 22.1547C20.2683 21.9278 20.3779 21.7194 20.539 21.5558C20.7001 21.3922 20.9054 21.2809 21.1289 21.2359C21.3523 21.1909 21.5839 21.2144 21.7943 21.3032C22.0047 21.392 22.1843 21.5422 22.3105 21.7349C22.4367 21.9275 22.5037 22.1538 22.503 22.3851C22.5022 22.6938 22.381 22.9896 22.1661 23.2079C21.9511 23.4261 21.6598 23.5491 21.3558 23.55ZM21.3558 21.8769C21.2566 21.8763 21.1596 21.9055 21.0768 21.961C20.9941 22.0164 20.9294 22.0955 20.8911 22.1883C20.8527 22.2811 20.8423 22.3834 20.8612 22.4822C20.8802 22.581 20.9276 22.6719 20.9975 22.7433C21.0673 22.8147 21.1565 22.8634 21.2537 22.8833C21.3508 22.9032 21.4517 22.8933 21.5433 22.8549C21.6349 22.8166 21.7133 22.7514 21.7684 22.6678C21.8236 22.5842 21.853 22.4858 21.853 22.3851C21.8552 22.3173 21.844 22.2497 21.82 22.1863C21.796 22.123 21.7598 22.0651 21.7134 22.0162C21.6671 21.9673 21.6116 21.9283 21.5501 21.9016C21.4887 21.8748 21.4226 21.8608 21.3558 21.8604V21.8769Z" fill="#DFEAEF"/>
<path d="M25.103 23.55C24.8752 23.5507 24.6523 23.4826 24.4626 23.3545C24.2729 23.2264 24.125 23.044 24.0375 22.8304C23.95 22.6168 23.9269 22.3816 23.9712 22.1547C24.0155 21.9278 24.1252 21.7194 24.2863 21.5558C24.4473 21.3922 24.6526 21.2809 24.8761 21.2359C25.0996 21.1909 25.3312 21.2144 25.5416 21.3032C25.7519 21.392 25.9316 21.5422 26.0577 21.7349C26.1839 21.9275 26.2509 22.1538 26.2503 22.3851C26.2494 22.6938 26.1283 22.9896 25.9133 23.2079C25.6983 23.4261 25.407 23.5491 25.103 23.55ZM25.103 21.8769C25.0039 21.8763 24.9068 21.9055 24.8241 21.961C24.7413 22.0164 24.6767 22.0955 24.6383 22.1883C24.5999 22.2811 24.5896 22.3834 24.6085 22.4822C24.6274 22.581 24.6749 22.6719 24.7447 22.7433C24.8146 22.8147 24.9038 22.8634 25.0009 22.8833C25.0981 22.9032 25.1989 22.8933 25.2905 22.8549C25.3822 22.8166 25.4606 22.7514 25.5157 22.6678C25.5708 22.5842 25.6003 22.4858 25.6003 22.3851C25.6029 22.3172 25.592 22.2494 25.5682 22.1858C25.5444 22.1223 25.5082 22.0642 25.4617 22.0152C25.4153 21.9662 25.3596 21.9273 25.2979 21.9007C25.2363 21.8741 25.17 21.8604 25.103 21.8604V21.8769Z" fill="#DFEAEF"/>
<path d="M33.8292 36.7004L32.7665 44.1716C32.7665 44.1716 28.2165 41.3204 27.7257 46.0526C27.7257 46.0526 24.6057 44.2013 24.0532 47.6564C24.0532 47.6564 21.1705 46.8215 21.6287 50.7683H55.3507C55.2444 50.1649 54.9983 49.5959 54.6327 49.1082C54.2671 48.6204 53.7924 48.228 53.248 47.9633C52.7878 47.7074 52.2622 47.5988 51.7402 47.6518C51.2181 47.7048 50.7241 47.9169 50.323 48.2603C50.323 48.2603 50.0175 45.1616 48.048 44.1188C46.5075 43.2971 44.6615 44.7788 44.6615 44.7788L43.8262 35.5388L33.8292 36.7004Z" fill="white"/>
<path d="M55.3507 51.0984H21.6287C21.5484 51.0989 21.4707 51.0692 21.4107 51.015C21.3507 50.9607 21.3126 50.8858 21.3037 50.8047C21.1315 49.3428 21.385 48.3099 22.0512 47.7324C22.2952 47.5402 22.5752 47.4003 22.8741 47.3215C23.173 47.2426 23.4847 47.2264 23.79 47.2737C24.0012 46.353 24.44 45.7326 25.0575 45.429C25.9155 45.0198 26.91 45.3201 27.4625 45.5577C27.6672 44.4027 28.1547 43.6272 28.9185 43.2477C30.16 42.6273 31.7557 43.2741 32.4935 43.6536L33.4912 36.6544C33.5016 36.582 33.5353 36.5153 33.587 36.4645C33.6388 36.4137 33.7057 36.3819 33.7772 36.3738L43.8002 35.1957C43.843 35.1911 43.8864 35.1951 43.9276 35.2075C43.9689 35.22 44.0074 35.2407 44.0407 35.2683C44.0744 35.2958 44.1024 35.3297 44.1231 35.3683C44.1437 35.4068 44.1566 35.4491 44.161 35.4927L44.9475 44.1882C45.643 43.7724 46.9852 43.1751 48.1975 43.8285C49.7867 44.6766 50.3587 46.7127 50.5472 47.6895C50.9763 47.4426 51.4604 47.3112 51.9536 47.3077C52.4467 47.3042 52.9326 47.4289 53.365 47.6697C53.9581 47.9577 54.4745 48.3862 54.8704 48.9192C55.2663 49.4521 55.5303 50.0739 55.64 50.7321C55.6446 50.7779 55.6398 50.8242 55.6258 50.8679C55.6118 50.9117 55.589 50.952 55.5587 50.9862C55.5056 51.0487 55.4314 51.0888 55.3507 51.0984ZM21.9245 50.4384H54.9477C54.8045 49.9658 54.5666 49.5284 54.2489 49.1536C53.9312 48.7788 53.5406 48.4747 53.1017 48.2605C52.7026 48.0372 52.2466 47.9408 51.7929 47.9838C51.3392 48.0267 50.9086 48.207 50.557 48.5013C50.5127 48.5436 50.4578 48.5723 50.3983 48.5845C50.3388 48.5966 50.2771 48.5915 50.2203 48.5699C50.1634 48.5482 50.1137 48.5109 50.0767 48.462C50.0397 48.4132 50.017 48.3548 50.011 48.2934C50.011 48.2637 49.686 45.3564 47.9245 44.4126C46.5822 43.6965 44.9052 45.0165 44.889 45.0297C44.8429 45.0661 44.788 45.0893 44.7301 45.0967C44.6722 45.1041 44.6134 45.0955 44.5598 45.0719C44.5063 45.0483 44.46 45.0104 44.4259 44.9624C44.3917 44.9143 44.3709 44.8578 44.3657 44.7987L43.5597 35.8887L34.125 37.0008L33.098 44.2179C33.09 44.2721 33.0689 44.3233 33.0365 44.3671C33.0042 44.4109 32.9617 44.4458 32.9127 44.4687C32.8633 44.4977 32.8073 44.513 32.7502 44.513C32.6932 44.513 32.6371 44.4977 32.5877 44.4687C32.5682 44.4687 30.524 43.1949 29.198 43.8582C28.548 44.1882 28.1645 44.934 28.041 46.1022C28.0355 46.1571 28.0166 46.2098 27.9859 46.2553C27.9553 46.3008 27.9139 46.3379 27.8655 46.363C27.818 46.3889 27.765 46.4026 27.7111 46.4026C27.6572 46.4026 27.6041 46.3889 27.5567 46.363C27.5567 46.363 26.2567 45.6105 25.3305 46.0527C24.83 46.2936 24.505 46.8612 24.3555 47.7357C24.3484 47.7821 24.3317 47.8263 24.3065 47.8656C24.2813 47.9049 24.2481 47.9382 24.2092 47.9634C24.1703 47.988 24.1268 48.0039 24.0814 48.0102C24.036 48.0164 23.9899 48.0129 23.946 47.9997C23.946 47.9997 23.0425 47.7522 22.4575 48.2637C22.0317 48.63 21.8432 49.3791 21.9245 50.4384Z" fill="#093F68"/>
<path d="M30.6052 26.0381C30.6052 26.0381 27.716 27.8003 26.8417 32.0309C25.9675 36.2615 27.0595 38.5748 27.0595 38.5748L32.5 34.3046L30.6052 26.0381Z" fill="#F56132"/>
<path d="M27.0595 38.905H26.9848C26.9377 38.8936 26.8937 38.8717 26.856 38.8409C26.8184 38.81 26.788 38.7711 26.767 38.7268C26.7215 38.6278 25.636 36.265 26.5233 31.975C27.4105 27.685 30.316 25.8403 30.4233 25.7644C30.4675 25.7375 30.5174 25.7217 30.5688 25.7182C30.6202 25.7148 30.6717 25.7238 30.719 25.7446C30.7658 25.7649 30.8072 25.7961 30.84 25.8356C30.8727 25.8752 30.8958 25.922 30.9075 25.9723L32.825 34.2289C32.8377 34.2898 32.8331 34.3531 32.8118 34.4115C32.7905 34.4699 32.7534 34.521 32.7048 34.5589L27.2708 38.8291C27.2114 38.879 27.1366 38.9059 27.0595 38.905ZM30.3973 26.596C28.7171 27.9917 27.568 29.9379 27.1473 32.1004C26.4973 35.1826 26.949 37.2253 27.1993 38.0404L32.1198 34.1761L30.3973 26.596Z" fill="#093F68"/>
<path d="M47.3948 26.0381C47.3948 26.0381 50.284 27.8003 51.1583 32.0309C52.0325 36.2615 50.9405 38.5748 50.9405 38.5748L45.5 34.3046L47.3948 26.0381Z" fill="#F56132"/>
<path d="M50.9405 38.9049C50.8676 38.9054 50.7966 38.881 50.739 38.8356L45.305 34.5654C45.2563 34.5275 45.2192 34.4764 45.1979 34.418C45.1767 34.3596 45.1721 34.2963 45.1847 34.2354L47.0795 25.9689C47.0912 25.9186 47.1143 25.8718 47.147 25.8322C47.1798 25.7927 47.2212 25.7615 47.268 25.7412C47.3153 25.7204 47.3668 25.7114 47.4182 25.7148C47.4696 25.7183 47.5195 25.7341 47.5637 25.761C47.684 25.8369 50.583 27.6486 51.4637 31.9716C52.3445 36.2946 51.2655 38.6244 51.22 38.7234C51.199 38.7676 51.1686 38.8066 51.1309 38.8375C51.0933 38.8683 51.0493 38.8902 51.0022 38.9016L50.9405 38.9049ZM45.8672 34.1727L50.7877 38.037C51.038 37.2252 51.4767 35.1825 50.8397 32.0969C50.419 29.9345 49.2699 27.9883 47.5897 26.5926L45.8672 34.1727Z" fill="#093F68"/>
<path d="M48.2528 17.2535C48.2528 24.3023 47.1315 30.5195 45.3278 35.4959C45.0548 36.2593 44.7666 36.9897 44.4633 37.6871H33.5108C33.2074 36.9875 32.9193 36.2571 32.6463 35.4959C30.8555 30.5195 29.7213 24.3023 29.7213 17.2535C29.7213 14.4254 30.7288 11.6435 32.0808 9.16523C33.6256 6.4391 35.5147 3.92965 37.7 1.70063C37.8648 1.5286 38.0618 1.39185 38.2795 1.29847C38.4972 1.20509 38.7312 1.15698 38.9675 1.15698C39.2038 1.15698 39.4378 1.20509 39.6555 1.29847C39.8732 1.39185 40.0702 1.5286 40.235 1.70063C42.3953 3.93916 44.2711 6.44354 45.8185 9.15533C47.2225 11.6699 48.2528 14.4584 48.2528 17.2535Z" fill="#FFBC0E"/>
<path d="M44.4763 38.0173H33.5238C33.4613 38.0172 33.4001 37.9987 33.3476 37.9642C33.2952 37.9296 33.2537 37.8805 33.228 37.8226C32.903 37.1032 32.6235 36.3574 32.3538 35.6116C30.4363 30.2821 29.4288 23.9329 29.4288 17.2537C29.4288 14.6929 30.2348 11.9176 31.8273 9.00368C33.39 6.25371 35.2962 3.72033 37.4985 1.46649C37.6941 1.26333 37.9276 1.1019 38.1855 0.991693C38.4433 0.881482 38.7203 0.824707 39 0.824707C39.2798 0.824707 39.5567 0.881482 39.8146 0.991693C40.0724 1.1019 40.306 1.26333 40.5015 1.46649C42.6833 3.72584 44.5767 6.25477 46.137 8.99379C47.762 11.9341 48.5843 14.7094 48.5843 17.2438C48.5843 23.923 47.5703 30.2722 45.6593 35.6017C45.3895 36.3475 45.097 37.0933 44.785 37.8127C44.76 37.8745 44.7171 37.9272 44.662 37.9637C44.6068 38.0003 44.5421 38.0189 44.4763 38.0173ZM33.7513 37.3573H44.2748C44.551 36.6973 44.8078 36.0373 45.0483 35.3773C46.9398 30.1204 47.9408 23.8504 47.9408 17.2471C47.9408 14.8282 47.1445 12.1618 45.5748 9.32709C44.0406 6.64302 42.1848 4.16232 40.0498 1.94168C39.9145 1.79769 39.7515 1.68352 39.5709 1.60631C39.3903 1.52909 39.196 1.49048 39 1.49289C38.8065 1.48802 38.6142 1.52459 38.4356 1.60021C38.257 1.67583 38.096 1.78881 37.9633 1.93179C35.7992 4.14263 33.9257 6.62835 32.3895 9.32709C30.8523 12.1387 30.0723 14.8051 30.0723 17.2471C30.0723 23.8471 31.0733 30.1171 32.9648 35.3773C33.2053 36.0505 33.475 36.7138 33.7383 37.3573H33.7513Z" fill="#093F68"/>
<path d="M45.3407 35.4961C45.0677 36.2595 44.7796 36.9899 44.4762 37.6873H33.5237C33.2204 36.9877 32.9322 36.2573 32.6592 35.4961H45.3407Z" fill="#F56132"/>
<path d="M44.4762 38.0172H33.5237C33.4612 38.0171 33.4001 37.9986 33.3476 37.9641C33.2952 37.9296 33.2536 37.8804 33.228 37.8225C32.903 37.1031 32.6235 36.3573 32.3537 35.6115C32.3356 35.5615 32.3297 35.5077 32.3365 35.4548C32.3433 35.402 32.3626 35.3516 32.3927 35.3079C32.4226 35.2642 32.4624 35.2285 32.5088 35.2038C32.5553 35.1791 32.6069 35.1661 32.6592 35.166H45.3342C45.3866 35.1661 45.4382 35.1791 45.4846 35.2038C45.531 35.2285 45.5709 35.2642 45.6007 35.3079C45.6309 35.3516 45.6502 35.402 45.657 35.4548C45.6638 35.5077 45.6579 35.5615 45.6397 35.6115C45.37 36.3573 45.0775 37.1031 44.7655 37.8225C44.7403 37.8794 44.6998 37.9279 44.6486 37.9623C44.5974 37.9968 44.5377 38.0158 44.4762 38.0172ZM33.7512 37.3572H44.2747C44.4914 36.8556 44.6951 36.3452 44.8857 35.826H33.1272C33.3201 36.3452 33.5237 36.8556 33.7382 37.3572H33.7512Z" fill="#093F68"/>
<path d="M45.8705 9.16526H32.1295C33.6743 6.43912 35.5634 3.92967 37.7488 1.70065C37.9138 1.52852 38.1111 1.39171 38.3291 1.29829C38.5471 1.20487 38.7813 1.15674 39.0179 1.15674C39.2545 1.15674 39.4887 1.20487 39.7067 1.29829C39.9246 1.39171 40.122 1.52852 40.287 1.70065C42.446 3.94396 44.3216 6.45144 45.8705 9.16526Z" fill="#F56132"/>
<path d="M45.8705 9.49526H32.1295C32.0733 9.49484 32.0182 9.47963 31.9695 9.4511C31.9208 9.42258 31.8802 9.38171 31.8517 9.3325C31.8232 9.28329 31.8078 9.22742 31.8069 9.17034C31.8061 9.11326 31.8198 9.05693 31.8468 9.00686C33.4085 6.25616 35.3148 3.72265 37.518 1.46966C37.7136 1.2665 37.9471 1.10508 38.205 0.994865C38.4628 0.884654 38.7398 0.827881 39.0195 0.827881C39.2993 0.827881 39.5762 0.884654 39.8341 0.994865C40.0919 1.10508 40.3255 1.2665 40.521 1.46966C42.7002 3.73333 44.5913 6.26548 46.15 9.00686C46.177 9.05693 46.1907 9.11326 46.1899 9.17034C46.189 9.22742 46.1736 9.28329 46.1451 9.3325C46.1166 9.38171 46.076 9.42258 46.0273 9.4511C45.9786 9.47963 45.9235 9.49484 45.8673 9.49526H45.8705ZM32.6885 8.83526H45.3083C43.8205 6.34187 42.0573 4.02901 40.053 1.94156C39.9197 1.79959 39.7593 1.68661 39.5816 1.60946C39.404 1.53231 39.2127 1.49261 39.0195 1.49276C38.8256 1.48825 38.6329 1.52497 38.4538 1.60055C38.2747 1.67614 38.1132 1.78892 37.9795 1.93166C35.9522 4.01139 34.176 6.32892 32.6885 8.83526Z" fill="#093F68"/>
<path d="M39 23.1772C41.9742 23.1772 44.3853 20.729 44.3853 17.7091C44.3853 14.6891 41.9742 12.241 39 12.241C36.0258 12.241 33.6147 14.6891 33.6147 17.7091C33.6147 20.729 36.0258 23.1772 39 23.1772Z" fill="#F56132"/>
<path d="M39 23.5071C37.8697 23.5078 36.7646 23.168 35.8245 22.5308C34.8845 21.8935 34.1516 20.9875 33.7188 19.9273C33.286 18.8671 33.1725 17.7004 33.3929 16.5747C33.6132 15.449 34.1575 14.415 34.9567 13.6035C35.756 12.7919 36.7743 12.2394 37.8829 12.0156C38.9915 11.7919 40.1406 11.907 41.1847 12.3465C42.2289 12.786 43.1212 13.5301 43.7487 14.4847C44.3763 15.4392 44.7109 16.5613 44.7103 17.709C44.7085 19.2462 44.1064 20.72 43.0359 21.8069C41.9654 22.8939 40.5139 23.5054 39 23.5071ZM39 12.5676C37.9984 12.5669 37.0191 12.8679 36.186 13.4325C35.3529 13.997 34.7034 14.7998 34.3196 15.7392C33.9359 16.6786 33.8352 17.7125 34.0302 18.71C34.2252 19.7076 34.7072 20.624 35.4152 21.3434C36.1232 22.0627 37.0254 22.5527 38.0077 22.7514C38.99 22.95 40.0083 22.8484 40.9337 22.4593C41.8592 22.0703 42.6502 21.4113 43.2067 20.5658C43.7632 19.7202 44.0603 18.726 44.0603 17.709C44.0594 16.3463 43.5261 15.0395 42.5774 14.0756C41.6287 13.1117 40.3421 12.5693 39 12.5676Z" fill="#093F68"/>
<path d="M39 21.6426C41.1396 21.6426 42.874 19.8815 42.874 17.709C42.874 15.5365 41.1396 13.7754 39 13.7754C36.8605 13.7754 35.126 15.5365 35.126 17.709C35.126 19.8815 36.8605 21.6426 39 21.6426Z" fill="white"/>
<path d="M39 21.9725C38.1686 21.9732 37.3557 21.7234 36.6641 21.2548C35.9726 20.7862 35.4335 20.1198 35.115 19.34C34.7965 18.5602 34.713 17.702 34.8751 16.874C35.0371 16.046 35.4374 15.2854 36.0253 14.6885C36.6132 14.0915 37.3623 13.6851 38.1777 13.5205C38.9932 13.356 39.8384 13.4408 40.6064 13.7642C41.3744 14.0875 42.0306 14.6349 42.4921 15.3371C42.9536 16.0393 43.1996 16.8647 43.199 17.7089C43.1981 18.8394 42.7555 19.9234 41.9682 20.7228C41.1809 21.5222 40.1134 21.9716 39 21.9725ZM39 14.102C38.2973 14.1014 37.6102 14.3124 37.0256 14.7083C36.441 15.1042 35.9852 15.6673 35.7158 16.3263C35.4465 16.9853 35.3757 17.7107 35.5124 18.4106C35.6491 19.1105 35.9871 19.7534 36.4838 20.2582C36.9804 20.763 37.6134 21.1068 38.3025 21.2463C38.9917 21.3857 39.7061 21.3145 40.3554 21.0416C41.0047 20.7687 41.5596 20.3064 41.9501 19.7131C42.3406 19.1199 42.549 18.4224 42.549 17.7089C42.5481 16.7532 42.1741 15.8367 41.5088 15.1606C40.8435 14.4844 39.9413 14.1038 39 14.102Z" fill="#093F68"/>
<path d="M46.7058 47.9699C46.6407 47.97 46.5771 47.9502 46.5232 47.9131C46.4693 47.8761 46.4276 47.8234 46.4035 47.762C45.8023 46.2176 45.0158 45.2903 44.0603 44.9999C43.6789 44.9073 43.2829 44.895 42.8967 44.9637C42.5105 45.0323 42.1422 45.1806 41.8145 45.3992C41.7443 45.45 41.657 45.4703 41.572 45.4558C41.487 45.4412 41.4111 45.393 41.3611 45.3217C41.3111 45.2503 41.2911 45.1618 41.3054 45.0754C41.3197 44.9891 41.3673 44.9121 41.4375 44.8613C41.8442 44.584 42.3038 44.3966 42.7864 44.3113C43.2691 44.226 43.764 44.2448 44.239 44.3663C45.3993 44.6963 46.3288 45.7754 47.008 47.5178C47.0238 47.5583 47.0314 47.6016 47.0306 47.6451C47.0298 47.6886 47.0206 47.7316 47.0033 47.7715C46.9861 47.8113 46.9613 47.8474 46.9303 47.8775C46.8993 47.9076 46.8628 47.9311 46.8228 47.9468C46.7857 47.9624 46.7459 47.9703 46.7058 47.9699Z" fill="#093F68"/>
<path d="M26.5037 48.4354C26.4758 48.4404 26.4472 48.4404 26.4192 48.4354C26.3361 48.4129 26.2652 48.358 26.222 48.2825C26.1787 48.207 26.1667 48.1173 26.1885 48.0328C26.5135 46.8481 27.0757 46.1056 27.8915 45.8185C29.3995 45.2905 31.1415 46.5907 31.2065 46.6468C31.2754 46.6993 31.321 46.7775 31.3332 46.8641C31.3454 46.9508 31.3232 47.0388 31.2715 47.1088C31.2198 47.1788 31.1428 47.2251 31.0574 47.2375C30.9721 47.2499 30.8854 47.2273 30.8165 47.1748C30.8165 47.1748 29.2825 46.0264 28.1027 46.4422C27.5047 46.6534 27.0725 47.2441 26.8027 48.2044C26.7826 48.2696 26.743 48.3268 26.6894 48.3682C26.6359 48.4096 26.571 48.4331 26.5037 48.4354Z" fill="#093F68"/>
<path d="M34.9927 45.2277H34.944C34.8593 45.2146 34.783 45.1681 34.7319 45.0983C34.6808 45.0284 34.6589 44.9409 34.671 44.8548L35.4022 39.7893C35.4147 39.7017 35.461 39.6228 35.5308 39.5699C35.6005 39.517 35.6882 39.4944 35.7744 39.5071C35.8606 39.5198 35.9383 39.5667 35.9904 39.6376C36.0425 39.7085 36.0647 39.7974 36.0522 39.885L35.321 44.9505C35.3085 45.0291 35.2683 45.1005 35.208 45.1515C35.1476 45.2024 35.0712 45.2295 34.9927 45.2277Z" fill="#DFEAEF"/>
<path d="M42.5002 43.2014C42.4204 43.202 42.3431 43.1727 42.2832 43.1192C42.2232 43.0656 42.1848 42.9915 42.1752 42.911L41.8047 39.875C41.794 39.7875 41.8179 39.6992 41.8712 39.6296C41.9245 39.56 42.0029 39.5147 42.0891 39.5038C42.1753 39.4929 42.2623 39.5171 42.3308 39.5713C42.3994 39.6254 42.444 39.705 42.4547 39.7925L42.8285 42.8285C42.834 42.8717 42.831 42.9155 42.8197 42.9574C42.8084 42.9994 42.7891 43.0387 42.7628 43.073C42.7365 43.1074 42.7038 43.1361 42.6666 43.1576C42.6293 43.1791 42.5883 43.1928 42.5457 43.1981L42.5002 43.2014Z" fill="#DFEAEF"/>
<path d="M37.1897 49.3627C37.1036 49.3627 37.0209 49.3279 36.9599 49.266C36.899 49.2041 36.8647 49.1202 36.8647 49.0327C36.8647 48.7522 37.4562 42.535 37.5732 41.2909C37.5773 41.2475 37.5897 41.2054 37.6098 41.167C37.6299 41.1285 37.6572 41.0944 37.6903 41.0667C37.7233 41.039 37.7614 41.0181 37.8024 41.0053C37.8434 40.9926 37.8864 40.9881 37.9291 40.9922C37.9718 40.9963 38.0133 41.0089 38.0511 41.0293C38.089 41.0497 38.1226 41.0775 38.1499 41.111C38.1772 41.1446 38.1977 41.1833 38.2103 41.2249C38.2229 41.2665 38.2273 41.3102 38.2232 41.3536C37.9437 44.3236 37.5212 48.7885 37.518 49.036C37.5176 49.0793 37.5087 49.1221 37.492 49.162C37.4753 49.2019 37.451 49.238 37.4205 49.2683C37.39 49.2987 37.354 49.3226 37.3144 49.3388C37.2748 49.355 37.2324 49.3631 37.1897 49.3627Z" fill="#DFEAEF"/>
</svg>
