<svg width="90" height="71" viewBox="0 0 90 71" fill="none" xmlns="http://www.w3.org/2000/svg">
<path d="M84 35.5C84 55.1061 66.763 71 45.5 71C24.237 71 7 55.1061 7 35.5C7 15.8939 24.237 0 45.5 0C66.763 0 84 15.8939 84 35.5Z" fill="#FFED4C"/>
<path d="M84 35.5C84 55.1061 66.763 71 45.5 71C24.237 71 7 55.1061 7 35.5C7 15.8939 24.237 0 45.5 0C66.763 0 84 15.8939 84 35.5Z" stroke="black"/>
<path d="M17.8106 20.7601L27.971 22.0361C27.971 22.0361 39.0586 18.9414 40.233 18.9414C41.4073 18.9414 46.3616 24.4191 46.3616 24.4191C46.3616 24.4191 68.4036 40.0186 69.1833 41.3251C69.9631 42.6316 69.1833 46.8635 64.096 46.0302C64.096 46.0302 64.096 49.3029 62.0087 49.7803C60.7608 50.0704 59.4531 50.0704 58.2051 49.7803C58.2051 49.7803 58.0815 52.3152 55.6044 52.9098C53.1273 53.5044 52.2049 52.7579 52.2049 52.7579C52.2049 52.7579 50.7405 56.3084 48.0019 55.5922C45.2633 54.876 42.4486 52.6798 40.8701 51.3689C39.2916 50.0581 27.1485 42.0413 27.1485 42.0413L12.3239 41.1038L17.8106 20.7601Z" fill="#FFC9B0"/>
<path d="M48.7673 56.126C48.4726 56.1257 48.1795 56.0862 47.8973 56.0088C45.8005 55.4619 43.4137 54.0513 40.5943 51.6684C39.1679 50.4574 28.2325 43.2479 27.0249 42.4449L12.2858 41.4987C12.2171 41.4941 12.1502 41.476 12.0899 41.4455C12.0296 41.415 11.9773 41.3729 11.9366 41.3221C11.8959 41.2713 11.8678 41.2131 11.8542 41.1514C11.8406 41.0897 11.8419 41.026 11.8579 40.9648L17.3351 20.6558C17.3624 20.5508 17.4316 20.4588 17.5292 20.3978C17.6267 20.3368 17.7457 20.3112 17.8629 20.326L27.9187 21.5934C29.4497 21.1593 39.0348 18.5073 40.2187 18.5073C41.4026 18.5073 45.1254 22.4137 46.6801 24.1065C50.4837 26.7889 68.803 39.8016 69.5875 41.1167C70.1057 41.9848 70.0629 43.721 69.0359 44.9797C68.4749 45.6959 67.1579 46.7984 64.5334 46.5293C64.4383 47.5406 64.0104 49.7673 62.1133 50.2013C60.9714 50.4613 59.7822 50.4982 58.6235 50.3098C58.5088 51.0151 58.1758 51.6757 57.6637 52.214C57.1516 52.7523 56.4816 53.1458 55.7327 53.3482C54.0591 53.7475 53.0131 53.5782 52.4426 53.3785C51.9909 54.251 50.7643 56.126 48.7673 56.126ZM12.9182 40.6914L27.2246 41.6072C27.3135 41.6142 27.3988 41.6427 27.4718 41.6897C27.9472 42.0152 39.6672 49.7412 41.2599 51.052C43.9653 53.3178 46.2332 54.6676 48.1825 55.1755C50.4695 55.7745 51.8007 52.6363 51.815 52.6059C51.8418 52.5402 51.8857 52.4814 51.9428 52.4345C51.9999 52.3877 52.0686 52.3542 52.1431 52.3368C52.2183 52.3193 52.297 52.3188 52.3724 52.3355C52.4478 52.3521 52.5176 52.3854 52.5757 52.4323C52.5757 52.4323 53.3935 53.0052 55.533 52.4887C57.6726 51.9722 57.7772 49.8497 57.7819 49.7586C57.7858 49.6923 57.8062 49.6277 57.8416 49.5698C57.8771 49.5119 57.9266 49.4621 57.9864 49.4244C58.0461 49.3868 58.1144 49.3622 58.1861 49.3524C58.2577 49.3426 58.3309 49.3479 58.4 49.3679C59.5573 49.6269 60.7659 49.6269 61.9231 49.3679C63.3495 49.0468 63.649 46.8548 63.6538 46.0388C63.6537 45.9751 63.669 45.912 63.6985 45.8543C63.7281 45.7965 63.7713 45.7454 63.825 45.7046C63.8781 45.6649 63.9401 45.6362 64.0066 45.6205C64.0731 45.6048 64.1425 45.6024 64.2101 45.6135C66.0691 45.9173 67.486 45.5266 68.3085 44.4806C69.131 43.4345 69.1215 42.0847 68.7839 41.5421C68.1421 40.5698 54.8579 30.9774 46.0858 24.7706C46.0583 24.7511 46.0328 24.7293 46.0097 24.7055C43.7513 22.2097 40.9033 19.4666 40.2377 19.3841C39.4437 19.3841 32.3832 21.2722 28.1232 22.4615C28.0558 22.475 27.9861 22.475 27.9187 22.4615L18.1814 21.2375L12.9182 40.6914Z" fill="#093F68"/>
<path d="M30.6186 41.903C31.7432 40.9619 31.8199 39.3674 30.7899 38.3416C29.7599 37.3158 28.0132 37.2472 26.8886 38.1883L23.2295 41.2503C22.1049 42.1914 22.0282 43.7859 23.0582 44.8117C24.0882 45.8375 25.8349 45.9061 26.9595 44.965L30.6186 41.903Z" fill="#E28362"/>
<path d="M25.0993 46.0606C24.6523 46.0599 24.2103 45.9746 23.8012 45.8103C23.392 45.646 23.0246 45.4061 22.722 45.1057C22.1421 44.5278 21.8373 43.7632 21.8748 42.9802C21.9122 42.1972 22.2888 41.4598 22.9217 40.9302L26.5874 37.8658C26.8928 37.5718 27.2611 37.3382 27.6695 37.1796C28.0779 37.021 28.5176 36.9407 28.9614 36.9437C29.4052 36.9467 29.8436 37.033 30.2493 37.1972C30.6551 37.3614 31.0195 37.6 31.32 37.8982C31.6205 38.1963 31.8506 38.5477 31.9961 38.9305C32.1416 39.3133 32.1993 39.7193 32.1657 40.1233C32.1321 40.5273 32.0079 40.9207 31.8007 41.279C31.5936 41.6373 31.308 41.953 30.9616 42.2063L27.2959 45.275C26.6984 45.7805 25.9138 46.0611 25.0993 46.0606ZM23.4162 44.5198C23.8263 44.9268 24.3965 45.1687 25.0018 45.1923C25.6071 45.2159 26.1979 45.0193 26.6445 44.6456L30.3055 41.5813C30.5412 41.4 30.7343 41.177 30.8733 40.9258C31.0122 40.6747 31.0941 40.4005 31.1141 40.1196C31.134 39.8388 31.0916 39.5573 30.9893 39.2918C30.887 39.0264 30.727 38.7826 30.5188 38.575C30.3107 38.3674 30.0588 38.2004 29.7782 38.084C29.4976 37.9676 29.1941 37.9041 28.8859 37.8975C28.5778 37.8908 28.2713 37.9411 27.985 38.0453C27.6987 38.1496 27.4384 38.3055 27.2198 38.5039L23.554 41.5726C23.1081 41.947 22.8432 42.4676 22.8173 43.0201C22.7915 43.5727 23.0069 44.112 23.4162 44.5198Z" fill="#093F68"/>
<path d="M35.9403 44.4652C37.0649 43.524 37.1416 41.9296 36.1116 40.9038C35.0816 39.878 33.335 39.8093 32.2103 40.7504L26.7708 45.3023C25.6462 46.2434 25.5695 47.8379 26.5995 48.8637C27.6295 49.8895 29.3761 49.9582 30.5008 49.0171L35.9403 44.4652Z" fill="#E28362"/>
<path d="M28.6461 50.1146H28.5035C27.8639 50.0892 27.2469 49.8914 26.7305 49.546C26.2141 49.2006 25.8214 48.7232 25.6021 48.1741C25.3828 47.6251 25.3467 47.029 25.4984 46.4612C25.6501 45.8934 25.9827 45.3794 26.4543 44.9842L31.8982 40.4311C32.2054 40.145 32.5731 39.919 32.979 39.7668C33.3848 39.6146 33.8204 39.5395 34.2591 39.5459C34.6979 39.5524 35.1306 39.6403 35.5309 39.8043C35.9312 39.9683 36.2908 40.2049 36.5877 40.4999C36.8846 40.7948 37.1126 41.1419 37.2579 41.5198C37.4032 41.8978 37.4627 42.2988 37.4327 42.6985C37.4028 43.0981 37.284 43.488 37.0837 43.8444C36.8834 44.2008 36.6058 44.5162 36.2676 44.7715L30.8284 49.3507C30.232 49.8467 29.4529 50.1194 28.6461 50.1146ZM34.0805 40.5222C33.5102 40.522 32.9604 40.7171 32.5401 41.0691L27.0961 45.6222C26.7638 45.9002 26.5289 46.2616 26.4208 46.6611C26.3128 47.0605 26.3364 47.4803 26.4888 47.8675C26.6412 48.2547 26.9156 48.5922 27.2774 48.8376C27.6392 49.0829 28.0724 49.2252 28.5225 49.2465C28.8235 49.26 29.1244 49.2186 29.4077 49.1247C29.691 49.0308 29.9509 48.8863 30.1723 48.6996L35.6258 44.1421C35.9644 43.8577 36.2013 43.4867 36.3052 43.0774C36.4092 42.6682 36.3756 42.2399 36.2087 41.8484C36.0418 41.4569 35.7494 41.1205 35.3697 40.8831C34.99 40.6457 34.5407 40.5184 34.0805 40.5179V40.5222Z" fill="#093F68"/>
<path d="M45.4912 50.902C46.6035 49.9488 46.6594 48.3536 45.6162 47.339C44.5729 46.3244 42.8255 46.2747 41.7132 47.2279L36.3332 51.8384C35.2209 52.7917 35.1649 54.3869 36.2082 55.4015C37.2514 56.416 38.9989 56.4657 40.1112 55.5125L45.4912 50.902Z" fill="#E28362"/>
<path d="M38.2266 56.6297H38.122C37.697 56.6184 37.2787 56.5306 36.8911 56.3712C36.5035 56.2118 36.1543 55.9839 35.8636 55.7008C35.2776 55.1291 34.9637 54.3687 34.9904 53.5862C35.0171 52.8036 35.3824 52.0626 36.0062 51.5253L41.3883 46.9114C42.0197 46.4073 42.8407 46.1466 43.6784 46.1841C44.5162 46.2216 45.3053 46.5544 45.8796 47.1125C46.4539 47.6705 46.7686 48.4102 46.7574 49.1759C46.7462 49.9415 46.41 50.6733 45.8196 51.2171L40.4374 55.831C39.8391 56.3451 39.0482 56.6308 38.2266 56.6297ZM43.6039 46.9808C43.0229 46.9803 42.4634 47.1821 42.0397 47.5451L36.6576 52.1547C36.2167 52.5345 35.9586 53.0584 35.9399 53.6116C35.9212 54.1648 36.1433 54.7022 36.5577 55.1062C36.973 55.5084 37.5461 55.7439 38.1512 55.761C38.7564 55.7781 39.3443 55.5754 39.786 55.1973L45.1682 50.5878C45.5012 50.3012 45.7324 49.9299 45.8318 49.5221C45.9312 49.1143 45.8943 48.6886 45.7258 48.3001C45.5573 47.9116 45.2651 47.5782 44.8868 47.343C44.5085 47.1078 44.0616 46.9817 43.6039 46.9808Z" fill="#093F68"/>
<path d="M41.1786 47.3556C42.266 46.3787 42.2807 44.7827 41.2116 43.7909C40.1424 42.799 38.3942 42.7869 37.3068 43.7638L31.1018 49.3382C30.0144 50.315 29.9996 51.911 31.0688 52.9029C32.1379 53.8947 33.8862 53.9068 34.9736 52.9299L41.1786 47.3556Z" fill="#E28362"/>
<path d="M33.0488 54.0905H33.0251C32.6006 54.0914 32.1801 54.0152 31.7883 53.8661C31.3964 53.7171 31.0411 53.4982 30.7429 53.2224C30.1423 52.6637 29.809 51.9103 29.8161 51.1275C29.8232 50.3447 30.1702 49.5964 30.7809 49.0469L36.9856 43.4694C37.2847 43.1818 37.6441 42.952 38.0425 42.7939C38.4408 42.6357 38.87 42.5523 39.3044 42.5487C39.7388 42.5451 40.1695 42.6213 40.571 42.7728C40.9724 42.9244 41.3364 43.1481 41.6411 43.4307C41.9459 43.7133 42.1853 44.049 42.345 44.4178C42.5047 44.7866 42.5815 45.181 42.5707 45.5774C42.56 45.9739 42.462 46.3643 42.2825 46.7255C42.1031 47.0866 41.8459 47.4111 41.5262 47.6796L35.3453 53.2571C35.0412 53.5269 34.6819 53.7393 34.2879 53.8823C33.8938 54.0253 33.4728 54.0961 33.0488 54.0905ZM39.2583 43.4737C38.6572 43.4728 38.0799 43.688 37.6512 44.0727L31.4703 49.6502C31.1471 49.9391 30.9252 50.3091 30.8328 50.7133C30.7404 51.1175 30.7816 51.5377 30.9512 51.9205C31.1209 52.3032 31.4113 52.6314 31.7856 52.8632C32.16 53.095 32.6013 53.22 33.0536 53.2224C33.6587 53.2225 34.2402 53.0077 34.6749 52.6234L40.8843 47.0459C41.0979 46.8539 41.268 46.6253 41.3848 46.3732C41.5016 46.1211 41.5629 45.8505 41.5651 45.5768C41.5673 45.3032 41.5104 45.0317 41.3977 44.7781C41.285 44.5245 41.1186 44.2937 40.9081 44.0988C40.6985 43.9019 40.448 43.7452 40.1713 43.6378C39.8945 43.5305 39.597 43.4747 39.2963 43.4737H39.2583Z" fill="#093F68"/>
<path d="M74.67 19.6575C74.67 19.6575 63.7346 21.2028 62.1466 20.9597C60.5586 20.7166 50.1414 16.3241 47.8022 15.6079C45.4629 14.8917 41.0175 16.706 38.9302 18.299C36.843 19.8919 30.9759 25.6083 31.7556 29.0633C32.5354 32.5183 37.366 30.2526 41.1506 25.7298L46.3806 24.4277L67.8853 40.2356L73.6241 39.6453L74.67 19.6575Z" fill="#E28362"/>
<path d="M67.8853 40.6698C67.7765 40.6702 67.6707 40.6365 67.5858 40.5743L46.257 24.8792L41.4264 26.0902C38.5261 29.5192 35.2027 31.5288 33.1297 31.0947C32.4641 30.9558 31.6035 30.5044 31.2897 29.1329C30.4053 25.2264 36.9571 19.2236 38.6259 17.9475C40.8178 16.2721 45.4249 14.41 47.9496 15.1783C48.9766 15.4908 51.4727 16.4804 54.1305 17.5221C57.3683 18.8243 61.3954 20.3912 62.2132 20.5214C63.302 20.6863 70.2056 19.8269 74.575 19.2193C74.6451 19.2086 74.7169 19.2124 74.7852 19.2304C74.8535 19.2485 74.9165 19.2802 74.9696 19.3234C75.0219 19.3664 75.0631 19.4195 75.0903 19.4788C75.1174 19.5381 75.1298 19.6021 75.1265 19.6663L74.0805 39.6758C74.0812 39.7831 74.0384 39.8869 73.9602 39.967C73.8821 40.0472 73.7742 40.0981 73.6573 40.1099L67.9376 40.6698H67.8853ZM46.3663 23.9677C46.4752 23.9673 46.5809 24.001 46.6659 24.0632L68.028 39.8017L73.1676 39.2722L74.1661 20.1742C71.7318 20.5127 63.5017 21.6195 62.0705 21.4025C61.1814 21.268 58.1956 20.1004 53.7406 18.3642C51.1161 17.3268 48.6342 16.3459 47.65 16.0464C45.4677 15.3823 41.2076 17.1489 39.2345 18.6507C37.1901 20.2132 31.4989 25.7907 32.2216 28.994C32.3927 29.7405 32.7588 30.1615 33.3389 30.2961C35.0268 30.6477 38.1505 28.6294 40.7702 25.4956C40.8332 25.4196 40.9217 25.3647 41.0222 25.3393L46.2522 24.0372C46.2869 24.0143 46.3255 23.9967 46.3663 23.9851V23.9677Z" fill="#093F68"/>
<path d="M64.1055 46.4644C63.9966 46.4648 63.8909 46.4311 63.806 46.3689L53.7596 38.9337C53.6689 38.8592 53.613 38.7558 53.6035 38.6447C53.594 38.5337 53.6316 38.4236 53.7086 38.3371C53.7856 38.2507 53.896 38.1946 54.017 38.1804C54.138 38.1662 54.2603 38.1951 54.3587 38.2609L64.405 45.6918C64.4535 45.7279 64.4937 45.7724 64.5233 45.8228C64.5529 45.8731 64.5714 45.9283 64.5776 45.9852C64.5837 46.042 64.5776 46.0994 64.5594 46.1541C64.5412 46.2088 64.5114 46.2597 64.4716 46.3038C64.4274 46.3536 64.3716 46.3938 64.3083 46.4216C64.245 46.4493 64.1757 46.464 64.1055 46.4644Z" fill="#093F68"/>
<path d="M58.2241 50.2189C58.1234 50.2192 58.0252 50.1903 57.9436 50.1364L47.379 43.0484C47.2788 42.9801 47.2121 42.8784 47.1934 42.7655C47.1747 42.6526 47.2055 42.5374 47.2792 42.4451C47.3533 42.3529 47.4644 42.2912 47.5881 42.2733C47.7119 42.2554 47.8383 42.2828 47.9401 42.3496L58.5046 49.4333C58.5861 49.4871 58.6468 49.5632 58.678 49.6506C58.7091 49.7379 58.7091 49.832 58.6779 49.9193C58.6467 50.0067 58.586 50.0827 58.5044 50.1366C58.4229 50.1904 58.3247 50.2192 58.2241 50.2189Z" fill="#093F68"/>
<path d="M52.2334 53.1921C52.1156 53.1918 52.002 53.1516 51.9149 53.0792L43.4851 46.052C43.3979 45.9709 43.3492 45.8618 43.3492 45.7482C43.3492 45.6346 43.3979 45.5255 43.4851 45.4444C43.5703 45.36 43.6887 45.3098 43.8144 45.305C43.94 45.3001 44.0627 45.3408 44.1555 45.4183L52.571 52.4412C52.6422 52.5003 52.6921 52.5777 52.7141 52.6633C52.7361 52.7489 52.7291 52.8385 52.694 52.9204C52.659 53.0022 52.5976 53.0724 52.5179 53.1217C52.4382 53.171 52.3439 53.1971 52.2477 53.1964L52.2334 53.1921Z" fill="#093F68"/>
<path d="M56.1559 28.6859C51.815 28.6859 46.3521 24.9531 46.0811 24.7794C46.0311 24.7452 45.989 24.7024 45.9572 24.6534C45.9254 24.6043 45.9045 24.55 45.8956 24.4936C45.8868 24.4372 45.8903 24.3797 45.9057 24.3245C45.9212 24.2693 45.9485 24.2174 45.986 24.1718C46.0234 24.1262 46.0704 24.0878 46.1241 24.0587C46.1778 24.0297 46.2373 24.0106 46.2991 24.0025C46.3609 23.9945 46.4238 23.9976 46.4843 24.0117C46.5448 24.0259 46.6016 24.0508 46.6516 24.085C46.7277 24.1371 54.1638 29.2197 58.0244 27.4749C58.1367 27.4278 58.2647 27.4225 58.3812 27.46C58.4977 27.4976 58.5936 27.5751 58.6486 27.6761C58.7036 27.7771 58.7134 27.8936 58.6759 28.0011C58.6384 28.1086 58.5565 28.1985 58.4476 28.2518C57.731 28.557 56.9464 28.7056 56.1559 28.6859Z" fill="#093F68"/>
<path d="M20.5016 19.0109L20.183 21.0553L17.026 41.3946L16.755 43.1308L1.61183 42.0153C0.855944 39.0114 0.474742 35.9391 0.475494 32.857C0.468159 27.1296 1.79383 21.4661 4.3647 16.2417L20.5016 19.0109Z" fill="#68E1FD"/>
<path d="M16.7551 43.5692H16.717L1.57384 42.4537C1.47366 42.446 1.37874 42.4095 1.30271 42.3495C1.22668 42.2894 1.17346 42.2089 1.15069 42.1195C0.386914 39.0813 0.000942739 35.9742 9.13651e-05 32.857C-0.012748 27.0676 1.32776 21.3424 3.93209 16.0638C3.97533 15.9741 4.05055 15.9004 4.14551 15.8547C4.24047 15.809 4.34959 15.7939 4.45509 15.812L20.5872 18.5856C20.7076 18.6058 20.8149 18.6676 20.8866 18.7581C20.9583 18.8487 20.989 18.961 20.9723 19.0717L17.2258 43.196C17.2097 43.2995 17.1533 43.3943 17.0668 43.4629C16.9803 43.5315 16.8696 43.5692 16.7551 43.5692ZM2.01601 41.6117L16.3652 42.6708L19.9786 19.3625L4.66429 16.7322C2.20656 21.8114 0.941627 27.3043 0.950998 32.857C0.94998 35.8015 1.30233 38.7372 2.00175 41.6117H2.01601Z" fill="#093F68"/>
<path d="M10.0797 40.4528C11.1878 40.4528 12.0861 39.6327 12.0861 38.6211C12.0861 37.6095 11.1878 36.7894 10.0797 36.7894C8.97161 36.7894 8.0733 37.6095 8.0733 38.6211C8.0733 39.6327 8.97161 40.4528 10.0797 40.4528Z" fill="#093F68"/>
<path d="M10.0796 40.8825C9.58878 40.8825 9.10893 40.7496 8.70079 40.5007C8.29265 40.2517 7.97455 39.8979 7.7867 39.4838C7.59885 39.0698 7.5497 38.6143 7.64547 38.1748C7.74123 37.7353 7.97761 37.3316 8.3247 37.0147C8.6718 36.6978 9.11402 36.482 9.59546 36.3946C10.0769 36.3072 10.5759 36.3521 11.0294 36.5235C11.4829 36.695 11.8705 36.9854 12.1432 37.358C12.416 37.7306 12.5615 38.1687 12.5615 38.6168C12.5615 39.2177 12.3 39.794 11.8346 40.2189C11.3691 40.6438 10.7379 40.8825 10.0796 40.8825ZM10.0796 37.2235C9.77665 37.2235 9.48046 37.3056 9.2286 37.4594C8.97673 37.6131 8.78051 37.8317 8.66477 38.0873C8.54904 38.3429 8.519 38.6242 8.57846 38.8954C8.63792 39.1666 8.7842 39.4157 8.99879 39.6109C9.21337 39.8062 9.4866 39.939 9.78389 39.9924C10.0812 40.0459 10.3892 40.0176 10.6688 39.9111C10.9485 39.8047 11.1873 39.6249 11.3549 39.3944C11.5226 39.164 11.6116 38.8934 11.6106 38.6168C11.6094 38.2469 11.4475 37.8925 11.1605 37.6313C10.8735 37.3702 10.4849 37.2235 10.0796 37.2235Z" fill="#093F68"/>
<path d="M89.3473 32.8569C89.3484 35.9405 88.9672 39.0143 88.2109 42.0196L73.0677 43.1351L72.5447 39.7756L69.5256 20.3304L69.3212 19.0282L85.4581 16.259C88.0263 21.4781 89.3519 27.1354 89.3473 32.8569Z" fill="#68E1FD"/>
<path d="M73.0678 43.5692C72.9524 43.5703 72.8405 43.533 72.7531 43.4643C72.6656 43.3956 72.6084 43.3002 72.5923 43.196L68.8457 19.0717C68.829 18.961 68.8597 18.8487 68.9315 18.7581C69.0032 18.6676 69.1104 18.6058 69.2308 18.5856L85.363 15.812C85.4685 15.7939 85.5776 15.809 85.6726 15.8547C85.7675 15.9004 85.8427 15.9741 85.886 16.0638C88.4919 21.3421 89.8341 27.0673 89.8227 32.857C89.8153 35.9734 89.4229 39.0791 88.6531 42.1152C88.6304 42.2046 88.5771 42.2851 88.5011 42.3451C88.4251 42.4052 88.3301 42.4417 88.23 42.4494L73.0868 43.5649L73.0678 43.5692ZM69.8584 19.3625L73.4766 42.6708L87.8211 41.6117C88.5205 38.7372 88.8728 35.8015 88.8718 32.857C88.8857 27.3052 87.6256 21.8124 85.1728 16.7322L69.8584 19.3625Z" fill="#093F68"/>
<path d="M79.7431 40.4528C80.8513 40.4528 81.7496 39.6327 81.7496 38.6211C81.7496 37.6095 80.8513 36.7894 79.7431 36.7894C78.635 36.7894 77.7367 37.6095 77.7367 38.6211C77.7367 39.6327 78.635 40.4528 79.7431 40.4528Z" fill="#093F68"/>
<path d="M79.7432 40.8825C79.2523 40.8825 78.7725 40.7496 78.3643 40.5007C77.9562 40.2517 77.6381 39.8979 77.4502 39.4838C77.2624 39.0698 77.2132 38.6143 77.309 38.1748C77.4047 37.7353 77.6411 37.3316 77.9882 37.0147C78.3353 36.6978 78.7775 36.482 79.259 36.3946C79.7404 36.3072 80.2394 36.3521 80.6929 36.5235C81.1464 36.695 81.5341 36.9854 81.8068 37.358C82.0795 37.7306 82.225 38.1687 82.225 38.6168C82.225 39.2177 81.9636 39.794 81.4981 40.2189C81.0327 40.6438 80.4014 40.8825 79.7432 40.8825ZM79.7432 37.2235C79.4402 37.2235 79.144 37.3056 78.8921 37.4594C78.6403 37.6131 78.444 37.8317 78.3283 38.0873C78.2126 38.3429 78.1825 38.6242 78.242 38.8954C78.3014 39.1666 78.4477 39.4157 78.6623 39.6109C78.8769 39.8062 79.1501 39.939 79.4474 39.9924C79.7447 40.0459 80.0527 40.0176 80.3323 39.9111C80.612 39.8047 80.8508 39.6249 81.0184 39.3944C81.1861 39.164 81.2751 38.8934 81.2741 38.6168C81.2729 38.2469 81.111 37.8925 80.824 37.6313C80.5371 37.3702 80.1484 37.2235 79.7432 37.2235Z" fill="#093F68"/>
</svg>
