<svg width="216" height="162" viewBox="0 0 216 162" fill="none" xmlns="http://www.w3.org/2000/svg">
<circle cx="110" cy="82" r="46" fill="#FFED4C"/>
<path d="M77.9652 51.7806C77.8527 51.7798 77.7432 51.744 77.652 51.678L71.28 47.0556C71.164 46.9711 71.0863 46.8439 71.064 46.7022C71.0418 46.5604 71.0767 46.4156 71.1612 46.2996C71.2457 46.1836 71.3728 46.1059 71.5146 46.0836C71.6564 46.0613 71.8012 46.0963 71.9172 46.1808L78.3 50.8032C78.4156 50.8866 78.4935 51.0123 78.5167 51.1529C78.54 51.2935 78.5067 51.4376 78.4242 51.5538C78.3724 51.6266 78.3034 51.6854 78.2233 51.725C78.1432 51.7646 78.0545 51.7837 77.9652 51.7806Z" fill="#DFEAEF"/>
<path d="M69.7572 91.7514C69.6752 91.7519 69.5941 91.7336 69.5202 91.6981C69.4463 91.6625 69.3815 91.6106 69.3306 91.5462C69.2429 91.4336 69.2033 91.2909 69.2205 91.1493C69.2377 91.0076 69.3103 90.8785 69.4224 90.7902L75.8106 85.7844C75.9238 85.7086 76.0615 85.6784 76.1961 85.6999C76.3306 85.7213 76.4521 85.7928 76.5361 85.9001C76.6201 86.0074 76.6605 86.1424 76.6492 86.2782C76.6378 86.414 76.5755 86.5404 76.4748 86.6322L70.092 91.638C69.9963 91.7123 69.8784 91.7522 69.7572 91.7514Z" fill="#DFEAEF"/>
<path d="M77.9706 66.7602H67.6296C67.4864 66.7602 67.349 66.7033 67.2478 66.602C67.1465 66.5007 67.0896 66.3634 67.0896 66.2202C67.0896 66.077 67.1465 65.9396 67.2478 65.8383C67.349 65.7371 67.4864 65.6802 67.6296 65.6802H77.9706C78.1138 65.6802 78.2512 65.7371 78.3524 65.8383C78.4537 65.9396 78.5106 66.077 78.5106 66.2202C78.5106 66.3634 78.4537 66.5007 78.3524 66.602C78.2512 66.7033 78.1138 66.7602 77.9706 66.7602Z" fill="#DFEAEF"/>
<path d="M145.26 51.7806C145.146 51.781 145.034 51.7451 144.942 51.6782C144.849 51.6112 144.78 51.5166 144.745 51.4079C144.709 51.2993 144.709 51.1822 144.745 51.0735C144.78 50.9649 144.849 50.8702 144.941 50.8032L151.33 46.1808C151.387 46.1358 151.453 46.1028 151.523 46.0839C151.593 46.0649 151.666 46.0604 151.738 46.0705C151.811 46.0806 151.88 46.1052 151.942 46.1427C152.004 46.1803 152.059 46.2301 152.101 46.2891C152.144 46.3481 152.174 46.4151 152.19 46.4861C152.206 46.557 152.208 46.6305 152.195 46.7021C152.182 46.7737 152.154 46.8419 152.114 46.9027C152.074 46.9634 152.022 47.0154 151.961 47.0556L145.595 51.678C145.498 51.7484 145.38 51.7845 145.26 51.7806Z" fill="#DFEAEF"/>
<path d="M153.484 91.7514C153.365 91.751 153.249 91.7112 153.155 91.638L146.767 86.6322C146.711 86.5882 146.664 86.5338 146.63 86.4718C146.595 86.4099 146.573 86.3418 146.565 86.2713C146.557 86.2009 146.562 86.1295 146.582 86.0612C146.601 85.993 146.634 85.9292 146.678 85.8735C146.721 85.8178 146.776 85.7714 146.838 85.7368C146.9 85.7022 146.968 85.6801 147.038 85.6718C147.109 85.6636 147.18 85.6692 147.249 85.6886C147.317 85.7079 147.381 85.7405 147.436 85.7844L153.819 90.7902C153.931 90.8785 154.004 91.0076 154.021 91.1493C154.038 91.2909 153.998 91.4336 153.911 91.5462C153.86 91.6106 153.795 91.6625 153.721 91.6981C153.647 91.7336 153.566 91.7519 153.484 91.7514Z" fill="#DFEAEF"/>
<path d="M155.617 66.7602H145.26C145.117 66.7602 144.979 66.7033 144.878 66.602C144.777 66.5007 144.72 66.3634 144.72 66.2202C144.72 66.077 144.777 65.9396 144.878 65.8383C144.979 65.7371 145.117 65.6802 145.26 65.6802H155.601C155.744 65.6802 155.882 65.7371 155.983 65.8383C156.084 65.9396 156.141 66.077 156.141 66.2202C156.141 66.3634 156.084 66.5007 155.983 66.602C155.882 66.7033 155.744 66.7602 155.601 66.7602H155.617Z" fill="#DFEAEF"/>
<path d="M98.82 61.56C98.82 61.56 88.4196 64.5084 87.7284 66.69C87.7284 66.69 83.4948 72.0414 82.6524 78.7158C82.242 81.9558 83.3976 89.0514 84.9852 92.1564C88.2252 98.4852 91.3842 104.35 91.3842 104.35L89.3862 113.729L119.129 121.424L122.369 108.626C122.369 108.626 128.585 104.846 130.804 99.3654C133.024 93.8844 132.025 62.0028 128.585 57.8934C125.145 53.784 98.82 61.56 98.82 61.56Z" fill="#FFC9B0"/>
<path d="M119.119 121.964C119.074 121.97 119.028 121.97 118.984 121.964L89.2404 114.269C89.105 114.235 88.9883 114.149 88.9148 114.03C88.8413 113.911 88.8167 113.769 88.8462 113.632L90.801 104.452C90.261 103.426 87.3828 98.0802 84.4938 92.4264C82.917 89.343 81.6696 82.1664 82.107 78.6726C82.917 72.252 86.7186 67.122 87.2424 66.4416C88.2036 64.1304 96.8976 61.5816 98.658 61.0416C101.401 60.2316 125.41 53.2926 128.974 57.5478C132.451 61.7004 133.601 93.8142 131.279 99.5652C129.211 104.69 123.908 108.27 122.812 108.967L119.642 121.559C119.606 121.698 119.517 121.816 119.394 121.889C119.31 121.937 119.215 121.963 119.119 121.964ZM90.0072 113.324L118.724 120.755L121.819 108.481C121.853 108.343 121.941 108.225 122.062 108.151C122.121 108.113 128.153 104.414 130.275 99.1494C132.462 93.7494 131.382 62.0946 128.142 58.2282C127.418 57.3642 124.421 56.2734 112.482 58.7034C105.575 60.1128 98.982 62.046 98.9334 62.0676C94.7322 63.261 88.6302 65.529 88.2144 66.8412C88.1914 66.9025 88.1605 66.9606 88.1226 67.014C88.0794 67.0626 83.97 72.333 83.1546 78.7752C82.7442 82.0152 83.9592 89.0352 85.4334 91.9026C88.6248 98.1504 91.7946 104.02 91.827 104.08C91.8873 104.194 91.9045 104.326 91.8756 104.452L90.0072 113.324Z" fill="#093F68"/>
<path d="M129.832 30.321H96.1848C93.8496 30.321 91.9566 32.214 91.9566 34.5492V100.116C91.9566 102.451 93.8496 104.344 96.1848 104.344H129.832C132.167 104.344 134.06 102.451 134.06 100.116V34.5492C134.06 32.214 132.167 30.321 129.832 30.321Z" fill="white"/>
<path d="M129.832 104.89H96.1848C94.9201 104.887 93.7082 104.383 92.8144 103.488C91.9207 102.593 91.418 101.381 91.4166 100.116V34.56C91.418 33.2953 91.9207 32.0828 92.8144 31.188C93.7082 30.2933 94.9201 29.7892 96.1848 29.7864H129.832C131.097 29.7892 132.309 30.2933 133.203 31.188C134.096 32.0828 134.599 33.2953 134.6 34.56V100.116C134.599 101.381 134.096 102.593 133.203 103.488C132.309 104.383 131.097 104.887 129.832 104.89ZM96.1848 30.861C95.2056 30.8638 94.2676 31.2548 93.5762 31.9482C92.8848 32.6416 92.4966 33.5808 92.4966 34.56V100.116C92.498 101.094 92.8869 102.032 93.5781 102.724C94.2693 103.416 95.2066 103.807 96.1848 103.81H129.832C130.811 103.808 131.749 103.418 132.44 102.726C133.132 102.033 133.52 101.095 133.52 100.116V34.56C133.52 33.5813 133.132 32.6426 132.44 31.9501C131.749 31.2576 130.811 30.8678 129.832 30.8664L96.1848 30.861Z" fill="#093F68"/>
<path d="M129.368 38.4858H96.6492C95.4264 38.4858 94.4352 39.477 94.4352 40.6998V92.6802C94.4352 93.9029 95.4264 94.8942 96.6492 94.8942H129.368C130.591 94.8942 131.582 93.9029 131.582 92.6802V40.6998C131.582 39.477 130.591 38.4858 129.368 38.4858Z" fill="#68E1FD"/>
<path d="M129.373 95.4342H96.66C95.93 95.4328 95.2304 95.1422 94.7142 94.626C94.198 94.1098 93.9074 93.4102 93.906 92.6802V40.6944C93.9074 39.9649 94.1982 39.2658 94.7145 38.7505C95.2309 38.2352 95.9305 37.9458 96.66 37.9458H129.384C130.113 37.9458 130.812 38.2354 131.328 38.7508C131.843 39.2663 132.133 39.9654 132.133 40.6944V92.6802C132.133 93.0423 132.061 93.4009 131.922 93.7354C131.784 94.0698 131.58 94.3737 131.324 94.6295C131.068 94.8853 130.764 95.088 130.429 95.2261C130.094 95.3642 129.735 95.4349 129.373 95.4342ZM96.66 39.0258C96.4404 39.0251 96.2229 39.0677 96.0198 39.1513C95.8167 39.2348 95.6322 39.3576 95.4766 39.5126C95.3211 39.6676 95.1977 39.8518 95.1135 40.0546C95.0293 40.2574 94.986 40.4748 94.986 40.6944V92.6802C94.986 93.1242 95.1624 93.55 95.4763 93.8639C95.7902 94.1778 96.216 94.3542 96.66 94.3542H129.384C129.827 94.3528 130.251 94.1758 130.564 93.862C130.877 93.5482 131.053 93.1232 131.053 92.6802V40.6944C131.053 40.2519 130.877 39.8274 130.564 39.5145C130.251 39.2016 129.827 39.0258 129.384 39.0258H96.66Z" fill="#093F68"/>
<path d="M106.283 35.505C106.659 35.505 106.963 35.2004 106.963 34.8246C106.963 34.4489 106.659 34.1442 106.283 34.1442C105.907 34.1442 105.602 34.4489 105.602 34.8246C105.602 35.2004 105.907 35.505 106.283 35.505Z" fill="#093F68"/>
<path d="M120.42 35.3646H109.534C109.39 35.3646 109.253 35.3077 109.152 35.2064C109.05 35.1052 108.994 34.9678 108.994 34.8246C108.994 34.6814 109.05 34.544 109.152 34.4428C109.253 34.3415 109.39 34.2846 109.534 34.2846H120.42C120.563 34.2846 120.701 34.3415 120.802 34.4428C120.903 34.544 120.96 34.6814 120.96 34.8246C120.96 34.9678 120.903 35.1052 120.802 35.2064C120.701 35.3077 120.563 35.3646 120.42 35.3646Z" fill="#093F68"/>
<path d="M113.011 101.763C114.335 101.763 115.409 100.69 115.409 99.3654C115.409 98.0412 114.335 96.9678 113.011 96.9678C111.687 96.9678 110.614 98.0412 110.614 99.3654C110.614 100.69 111.687 101.763 113.011 101.763Z" fill="white"/>
<path d="M113.011 102.303C112.429 102.304 111.859 102.132 111.374 101.809C110.889 101.486 110.511 101.027 110.288 100.489C110.064 99.9507 110.006 99.3586 110.119 98.7872C110.232 98.2158 110.513 97.6909 110.925 97.279C111.337 96.8671 111.862 96.5867 112.433 96.4733C113.004 96.3599 113.597 96.4186 114.135 96.6421C114.673 96.8655 115.132 97.2435 115.455 97.7283C115.778 98.2131 115.95 98.7829 115.949 99.3654C115.947 100.144 115.637 100.89 115.087 101.441C114.536 101.992 113.79 102.302 113.011 102.303ZM113.011 97.5024C112.642 97.5013 112.282 97.6097 111.975 97.8137C111.668 98.0178 111.428 98.3084 111.286 98.6487C111.144 98.989 111.107 99.3638 111.178 99.7255C111.249 100.087 111.426 100.42 111.687 100.681C111.947 100.942 112.279 101.12 112.64 101.192C113.002 101.265 113.377 101.228 113.717 101.087C114.058 100.946 114.349 100.707 114.554 100.401C114.759 100.094 114.869 99.7341 114.869 99.3654C114.867 98.8727 114.671 98.4004 114.323 98.0515C113.976 97.7026 113.504 97.5052 113.011 97.5024Z" fill="#DFEAEF"/>
<path d="M135.837 59.0058H129.233C127.715 59.0058 126.484 60.2364 126.484 61.7544V63.4716C126.484 64.9896 127.715 66.2202 129.233 66.2202H135.837C137.355 66.2202 138.586 64.9896 138.586 63.4716V61.7544C138.586 60.2364 137.355 59.0058 135.837 59.0058Z" fill="#FFC9B0"/>
<path d="M135.832 66.7602H129.233C128.361 66.7602 127.524 66.4137 126.907 65.797C126.291 65.1803 125.944 64.3438 125.944 63.4716V61.7544C125.944 60.8822 126.291 60.0458 126.907 59.429C127.524 58.8123 128.361 58.4658 129.233 58.4658H135.832C136.704 58.4658 137.541 58.8121 138.159 59.4287C138.776 60.0453 139.124 60.8817 139.126 61.7544V63.4716C139.124 64.3443 138.776 65.1808 138.159 65.7973C137.541 66.4139 136.704 66.7602 135.832 66.7602ZM129.233 59.5458C128.647 59.5458 128.085 59.7785 127.671 60.1927C127.257 60.6069 127.024 61.1687 127.024 61.7544V63.4716C127.026 64.0569 127.259 64.6179 127.673 65.0318C128.087 65.4456 128.647 65.6788 129.233 65.6802H135.832C136.418 65.6802 136.98 65.4477 137.395 65.0337C137.81 64.6196 138.044 64.0579 138.046 63.4716V61.7544C138.044 61.1682 137.81 60.6064 137.395 60.1924C136.98 59.7783 136.418 59.5458 135.832 59.5458H129.233Z" fill="#093F68"/>
<path d="M137.43 67.338H129.433C127.804 67.338 126.484 68.6581 126.484 70.2864V71.604C126.484 73.2324 127.804 74.5524 129.433 74.5524H137.43C139.058 74.5524 140.378 73.2324 140.378 71.604V70.2864C140.378 68.6581 139.058 67.338 137.43 67.338Z" fill="#FFC9B0"/>
<path d="M137.435 75.0924H129.433C128.508 75.0909 127.621 74.723 126.968 74.0691C126.314 73.4152 125.946 72.5287 125.944 71.604V70.281C125.946 69.3567 126.314 68.4708 126.968 67.8178C127.622 67.1648 128.508 66.798 129.433 66.798H137.435C138.359 66.798 139.245 67.1649 139.898 67.8181C140.551 68.4713 140.918 69.3572 140.918 70.281V71.604C140.918 72.5282 140.552 73.4147 139.899 74.0687C139.246 74.7228 138.36 75.0909 137.435 75.0924ZM129.433 67.878C128.795 67.878 128.183 68.131 127.732 68.5815C127.28 69.032 127.026 69.6432 127.024 70.281V71.604C127.024 72.2427 127.278 72.8553 127.73 73.307C128.181 73.7586 128.794 74.0124 129.433 74.0124H137.435C137.753 74.0145 138.068 73.9538 138.362 73.8337C138.656 73.7136 138.924 73.5366 139.149 73.3127C139.374 73.0889 139.553 72.8226 139.675 72.5294C139.797 72.2361 139.86 71.9216 139.86 71.604V70.281C139.859 69.6441 139.605 69.0337 139.155 68.5834C138.704 68.133 138.094 67.8794 137.457 67.878H129.433Z" fill="#093F68"/>
<path d="M137.43 75.6648H129.433C127.804 75.6648 126.484 76.9848 126.484 78.6132V79.9308C126.484 81.5592 127.804 82.8792 129.433 82.8792H137.43C139.058 82.8792 140.378 81.5592 140.378 79.9308V78.6132C140.378 76.9848 139.058 75.6648 137.43 75.6648Z" fill="#FFC9B0"/>
<path d="M137.435 83.4246H129.433C128.508 83.4232 127.621 83.0552 126.968 82.4013C126.314 81.7474 125.946 80.861 125.944 79.9362V78.6132C125.946 77.6885 126.314 76.802 126.968 76.1481C127.621 75.4942 128.508 75.1262 129.433 75.1248H137.435C138.36 75.1262 139.246 75.4944 139.899 76.1485C140.552 76.8025 140.918 77.689 140.918 78.6132V79.92C140.921 80.379 140.832 80.8339 140.658 81.2587C140.484 81.6834 140.228 82.0697 139.904 82.3953C139.581 82.7208 139.196 82.9794 138.772 83.156C138.349 83.3326 137.894 83.4239 137.435 83.4246ZM129.433 76.2048C128.794 76.2048 128.181 76.4586 127.73 76.9102C127.278 77.3619 127.024 77.9745 127.024 78.6132V79.92C127.024 80.5588 127.278 81.1714 127.73 81.623C128.181 82.0747 128.794 82.3284 129.433 82.3284H137.435C137.753 82.3306 138.068 82.2698 138.362 82.1498C138.656 82.0297 138.924 81.8526 139.149 81.6288C139.374 81.4049 139.553 81.1387 139.675 80.8454C139.797 80.5522 139.86 80.2377 139.86 79.92V78.597C139.86 77.9592 139.607 77.3474 139.157 76.8959C138.706 76.4444 138.095 76.19 137.457 76.1886L129.433 76.2048Z" fill="#093F68"/>
<path d="M135.837 83.997H129.233C127.715 83.997 126.484 85.2276 126.484 86.7456V88.4628C126.484 89.9808 127.715 91.2114 129.233 91.2114H135.837C137.355 91.2114 138.586 89.9808 138.586 88.4628V86.7456C138.586 85.2276 137.355 83.997 135.837 83.997Z" fill="#FFC9B0"/>
<path d="M135.832 91.7514H129.233C128.361 91.7514 127.524 91.405 126.907 90.7882C126.291 90.1715 125.944 89.335 125.944 88.4628V86.7456C125.944 85.8734 126.291 85.037 126.907 84.4202C127.524 83.8035 128.361 83.457 129.233 83.457H135.832C136.704 83.457 137.541 83.8033 138.159 84.4199C138.776 85.0365 139.124 85.8729 139.126 86.7456V88.4628C139.124 89.3355 138.776 90.172 138.159 90.7886C137.541 91.4051 136.704 91.7514 135.832 91.7514ZM129.233 84.537C128.647 84.5385 128.087 84.7716 127.673 85.1855C127.259 85.5994 127.026 86.1603 127.024 86.7456V88.4628C127.024 89.0486 127.257 89.6104 127.671 90.0245C128.085 90.4387 128.647 90.6714 129.233 90.6714H135.832C136.418 90.6714 136.98 90.4389 137.395 90.0249C137.81 89.6108 138.044 89.0491 138.046 88.4628V86.7456C138.044 86.1594 137.81 85.5976 137.395 85.1836C136.98 84.7695 136.418 84.537 135.832 84.537H129.233Z" fill="#093F68"/>
<path d="M89.3862 80.1252C89.3862 80.1252 99.684 67.122 101.709 61.6896C102.854 58.6062 99.2466 56.5974 98.1288 56.6946C94.2246 57.0456 88.2036 66.0096 88.2036 66.0096" fill="#FFC9B0"/>
<path d="M89.3862 80.6652C89.2845 80.6658 89.1847 80.6376 89.0983 80.5839C89.012 80.5303 88.9425 80.4533 88.8979 80.3619C88.8533 80.2705 88.8355 80.1684 88.8464 80.0673C88.8573 79.9662 88.8965 79.8702 88.9596 79.7904C89.0622 79.6608 99.2196 66.7926 101.201 61.5006C101.382 61.0543 101.438 60.5671 101.363 60.0914C101.288 59.6157 101.084 59.1695 100.775 58.8006C99.9702 57.7206 98.6148 57.1806 98.1774 57.213C95.1858 57.483 90.288 63.855 88.6518 66.2904C88.5718 66.4079 88.4487 66.4891 88.3092 66.5164C88.1696 66.5437 88.025 66.5149 87.9066 66.4362C87.8472 66.397 87.7962 66.3464 87.7565 66.2874C87.7167 66.2284 87.689 66.1621 87.675 66.0923C87.6609 66.0226 87.6608 65.9507 87.6746 65.8809C87.6884 65.8111 87.7159 65.7448 87.7554 65.6856C88.0092 65.313 93.9654 56.5056 98.0802 56.1384C98.9658 56.0574 100.656 56.862 101.633 58.1418C102.051 58.6529 102.325 59.2661 102.426 59.9182C102.528 60.5703 102.454 61.2377 102.211 61.8516C100.186 67.3056 90.2286 79.9092 89.7912 80.4384C89.7448 80.5039 89.6844 80.5583 89.6143 80.5975C89.5443 80.6368 89.4663 80.6599 89.3862 80.6652Z" fill="#093F68"/>
<path d="M121.705 122.272L85.3578 114.361L87.318 107.325L123.26 114.826L121.705 122.272Z" fill="white"/>
<path d="M121.705 122.812C121.668 122.818 121.629 122.818 121.592 122.812L85.2444 114.896C85.1722 114.882 85.104 114.852 85.0443 114.81C84.9846 114.767 84.935 114.711 84.8988 114.647C84.8609 114.585 84.8361 114.515 84.8259 114.443C84.8157 114.371 84.8203 114.297 84.8394 114.226L86.7996 107.206C86.8364 107.074 86.9223 106.961 87.0396 106.89C87.157 106.818 87.2971 106.794 87.4314 106.823L123.374 114.323C123.513 114.353 123.636 114.436 123.714 114.556C123.792 114.675 123.819 114.821 123.79 114.961L122.234 122.413C122.205 122.552 122.122 122.675 122.002 122.753C121.911 122.801 121.808 122.821 121.705 122.812ZM86.0328 113.94L121.289 121.619L122.623 115.231L87.7068 107.946L86.0328 113.94Z" fill="#093F68"/>
<path d="M124.297 131.674L125.102 122.272L81.7722 113.805L75.6216 131.674H124.297Z" fill="#F56132"/>
<path d="M124.297 132.219H75.6C75.5134 132.219 75.428 132.199 75.3509 132.16C75.2739 132.12 75.2074 132.063 75.1572 131.992C75.107 131.922 75.0745 131.841 75.0623 131.755C75.0501 131.67 75.0585 131.582 75.087 131.501L81.2376 113.627C81.2806 113.504 81.3666 113.401 81.4798 113.336C81.5929 113.272 81.7255 113.25 81.8532 113.276L125.183 121.743C125.314 121.768 125.432 121.841 125.513 121.948C125.594 122.054 125.632 122.187 125.62 122.321L124.81 131.722C124.8 131.853 124.742 131.976 124.648 132.068C124.553 132.159 124.429 132.213 124.297 132.219ZM76.3776 131.139H123.8L124.524 122.71L82.1286 114.426L76.3776 131.139Z" fill="#093F68"/>
<path d="M101.93 70.74C101.827 70.7411 101.725 70.7122 101.637 70.657C101.549 70.6017 101.479 70.5224 101.436 70.4284C101.392 70.3344 101.376 70.2298 101.39 70.1271C101.404 70.0243 101.447 69.9278 101.515 69.849L124.691 42.5412C124.737 42.4873 124.794 42.443 124.857 42.4109C124.92 42.3787 124.989 42.3593 125.06 42.3538C125.131 42.3483 125.202 42.3568 125.269 42.3787C125.336 42.4007 125.399 42.4357 125.453 42.4818C125.507 42.5279 125.551 42.5842 125.583 42.6474C125.615 42.7106 125.635 42.7795 125.64 42.8502C125.646 42.9209 125.637 42.992 125.615 43.0594C125.593 43.1269 125.558 43.1893 125.512 43.2432L102.341 70.551C102.29 70.6103 102.227 70.6579 102.156 70.6905C102.085 70.7231 102.008 70.74 101.93 70.74Z" fill="white"/>
<path d="M100.98 89.6022C100.844 89.6017 100.712 89.5497 100.613 89.4564C100.508 89.3596 100.445 89.2251 100.439 89.0824C100.433 88.9397 100.484 88.8004 100.58 88.695L121.64 65.853C121.738 65.7477 121.873 65.6855 122.016 65.6799C122.16 65.6743 122.299 65.7259 122.405 65.8233C122.51 65.9207 122.572 66.0559 122.578 66.1992C122.583 66.3425 122.532 66.4821 122.434 66.5874L101.374 89.4294C101.324 89.4837 101.263 89.5271 101.195 89.5568C101.127 89.5865 101.054 89.602 100.98 89.6022Z" fill="white"/>
<path d="M104.312 50.9058C104.173 50.9052 104.039 50.8511 103.939 50.7546C103.839 50.6534 103.782 50.5165 103.782 50.3739C103.782 50.2312 103.839 50.0944 103.939 49.9932L111.083 42.498C111.134 42.4474 111.193 42.4072 111.259 42.3798C111.325 42.3524 111.396 42.3383 111.467 42.3383C111.538 42.3383 111.609 42.3524 111.674 42.3798C111.74 42.4072 111.8 42.4474 111.85 42.498C111.951 42.5992 112.007 42.736 112.007 42.8787C112.007 43.0213 111.951 43.1582 111.85 43.2594L104.701 50.76C104.649 50.8087 104.588 50.8467 104.521 50.8718C104.454 50.8968 104.383 50.9083 104.312 50.9058Z" fill="white"/>
<path d="M87.696 125.237C89.3214 125.237 90.639 123.919 90.639 122.294C90.639 120.668 89.3214 119.351 87.696 119.351C86.0706 119.351 84.753 120.668 84.753 122.294C84.753 123.919 86.0706 125.237 87.696 125.237Z" fill="#FFBC0E"/>
<path d="M87.696 125.777C87.0069 125.778 86.333 125.574 85.7595 125.192C85.186 124.81 84.7387 124.267 84.4743 123.63C84.2098 122.994 84.1401 122.294 84.2739 121.618C84.4076 120.942 84.7389 120.32 85.2258 119.833C85.7127 119.345 86.3333 119.013 87.0091 118.878C87.6849 118.743 88.3855 118.812 89.0222 119.075C89.659 119.339 90.2033 119.785 90.5862 120.358C90.9692 120.931 91.1736 121.605 91.1736 122.294C91.1736 123.217 90.8074 124.102 90.1554 124.755C89.5033 125.408 88.6188 125.775 87.696 125.777ZM87.696 119.896C87.2203 119.895 86.7549 120.035 86.3589 120.299C85.9629 120.563 85.6541 120.938 85.4715 121.377C85.289 121.816 85.241 122.3 85.3335 122.767C85.4261 123.233 85.655 123.662 85.9914 123.998C86.3278 124.335 86.7565 124.564 87.2231 124.656C87.6898 124.749 88.1734 124.701 88.6127 124.518C89.052 124.336 89.4272 124.027 89.6909 123.631C89.9545 123.235 90.0947 122.77 90.0936 122.294C90.0957 121.978 90.0353 121.664 89.9158 121.371C89.7962 121.079 89.62 120.812 89.3971 120.588C89.1742 120.364 88.9092 120.186 88.6173 120.064C88.3253 119.943 88.0122 119.88 87.696 119.88V119.896Z" fill="#093F68"/>
</svg>
