<svg width="93" height="104" viewBox="0 0 93 104" fill="none" xmlns="http://www.w3.org/2000/svg">
<circle cx="46" cy="53" r="46" fill="#FFED4C"/>
<path d="M13.9652 22.7806C13.8527 22.7798 13.7432 22.744 13.652 22.678L7.28 18.0556C7.164 17.9711 7.08631 17.8439 7.06403 17.7022C7.04175 17.5604 7.0767 17.4156 7.1612 17.2996C7.2457 17.1836 7.37282 17.1059 7.5146 17.0836C7.65637 17.0613 7.80119 17.0963 7.9172 17.1808L14.3 21.8032C14.4156 21.8866 14.4935 22.0123 14.5167 22.1529C14.54 22.2935 14.5067 22.4376 14.4242 22.5538C14.3724 22.6266 14.3034 22.6854 14.2233 22.725C14.1432 22.7646 14.0545 22.7837 13.9652 22.7806Z" fill="#DFEAEF"/>
<path d="M5.7572 62.7514C5.67517 62.7519 5.59413 62.7336 5.52021 62.6981C5.4463 62.6625 5.38145 62.6106 5.3306 62.5462C5.24291 62.4336 5.20334 62.2909 5.22054 62.1493C5.23774 62.0076 5.31031 61.8785 5.4224 61.7902L11.8106 56.7844C11.9238 56.7086 12.0615 56.6784 12.1961 56.6999C12.3306 56.7213 12.4521 56.7928 12.5361 56.9001C12.6201 57.0074 12.6605 57.1424 12.6491 57.2782C12.6378 57.414 12.5755 57.5404 12.4748 57.6322L6.092 62.638C5.99628 62.7123 5.87836 62.7522 5.7572 62.7514Z" fill="#DFEAEF"/>
<path d="M13.9706 37.7602H3.6296C3.48638 37.7602 3.34903 37.7033 3.24776 37.602C3.14649 37.5007 3.0896 37.3634 3.0896 37.2202C3.0896 37.077 3.14649 36.9396 3.24776 36.8383C3.34903 36.7371 3.48638 36.6802 3.6296 36.6802H13.9706C14.1138 36.6802 14.2512 36.7371 14.3524 36.8383C14.4537 36.9396 14.5106 37.077 14.5106 37.2202C14.5106 37.3634 14.4537 37.5007 14.3524 37.602C14.2512 37.7033 14.1138 37.7602 13.9706 37.7602Z" fill="#DFEAEF"/>
<path d="M81.26 22.7806C81.1457 22.781 81.0343 22.7451 80.9417 22.6782C80.849 22.6112 80.7801 22.5166 80.7447 22.4079C80.7092 22.2993 80.7092 22.1822 80.7446 22.0735C80.7799 21.9649 80.8488 21.8702 80.9414 21.8032L87.3296 17.1808C87.3868 17.1358 87.4525 17.1028 87.5228 17.0839C87.593 17.0649 87.6664 17.0604 87.7385 17.0705C87.8105 17.0806 87.8798 17.1052 87.9422 17.1427C88.0045 17.1803 88.0586 17.2301 88.1012 17.2891C88.1438 17.3481 88.174 17.4151 88.1901 17.4861C88.2062 17.557 88.2077 17.6305 88.1947 17.7021C88.1816 17.7737 88.1542 17.8419 88.1141 17.9027C88.074 17.9634 88.0221 18.0154 87.9614 18.0556L81.5948 22.678C81.4977 22.7484 81.3799 22.7845 81.26 22.7806Z" fill="#DFEAEF"/>
<path d="M89.4842 62.7514C89.3649 62.751 89.2491 62.7112 89.1548 62.638L82.7666 57.6322C82.7109 57.5882 82.6645 57.5338 82.6299 57.4718C82.5953 57.4099 82.5732 57.3418 82.5649 57.2713C82.5566 57.2009 82.5623 57.1295 82.5816 57.0612C82.601 56.993 82.6335 56.9292 82.6775 56.8735C82.7215 56.8178 82.776 56.7714 82.8379 56.7368C82.8998 56.7022 82.968 56.6801 83.0384 56.6718C83.1089 56.6636 83.1803 56.6692 83.2485 56.6886C83.3168 56.7079 83.3805 56.7405 83.4362 56.7844L89.819 61.7902C89.9311 61.8785 90.0037 62.0076 90.0209 62.1493C90.0381 62.2909 89.9985 62.4336 89.9108 62.5462C89.8599 62.6106 89.7951 62.6625 89.7212 62.6981C89.6473 62.7336 89.5662 62.7519 89.4842 62.7514Z" fill="#DFEAEF"/>
<path d="M91.6172 37.7602H81.26C81.1168 37.7602 80.9794 37.7033 80.8782 37.602C80.7769 37.5007 80.72 37.3634 80.72 37.2202C80.72 37.077 80.7769 36.9396 80.8782 36.8383C80.9794 36.7371 81.1168 36.6802 81.26 36.6802H91.601C91.7442 36.6802 91.8816 36.7371 91.9829 36.8383C92.0841 36.9396 92.141 37.077 92.141 37.2202C92.141 37.3634 92.0841 37.5007 91.9829 37.602C91.8816 37.7033 91.7442 37.7602 91.601 37.7602H91.6172Z" fill="#DFEAEF"/>
<path d="M34.82 32.56C34.82 32.56 24.4196 35.5084 23.7284 37.69C23.7284 37.69 19.4948 43.0414 18.6524 49.7158C18.242 52.9558 19.3976 60.0514 20.9852 63.1564C24.2252 69.4852 27.3842 75.3496 27.3842 75.3496L25.3862 84.7294L55.1294 92.4243L58.3694 79.6264C58.3694 79.6264 64.5848 75.8463 66.8042 70.3653C69.0236 64.8843 68.0246 33.0028 64.5848 28.8934C61.145 24.784 34.82 32.56 34.82 32.56Z" fill="#FFC9B0"/>
<path d="M55.1186 92.9644C55.0738 92.97 55.0284 92.97 54.9836 92.9644L25.2404 85.2694C25.105 85.2348 24.9883 85.1491 24.9148 85.0303C24.8413 84.9114 24.8167 84.7687 24.8462 84.6322L26.801 75.4522C26.261 74.4262 23.3828 69.0802 20.4938 63.4264C18.917 60.343 17.6696 53.1664 18.107 49.6726C18.917 43.252 22.7186 38.122 23.2424 37.4416C24.2036 35.1304 32.8976 32.5816 34.658 32.0416C37.4012 31.2316 61.4096 24.2926 64.9736 28.5478C68.4512 32.7004 69.6014 64.8142 67.2794 70.5652C65.2112 75.6898 59.9084 79.27 58.8122 79.9666L55.6424 92.5594C55.6065 92.6977 55.5171 92.8162 55.394 92.8888C55.3101 92.9368 55.2153 92.9628 55.1186 92.9644ZM26.0072 84.3244L54.7244 91.7548L57.8186 79.4806C57.8532 79.3431 57.9405 79.2248 58.0616 79.1512C58.121 79.1134 64.1528 75.4144 66.275 70.1494C68.462 64.7494 67.382 33.0946 64.142 29.2282C63.4184 28.3642 60.4214 27.2734 48.482 29.7034C41.5754 31.1128 34.982 33.046 34.9334 33.0676C30.7322 34.261 24.6302 36.529 24.2144 37.8412C24.1914 37.9025 24.1605 37.9605 24.1226 38.014C24.0794 38.0626 19.97 43.333 19.1546 49.7752C18.7442 53.0152 19.9592 60.0352 21.4334 62.9026C24.6248 69.1504 27.7946 75.0202 27.827 75.0796C27.8873 75.1939 27.9045 75.3261 27.8756 75.4522L26.0072 84.3244Z" fill="#093F68"/>
<path d="M65.8322 1.32098H32.1848C29.8496 1.32098 27.9566 3.21401 27.9566 5.54918V71.116C27.9566 73.4511 29.8496 75.3442 32.1848 75.3442H65.8322C68.1674 75.3442 70.0604 73.4511 70.0604 71.116V5.54918C70.0604 3.21401 68.1674 1.32098 65.8322 1.32098Z" fill="white"/>
<path d="M65.8322 75.8896H32.1848C30.9201 75.8867 29.7082 75.3827 28.8144 74.4879C27.9207 73.5932 27.418 72.3806 27.4166 71.116V5.55998C27.418 4.29531 27.9207 3.08277 28.8144 2.18802C29.7082 1.29326 30.9201 0.789234 32.1848 0.786377H65.8322C67.0969 0.789234 68.3088 1.29326 69.2026 2.18802C70.0963 3.08277 70.599 4.29531 70.6004 5.55998V71.116C70.599 72.3806 70.0963 73.5932 69.2026 74.4879C68.3088 75.3827 67.0969 75.8867 65.8322 75.8896ZM32.1848 1.86098C31.2056 1.86384 30.2676 2.25481 29.5762 2.9482C28.8848 3.64159 28.4966 4.58081 28.4966 5.55998V71.116C28.498 72.0942 28.8869 73.032 29.5781 73.7243C30.2693 74.4165 31.2066 74.8067 32.1848 74.8096H65.8322C66.8109 74.8081 67.749 74.4184 68.4405 73.7258C69.132 73.0333 69.5204 72.0946 69.5204 71.116V5.55998C69.5204 4.58131 69.132 3.64264 68.4405 2.95012C67.749 2.25759 66.8109 1.86781 65.8322 1.86638L32.1848 1.86098Z" fill="#093F68"/>
<path d="M65.3678 9.48578H32.6492C31.4264 9.48578 30.4352 10.477 30.4352 11.6998V63.6802C30.4352 64.9029 31.4264 65.8942 32.6492 65.8942H65.3678C66.5906 65.8942 67.5818 64.9029 67.5818 63.6802V11.6998C67.5818 10.477 66.5906 9.48578 65.3678 9.48578Z" fill="#68E1FD"/>
<path d="M65.3732 66.4342H32.66C31.93 66.4328 31.2304 66.1422 30.7142 65.626C30.198 65.1098 29.9074 64.4102 29.906 63.6802V11.6944C29.9074 10.9649 30.1982 10.2658 30.7145 9.75052C31.2309 9.23521 31.9305 8.9458 32.66 8.9458H65.384C66.113 8.9458 66.8121 9.23539 67.3276 9.75085C67.843 10.2663 68.1326 10.9654 68.1326 11.6944V63.6802C68.1326 64.0423 68.0612 64.4009 67.9225 64.7354C67.7837 65.0698 67.5804 65.3737 67.3241 65.6295C67.0678 65.8853 66.7635 66.088 66.4288 66.2261C66.094 66.3642 65.7353 66.4349 65.3732 66.4342ZM32.66 10.0258C32.4404 10.0251 32.2229 10.0677 32.0198 10.1513C31.8167 10.2348 31.6322 10.3576 31.4766 10.5126C31.3211 10.6676 31.1977 10.8518 31.1135 11.0546C31.0293 11.2574 30.986 11.4748 30.986 11.6944V63.6802C30.986 64.1242 31.1624 64.55 31.4763 64.8639C31.7902 65.1778 32.216 65.3542 32.66 65.3542H65.384C65.827 65.3528 66.2514 65.1758 66.5642 64.862C66.877 64.5482 67.0526 64.1232 67.0526 63.6802V11.6944C67.0526 11.2519 66.8768 10.8274 66.5639 10.5145C66.251 10.2016 65.8266 10.0258 65.384 10.0258H32.66Z" fill="#093F68"/>
<path d="M42.2828 6.50497C42.6586 6.50497 42.9632 6.20034 42.9632 5.82456C42.9632 5.44879 42.6586 5.14417 42.2828 5.14417C41.907 5.14417 41.6024 5.44879 41.6024 5.82456C41.6024 6.20034 41.907 6.50497 42.2828 6.50497Z" fill="#093F68"/>
<path d="M56.42 6.36454H45.5336C45.3904 6.36454 45.253 6.30765 45.1518 6.20638C45.0505 6.10511 44.9936 5.96776 44.9936 5.82454C44.9936 5.68133 45.0505 5.54398 45.1518 5.44271C45.253 5.34144 45.3904 5.28455 45.5336 5.28455H56.42C56.5632 5.28455 56.7006 5.34144 56.8018 5.44271C56.9031 5.54398 56.96 5.68133 56.96 5.82454C56.96 5.96776 56.9031 6.10511 56.8018 6.20638C56.7006 6.30765 56.5632 6.36454 56.42 6.36454Z" fill="#093F68"/>
<path d="M49.0112 72.763C50.3353 72.763 51.4088 71.6895 51.4088 70.3654C51.4088 69.0412 50.3353 67.9678 49.0112 67.9678C47.687 67.9678 46.6136 69.0412 46.6136 70.3654C46.6136 71.6895 47.687 72.763 49.0112 72.763Z" fill="white"/>
<path d="M49.0112 73.303C48.4287 73.3041 47.8589 73.1322 47.3741 72.8093C46.8893 72.4863 46.5113 72.0267 46.2879 71.4887C46.0644 70.9507 46.0057 70.3586 46.1191 69.7872C46.2325 69.2158 46.5129 68.6909 46.9248 68.279C47.3367 67.8671 47.8616 67.5867 48.433 67.4733C49.0044 67.3599 49.5966 67.4186 50.1345 67.6421C50.6725 67.8655 51.1321 68.2435 51.4551 68.7283C51.778 69.2131 51.9499 69.7829 51.9488 70.3654C51.9474 71.144 51.6374 71.8904 51.0868 72.441C50.5362 72.9916 49.7899 73.3016 49.0112 73.303ZM49.0112 68.5024C48.6425 68.5013 48.2818 68.6097 47.9747 68.8137C47.6676 69.0178 47.428 69.3084 47.2862 69.6487C47.1443 69.989 47.1067 70.3638 47.1779 70.7255C47.2492 71.0873 47.4262 71.4197 47.6866 71.6808C47.9469 71.9419 48.2788 72.1199 48.6404 72.1922C49.0019 72.2645 49.3768 72.2279 49.7175 72.0871C50.0582 71.9462 50.3495 71.7075 50.5544 71.401C50.7594 71.0945 50.8688 70.7341 50.8688 70.3654C50.8674 69.8727 50.6714 69.4004 50.3235 69.0515C49.9756 68.7026 49.5039 68.5052 49.0112 68.5024Z" fill="#DFEAEF"/>
<path d="M71.837 30.0058H65.2328C63.7148 30.0058 62.4842 31.2364 62.4842 32.7544V34.4716C62.4842 35.9896 63.7148 37.2202 65.2328 37.2202H71.837C73.355 37.2202 74.5856 35.9896 74.5856 34.4716V32.7544C74.5856 31.2364 73.355 30.0058 71.837 30.0058Z" fill="#FFC9B0"/>
<path d="M71.8316 37.7602H65.2328C64.3606 37.7602 63.5241 37.4137 62.9074 36.797C62.2907 36.1802 61.9442 35.3438 61.9442 34.4716V32.7544C61.9442 31.8822 62.2907 31.0457 62.9074 30.429C63.5241 29.8122 64.3606 29.4658 65.2328 29.4658H71.8316C72.7043 29.4658 73.5413 29.8121 74.1589 30.4286C74.7765 31.0452 75.1242 31.8817 75.1256 32.7544V34.4716C75.1242 35.3442 74.7765 36.1807 74.1589 36.7973C73.5413 37.4139 72.7043 37.7602 71.8316 37.7602ZM65.2328 30.5458C64.647 30.5458 64.0853 30.7785 63.6711 31.1926C63.2569 31.6068 63.0242 32.1686 63.0242 32.7544V34.4716C63.0256 35.0569 63.2588 35.6178 63.6727 36.0317C64.0865 36.4456 64.6475 36.6787 65.2328 36.6802H71.8316C72.4179 36.6802 72.9802 36.4476 73.3952 36.0336C73.8103 35.6196 74.0442 35.0578 74.0456 34.4716V32.7544C74.0442 32.1681 73.8103 31.6064 73.3952 31.1923C72.9802 30.7783 72.4179 30.5458 71.8316 30.5458H65.2328Z" fill="#093F68"/>
<path d="M73.43 38.338H65.4326C63.8042 38.338 62.4842 39.658 62.4842 41.2864V42.604C62.4842 44.2323 63.8042 45.5524 65.4326 45.5524H73.43C75.0583 45.5524 76.3784 44.2323 76.3784 42.604V41.2864C76.3784 39.658 75.0583 38.338 73.43 38.338Z" fill="#FFC9B0"/>
<path d="M73.4354 46.0924H65.4326C64.5079 46.0909 63.6214 45.723 62.9675 45.0691C62.3136 44.4152 61.9456 43.5287 61.9442 42.604V41.281C61.9456 40.3567 62.3138 39.4708 62.9678 38.8178C63.6219 38.1648 64.5084 37.798 65.4326 37.798H73.4354C74.3591 37.798 75.2451 38.1649 75.8983 38.8181C76.5514 39.4713 76.9184 40.3572 76.9184 41.281V42.604C76.9184 43.5282 76.5516 44.4147 75.8986 45.0687C75.2455 45.7228 74.3596 46.0909 73.4354 46.0924ZM65.4326 38.878C64.7948 38.878 64.183 39.131 63.7315 39.5815C63.28 40.032 63.0256 40.6432 63.0242 41.281V42.604C63.0242 43.2427 63.2779 43.8553 63.7296 44.307C64.1813 44.7586 64.7939 45.0124 65.4326 45.0124H73.4354C73.753 45.0145 74.068 44.9538 74.362 44.8337C74.6561 44.7136 74.9235 44.5366 75.1489 44.3127C75.3742 44.0889 75.5531 43.8226 75.6751 43.5294C75.7972 43.2361 75.86 42.9216 75.86 42.604V41.281C75.8586 40.6441 75.6049 40.0337 75.1546 39.5834C74.7043 39.133 74.0939 38.8794 73.457 38.878H65.4326Z" fill="#093F68"/>
<path d="M73.43 46.6648H65.4326C63.8042 46.6648 62.4842 47.9848 62.4842 49.6132V50.9308C62.4842 52.5592 63.8042 53.8792 65.4326 53.8792H73.43C75.0583 53.8792 76.3784 52.5592 76.3784 50.9308V49.6132C76.3784 47.9848 75.0583 46.6648 73.43 46.6648Z" fill="#FFC9B0"/>
<path d="M73.4354 54.4246H65.4326C64.5079 54.4231 63.6214 54.0551 62.9675 53.4013C62.3136 52.7474 61.9456 51.8609 61.9442 50.9362V49.6132C61.9456 48.6884 62.3136 47.802 62.9675 47.1481C63.6214 46.4942 64.5079 46.1262 65.4326 46.1248H73.4354C74.3596 46.1262 75.2455 46.4943 75.8986 47.1484C76.5516 47.8024 76.9184 48.6889 76.9184 49.6132V50.92C76.9205 51.379 76.8321 51.8339 76.658 52.2586C76.484 52.6834 76.2279 53.0696 75.9043 53.3952C75.5808 53.7208 75.1961 53.9793 74.7725 54.1559C74.3488 54.3326 73.8944 54.4239 73.4354 54.4246ZM65.4326 47.2048C64.7939 47.2048 64.1813 47.4585 63.7296 47.9102C63.2779 48.3618 63.0242 48.9744 63.0242 49.6132V50.92C63.0242 51.5587 63.2779 52.1713 63.7296 52.623C64.1813 53.0746 64.7939 53.3284 65.4326 53.3284H73.4354C73.753 53.3305 74.068 53.2698 74.362 53.1497C74.6561 53.0296 74.9235 52.8526 75.1489 52.6287C75.3742 52.4049 75.5531 52.1386 75.6751 51.8454C75.7972 51.5521 75.86 51.2376 75.86 50.92V49.597C75.86 48.9591 75.607 48.3474 75.1565 47.8959C74.706 47.4444 74.0948 47.19 73.457 47.1886L65.4326 47.2048Z" fill="#093F68"/>
<path d="M71.837 54.9969H65.2328C63.7148 54.9969 62.4842 56.2275 62.4842 57.7455V59.4628C62.4842 60.9808 63.7148 62.2113 65.2328 62.2113H71.837C73.355 62.2113 74.5856 60.9808 74.5856 59.4628V57.7455C74.5856 56.2275 73.355 54.9969 71.837 54.9969Z" fill="#FFC9B0"/>
<path d="M71.8316 62.7514H65.2328C64.3606 62.7514 63.5241 62.4049 62.9074 61.7882C62.2907 61.1714 61.9442 60.335 61.9442 59.4628V57.7456C61.9442 56.8734 62.2907 56.0369 62.9074 55.4202C63.5241 54.8034 64.3606 54.457 65.2328 54.457H71.8316C72.7043 54.457 73.5413 54.8033 74.1589 55.4199C74.7765 56.0364 75.1242 56.8729 75.1256 57.7456V59.4628C75.1242 60.3355 74.7765 61.1719 74.1589 61.7885C73.5413 62.4051 72.7043 62.7514 71.8316 62.7514ZM65.2328 55.537C64.6475 55.5384 64.0865 55.7715 63.6727 56.1854C63.2588 56.5993 63.0256 57.1602 63.0242 57.7456V59.4628C63.0242 60.0485 63.2569 60.6103 63.6711 61.0245C64.0853 61.4387 64.647 61.6714 65.2328 61.6714H71.8316C72.4179 61.6714 72.9802 61.4389 73.3952 61.0248C73.8103 60.6108 74.0442 60.049 74.0456 59.4628V57.7456C74.0442 57.1593 73.8103 56.5976 73.3952 56.1835C72.9802 55.7695 72.4179 55.537 71.8316 55.537H65.2328Z" fill="#093F68"/>
<path d="M25.3862 51.1252C25.3862 51.1252 35.684 38.122 37.709 32.6896C38.8538 29.6062 35.2466 27.5974 34.1288 27.6946C30.2246 28.0456 24.2036 37.0096 24.2036 37.0096" fill="#FFC9B0"/>
<path d="M25.3862 51.6652C25.2845 51.6658 25.1847 51.6376 25.0983 51.5839C25.012 51.5303 24.9425 51.4533 24.8979 51.3619C24.8533 51.2705 24.8355 51.1684 24.8464 51.0673C24.8573 50.9662 24.8966 50.8702 24.9596 50.7904C25.0622 50.6608 35.2196 37.7926 37.2014 32.5006C37.3822 32.0543 37.438 31.5671 37.3629 31.0914C37.2877 30.6157 37.0844 30.1695 36.7748 29.8006C35.9702 28.7206 34.6148 28.1806 34.1774 28.213C31.1858 28.483 26.288 34.855 24.6518 37.2904C24.5718 37.4079 24.4487 37.4891 24.3092 37.5164C24.1697 37.5437 24.025 37.5149 23.9066 37.4362C23.8472 37.397 23.7962 37.3464 23.7565 37.2874C23.7167 37.2284 23.689 37.1621 23.675 37.0923C23.6609 37.0226 23.6608 36.9507 23.6746 36.8809C23.6884 36.8111 23.7159 36.7448 23.7554 36.6856C24.0092 36.313 29.9654 27.5056 34.0802 27.1384C34.9658 27.0574 36.656 27.862 37.6334 29.1418C38.051 29.6529 38.3247 30.2661 38.4263 30.9182C38.5278 31.5703 38.4536 32.2377 38.2112 32.8516C36.1862 38.3056 26.2286 50.9092 25.7912 51.4384C25.7448 51.5039 25.6844 51.5583 25.6143 51.5975C25.5443 51.6368 25.4663 51.6599 25.3862 51.6652Z" fill="#093F68"/>
<path d="M57.7052 93.2721L21.3578 85.3612L23.318 78.325L59.2604 85.8256L57.7052 93.2721Z" fill="white"/>
<path d="M57.7052 93.8122C57.6676 93.8175 57.6294 93.8175 57.5918 93.8122L21.2444 85.8958C21.1722 85.8818 21.104 85.8524 21.0443 85.8095C20.9846 85.7666 20.935 85.7113 20.8988 85.6474C20.8609 85.5848 20.8361 85.5153 20.8259 85.4429C20.8157 85.3704 20.8203 85.2967 20.8394 85.2262L22.7996 78.2062C22.8364 78.0739 22.9223 77.9607 23.0396 77.8894C23.157 77.8182 23.2971 77.7944 23.4314 77.8228L59.3738 85.3234C59.5134 85.3528 59.6357 85.4362 59.714 85.5556C59.7917 85.6753 59.8189 85.8209 59.7896 85.9606L58.2344 93.4126C58.205 93.5522 58.1215 93.6745 58.0022 93.7528C57.9109 93.8005 57.8078 93.8211 57.7052 93.8122ZM22.0328 84.94L57.2894 92.6188L58.6232 86.2306L23.7068 78.946L22.0328 84.94Z" fill="#093F68"/>
<path d="M60.2972 102.674L61.1018 93.2722L17.7722 84.805L11.6216 102.674H60.2972Z" fill="#F56132"/>
<path d="M60.2972 103.219H11.6C11.5134 103.219 11.428 103.199 11.3509 103.16C11.2739 103.12 11.2074 103.063 11.1572 102.992C11.107 102.922 11.0745 102.841 11.0623 102.755C11.0501 102.669 11.0585 102.582 11.087 102.501L17.2376 84.6268C17.2806 84.5039 17.3666 84.4007 17.4798 84.3362C17.5929 84.2717 17.7255 84.2502 17.8532 84.2758L61.1828 92.743C61.3144 92.7679 61.432 92.8408 61.5128 92.9476C61.5936 93.0544 61.6319 93.1874 61.6202 93.3208L60.8102 102.722C60.7998 102.853 60.742 102.976 60.6475 103.067C60.5531 103.159 60.4285 103.213 60.2972 103.219ZM12.3776 102.139H59.8004L60.524 93.7096L18.1286 85.426L12.3776 102.139Z" fill="#093F68"/>
<path d="M37.9304 41.74C37.8267 41.7411 37.7249 41.7122 37.6372 41.657C37.5494 41.6017 37.4795 41.5224 37.4356 41.4284C37.3918 41.3344 37.3759 41.2298 37.3899 41.1271C37.4039 41.0243 37.4472 40.9278 37.5146 40.849L60.6914 13.5412C60.7375 13.4873 60.7938 13.443 60.857 13.4109C60.9202 13.3787 60.9891 13.3593 61.0598 13.3538C61.1305 13.3483 61.2016 13.3568 61.269 13.3787C61.3365 13.4007 61.3989 13.4357 61.4528 13.4818C61.5067 13.5279 61.551 13.5842 61.5831 13.6474C61.6153 13.7106 61.6347 13.7795 61.6402 13.8502C61.6457 13.9209 61.6373 13.992 61.6153 14.0594C61.5933 14.1269 61.5583 14.1893 61.5122 14.2432L38.3408 41.551C38.2901 41.6103 38.2272 41.6579 38.1563 41.6905C38.0855 41.7231 38.0084 41.74 37.9304 41.74Z" fill="white"/>
<path d="M36.98 60.6022C36.8436 60.6017 36.7124 60.5496 36.6128 60.4564C36.5078 60.3595 36.4454 60.225 36.4394 60.0823C36.4333 59.9396 36.484 59.8004 36.5804 59.695L57.6404 36.853C57.7378 36.7477 57.873 36.6854 58.0163 36.6799C58.1596 36.6743 58.2992 36.7259 58.4045 36.8233C58.5098 36.9206 58.572 37.0559 58.5776 37.1992C58.5832 37.3425 58.5316 37.4821 58.4342 37.5874L37.3742 60.4294C37.3239 60.4836 37.2629 60.527 37.1951 60.5567C37.1272 60.5865 37.054 60.6019 36.98 60.6022Z" fill="white"/>
<path d="M40.3118 21.9058C40.1728 21.9052 40.0393 21.8511 39.9392 21.7546C39.8386 21.6534 39.7822 21.5165 39.7822 21.3739C39.7822 21.2312 39.8386 21.0944 39.9392 20.9932L47.0834 13.498C47.1336 13.4474 47.1933 13.4072 47.2591 13.3798C47.3249 13.3524 47.3955 13.3383 47.4668 13.3383C47.5381 13.3383 47.6087 13.3524 47.6745 13.3798C47.7403 13.4072 47.8 13.4474 47.8502 13.498C47.9508 13.5992 48.0072 13.736 48.0072 13.8787C48.0072 14.0213 47.9508 14.1582 47.8502 14.2594L40.7006 21.76C40.6486 21.8087 40.5875 21.8467 40.5208 21.8718C40.454 21.8968 40.383 21.9083 40.3118 21.9058Z" fill="white"/>
<path d="M23.696 96.2368C25.3214 96.2368 26.639 94.9191 26.639 93.2938C26.639 91.6684 25.3214 90.3508 23.696 90.3508C22.0706 90.3508 20.753 91.6684 20.753 93.2938C20.753 94.9191 22.0706 96.2368 23.696 96.2368Z" fill="#FFBC0E"/>
<path d="M23.696 96.7768C23.0069 96.7779 22.333 96.5745 21.7595 96.1924C21.186 95.8104 20.7387 95.2668 20.4743 94.6304C20.2098 93.9941 20.1401 93.2936 20.2738 92.6176C20.4076 91.9416 20.7389 91.3205 21.2258 90.8328C21.7127 90.3452 22.3333 90.0129 23.0091 89.8781C23.6849 89.7433 24.3855 89.8119 25.0222 90.0754C25.659 90.3389 26.2033 90.7853 26.5862 91.3582C26.9692 91.9311 27.1736 92.6047 27.1736 93.2938C27.1736 94.2166 26.8074 95.1017 26.1553 95.7547C25.5033 96.4078 24.6188 96.7754 23.696 96.7768ZM23.696 90.8962C23.2203 90.8951 22.7549 91.0353 22.3589 91.2989C21.9629 91.5625 21.6541 91.9378 21.4715 92.3771C21.289 92.8164 21.2409 93.3 21.3335 93.7667C21.426 94.2333 21.655 94.662 21.9914 94.9984C22.3278 95.3347 22.7565 95.5637 23.2231 95.6563C23.6897 95.7488 24.1734 95.7008 24.6127 95.5182C25.052 95.3357 25.4272 95.0268 25.6909 94.6309C25.9545 94.2349 26.0946 93.7695 26.0936 93.2938C26.0957 92.9776 26.0353 92.6641 25.9158 92.3713C25.7962 92.0785 25.6199 91.8123 25.3971 91.5879C25.1742 91.3636 24.9092 91.1855 24.6173 91.064C24.3253 90.9425 24.0122 90.88 23.696 90.88V90.8962Z" fill="#093F68"/>
</svg>
