<svg width="77" height="71" viewBox="0 0 77 71" fill="none" xmlns="http://www.w3.org/2000/svg">
<ellipse cx="38.5" cy="35.5" rx="38.5" ry="35.5" fill="#FFED4C"/>
<path d="M29.6583 50.3379C29.6583 50.3379 26.6297 45.5898 24.2168 46.4884C20.5448 47.864 21.6819 47.3981 17.7713 49.1565C7.97554 53.5551 15.1033 59.2129 5.69023 66.6069C4.76945 67.328 5.29086 68.8146 6.4557 68.7757C11.6809 68.6038 20.2674 67.1616 23.7509 62.2748C27.3674 57.1883 25.3595 53.8047 29.6583 50.3379Z" fill="url(#paint0_radial_30_44)"/>
<path d="M18.3205 62.7462C14.6152 64.1274 14.1825 62.9182 14.2713 58.0924C14.3045 56.1787 13.1452 55.9624 11.692 56.4173C11.0097 59.3127 10.7656 62.6242 5.69579 66.6069C4.77501 67.328 5.29641 68.7535 6.46126 68.7757C13.173 68.9144 19.4576 67.3058 23.2073 62.9515C22.6526 62.1361 20.6779 61.8643 18.3205 62.7462Z" fill="url(#paint1_radial_30_44)"/>
<path opacity="0.2" d="M24.8547 48.0359C25.3983 48.0359 26.4855 48.94 27.4451 50.116C25.6479 52.0241 25.1653 53.96 24.6994 55.8403C24.2834 57.521 23.8507 59.2572 22.3974 61.304C22.2754 61.476 22.1201 61.659 21.9481 61.8587L21.876 61.9419C21.7873 62.0417 21.6985 62.136 21.6042 62.2303L21.5821 62.2525C17.91 66.1464 12.0803 67.0617 7.68158 67.1171C11.8584 63.4728 12.5795 60.0892 13.1563 57.3713C13.7665 54.498 14.1714 52.5954 18.4536 50.6762C19.0527 50.4044 19.5353 50.1881 19.9346 50.0106C21.7873 49.173 21.7873 49.173 23.7231 48.4519L24.7992 48.0525C24.8103 48.0414 24.827 48.0359 24.8547 48.0359ZM24.8547 46.3718C24.6384 46.3718 24.4221 46.4051 24.2168 46.4883C20.5448 47.8639 21.6819 47.398 17.7658 49.1564C8.28065 53.4164 14.6651 58.8578 6.53338 65.9079C6.27268 66.1298 6.00088 66.3572 5.71244 66.5846C5.7069 66.5902 5.6958 66.5957 5.69025 66.6013L5.68471 66.6068C5.34635 66.8786 5.20213 67.2447 5.22432 67.5997C5.24651 68.1988 5.7069 68.7701 6.4169 68.7701H6.46127C6.72197 68.7757 6.98822 68.7757 7.24893 68.7757C13.4281 68.7757 19.1636 67.2336 22.7968 63.3841C22.9299 63.2454 23.0631 63.1068 23.1906 62.9625C23.1962 62.957 23.2017 62.9514 23.2073 62.9403C23.4014 62.7185 23.59 62.4966 23.7564 62.2636C27.3785 57.1771 25.3706 53.7935 29.6694 50.3268C29.6583 50.3378 27.1345 46.3718 24.8547 46.3718Z" fill="#424242"/>
<path d="M71.1045 8.98591C72.2028 7.24419 71.9366 4.97552 70.4833 3.52224C69.03 2.06896 66.7558 1.80271 65.0196 2.90099C60.4434 5.79091 51.2024 13.1017 35.1552 30.3913L44.1689 39.405C61.453 23.3523 68.2202 13.5621 71.1045 8.98591Z" fill="url(#paint2_radial_30_44)"/>
<path d="M35.1497 30.3914C30.9063 34.962 26.6186 40.6032 21.5154 46.6992C21.1438 47.1374 21.1715 47.7919 21.5765 48.1968L26.4133 53.0337C26.8182 53.4386 27.4728 53.4664 27.911 53.0947C34.007 47.986 39.5872 43.6428 44.1578 39.3995L35.1497 30.3914Z" fill="url(#paint3_radial_30_44)"/>
<path opacity="0.2" d="M67.3493 3.88831C68.087 3.88831 68.7804 4.17674 69.3018 4.69815C70.2059 5.60229 70.3668 7.02784 69.6956 8.09838C64.304 16.6406 55.3292 26.7636 43.0262 38.1846C39.9643 41.0302 36.3644 43.9756 32.5593 47.0985C30.8397 48.5129 29.0592 49.9662 27.2287 51.4971L23.1074 47.3758C24.7881 45.3623 26.3745 43.4042 27.911 41.5128C30.8619 37.8796 33.6465 34.446 36.3589 31.5228C53.0882 13.501 62.0465 6.73385 65.896 4.30432C66.3397 4.03252 66.839 3.88831 67.3493 3.88831ZM67.3493 2.22424C66.545 2.22424 65.7351 2.44612 65.014 2.90096C60.4379 5.79088 51.1968 13.1017 35.1497 30.3913C30.9063 34.9619 26.6186 40.6031 21.5154 46.6991C21.1438 47.1373 21.1715 47.7918 21.5765 48.1967L26.4133 53.0336C26.6297 53.2499 26.9125 53.3553 27.1954 53.3553C27.4506 53.3553 27.7057 53.2666 27.911 53.0946C34.007 47.986 39.5872 43.6428 44.1578 39.3994C61.4474 23.3523 68.209 13.5621 71.0989 8.98588C72.1972 7.24417 71.931 4.97549 70.4777 3.52221C69.629 2.66799 68.4975 2.22424 67.3493 2.22424Z" fill="#424242"/>
<defs>
<radialGradient id="paint0_radial_30_44" cx="0" cy="0" r="1" gradientUnits="userSpaceOnUse" gradientTransform="translate(15.8039 51.7695) scale(10.741 10.7399)">
<stop stop-color="#F57C00"/>
<stop offset="0.4277" stop-color="#F47A00"/>
<stop offset="0.6585" stop-color="#F17200"/>
<stop offset="0.8418" stop-color="#ED6400"/>
<stop offset="1" stop-color="#E65100"/>
</radialGradient>
<radialGradient id="paint1_radial_30_44" cx="0" cy="0" r="1" gradientUnits="userSpaceOnUse" gradientTransform="translate(12.6908 49.5255) scale(8.70804 8.70717)">
<stop stop-color="#D32F2F"/>
<stop offset="0.3881" stop-color="#CF2D2D"/>
<stop offset="0.7409" stop-color="#C42525"/>
<stop offset="1" stop-color="#B71C1C"/>
</radialGradient>
<radialGradient id="paint2_radial_30_44" cx="0" cy="0" r="1" gradientUnits="userSpaceOnUse" gradientTransform="translate(53.1992 1.80653) scale(38.8104 38.8065)">
<stop stop-color="#2196F3"/>
<stop offset="0.2752" stop-color="#1F8EEB"/>
<stop offset="0.7013" stop-color="#1A79D5"/>
<stop offset="0.7539" stop-color="#1976D2"/>
<stop offset="1" stop-color="#1976D2"/>
</radialGradient>
<radialGradient id="paint3_radial_30_44" cx="0" cy="0" r="1" gradientUnits="userSpaceOnUse" gradientTransform="translate(33.6465 32.866) scale(22.1148 22.1126)">
<stop stop-color="#BBDEFB"/>
<stop offset="1" stop-color="#64B5F6"/>
</radialGradient>
</defs>
</svg>
