<svg width="130" height="99" viewBox="0 0 130 99" fill="none" xmlns="http://www.w3.org/2000/svg">
<ellipse cx="64.5" cy="56.5" rx="38.5" ry="35.5" fill="#FFED4C"/>
<path d="M31.031 71.7683H98.956V73.7681C98.956 74.5829 98.6372 75.3644 98.0698 75.9406C97.5023 76.5167 96.7327 76.8404 95.9303 76.8404H34.0568C33.2543 76.8404 32.4847 76.5167 31.9172 75.9406C31.3498 75.3644 31.031 74.5829 31.031 73.7681V71.7683Z" fill="#68E1FD"/>
<path d="M95.9432 77.1673H34.0567C33.1683 77.1664 32.3166 76.8077 31.6884 76.1698C31.0602 75.5319 30.7069 74.6671 30.706 73.765V71.7685C30.706 71.681 30.7402 71.597 30.8012 71.5351C30.8621 71.4732 30.9448 71.4385 31.031 71.4385H98.956C99.0422 71.4385 99.1248 71.4732 99.1858 71.5351C99.2467 71.597 99.281 71.681 99.281 71.7685V73.765C99.2801 74.6648 98.9286 75.5277 98.3032 76.1652C97.6778 76.8026 96.8294 77.1629 95.9432 77.1673ZM31.356 72.0985V73.765C31.3569 74.492 31.6417 75.189 32.148 75.7031C32.6543 76.2172 33.3407 76.5064 34.0567 76.5073H95.9432C96.6593 76.5064 97.3457 76.2172 97.852 75.7031C98.3583 75.189 98.6431 74.492 98.644 73.765V72.0985H31.356Z" fill="#093F68"/>
<path d="M38.298 36.6135H91.702C92.414 36.6135 93.0968 36.9007 93.6002 37.4119C94.1036 37.9231 94.3865 38.6164 94.3865 39.3393V71.7651H35.6102V39.3393C35.6102 38.9811 35.6798 38.6264 35.8149 38.2954C35.95 37.9645 36.148 37.6639 36.3977 37.4107C36.6473 37.1576 36.9436 36.9569 37.2697 36.8201C37.5957 36.6833 37.9452 36.6131 38.298 36.6135Z" fill="#68E1FD"/>
<path d="M94.3898 72.0983H35.6103C35.5241 72.0983 35.4414 72.0636 35.3805 72.0017C35.3195 71.9398 35.2853 71.8559 35.2853 71.7683V39.3392C35.2861 38.5285 35.6039 37.7512 36.1688 37.1783C36.7337 36.6053 37.4996 36.2834 38.298 36.2834H91.702C92.5005 36.2834 93.2663 36.6053 93.8312 37.1783C94.3961 37.7512 94.7139 38.5285 94.7148 39.3392V71.7683C94.7148 71.8559 94.6805 71.9398 94.6196 72.0017C94.5586 72.0636 94.476 72.0983 94.3898 72.0983ZM35.9353 71.4383H94.0648V39.3392C94.0639 38.7035 93.8146 38.0942 93.3716 37.645C92.9286 37.1958 92.3281 36.9434 91.702 36.9434H38.298C37.6719 36.9434 37.0715 37.1958 36.6285 37.645C36.1855 38.0942 35.9361 38.7035 35.9353 39.3392V71.4383Z" fill="#093F68"/>
<path d="M89.2385 40.7517H40.7583C40.3419 40.7517 40.0043 41.0945 40.0043 41.5173V67.0725C40.0043 67.4953 40.3419 67.8381 40.7583 67.8381H89.2385C89.6549 67.8381 89.9925 67.4953 89.9925 67.0725V41.5173C89.9925 41.0945 89.6549 40.7517 89.2385 40.7517Z" fill="white"/>
<path d="M89.2418 68.1682H40.7583C40.4721 68.1682 40.1976 68.0527 39.9953 67.8473C39.7929 67.6418 39.6793 67.3631 39.6793 67.0725V41.5174C39.6793 41.2268 39.7929 40.9481 39.9953 40.7426C40.1976 40.5372 40.4721 40.4218 40.7583 40.4218H89.2418C89.5279 40.4218 89.8024 40.5372 90.0047 40.7426C90.2071 40.9481 90.3208 41.2268 90.3208 41.5174V67.0725C90.3208 67.3631 90.2071 67.6418 90.0047 67.8473C89.8024 68.0527 89.5279 68.1682 89.2418 68.1682ZM40.7583 41.0818C40.6447 41.0826 40.5361 41.1288 40.4559 41.2103C40.3756 41.2918 40.3301 41.4021 40.3293 41.5174V67.0725C40.3301 67.1878 40.3756 67.2981 40.4559 67.3796C40.5361 67.4611 40.6447 67.5073 40.7583 67.5082H89.2418C89.3553 67.5073 89.4639 67.4611 89.5442 67.3796C89.6244 67.2981 89.6699 67.1878 89.6708 67.0725V41.5174C89.6699 41.4021 89.6244 41.2918 89.5442 41.2103C89.4639 41.1288 89.3553 41.0826 89.2418 41.0818H40.7583Z" fill="#093F68"/>
<path d="M65 38.7749C65.2172 38.7749 65.3933 38.6139 65.3933 38.4152C65.3933 38.2166 65.2172 38.0555 65 38.0555C64.7828 38.0555 64.6068 38.2166 64.6068 38.4152C64.6068 38.6139 64.7828 38.7749 65 38.7749Z" fill="#68E1FD"/>
<path d="M65 39.1049C64.8676 39.0972 64.7403 39.0503 64.6338 38.97C64.5274 38.8896 64.4464 38.7794 64.4009 38.6529C64.3554 38.5264 64.3474 38.3891 64.3779 38.2581C64.4083 38.127 64.4759 38.0078 64.5723 37.9153C64.6686 37.8227 64.7896 37.7609 64.9202 37.7373C65.0508 37.7138 65.1853 37.7295 65.3071 37.7827C65.429 37.8359 65.5329 37.9241 65.6059 38.0365C65.679 38.1489 65.718 38.2806 65.7182 38.4152C65.7123 38.6032 65.6335 38.7811 65.499 38.9102C65.3644 39.0394 65.1851 39.1094 65 39.1049ZM65 38.3855C64.9545 38.3855 64.9317 38.4119 64.9317 38.4185C64.9403 38.4281 64.9509 38.4354 64.9628 38.44C64.9746 38.4446 64.9874 38.4463 65 38.4449C65.0422 38.4449 65.065 38.4251 65.0682 38.4152C65.06 38.4051 65.0495 38.3972 65.0377 38.392C65.0258 38.3869 65.0129 38.3846 65 38.3855Z" fill="#093F68"/>
<path d="M89.9958 46.8336H40.0043C39.9181 46.8336 39.8354 46.7988 39.7745 46.7369C39.7135 46.675 39.6793 46.5911 39.6793 46.5036C39.6793 46.4161 39.7135 46.3321 39.7745 46.2702C39.8354 46.2084 39.9181 46.1736 40.0043 46.1736H89.9958C90.082 46.1736 90.1646 46.2084 90.2256 46.2702C90.2865 46.3321 90.3208 46.4161 90.3208 46.5036C90.3208 46.5911 90.2865 46.675 90.2256 46.7369C90.1646 46.7988 90.082 46.8336 89.9958 46.8336Z" fill="#093F68"/>
<path d="M50.6448 64.8055H42.4158C42.3296 64.8055 42.2469 64.7707 42.1859 64.7088C42.125 64.6469 42.0908 64.563 42.0908 64.4755V48.8995C42.0908 48.8119 42.125 48.728 42.1859 48.6661C42.2469 48.6042 42.3296 48.5695 42.4158 48.5695H50.6448C50.731 48.5695 50.8136 48.6042 50.8746 48.6661C50.9355 48.728 50.9698 48.8119 50.9698 48.8995V64.4755C50.9698 64.563 50.9355 64.6469 50.8746 64.7088C50.8136 64.7707 50.731 64.8055 50.6448 64.8055ZM42.7408 64.1455H50.3198V49.2295H42.7408V64.1455Z" fill="#DFEAEF"/>
<path d="M86.8888 64.8055H52.5298C52.4436 64.8055 52.3609 64.7707 52.3 64.7088C52.239 64.6469 52.2048 64.563 52.2048 64.4755V48.8995C52.2048 48.8119 52.239 48.728 52.3 48.6661C52.3609 48.6042 52.4436 48.5695 52.5298 48.5695H86.8888C86.975 48.5695 87.0576 48.6042 87.1186 48.6661C87.1795 48.728 87.2138 48.8119 87.2138 48.8995V64.4755C87.2138 64.563 87.1795 64.6469 87.1186 64.7088C87.0576 64.7707 86.975 64.8055 86.8888 64.8055ZM52.8548 64.1455H86.5638V49.2295H52.8548V64.1455Z" fill="#DFEAEF"/>
<path d="M43.6053 44.55C43.3776 44.55 43.155 44.4814 42.9657 44.3529C42.7765 44.2244 42.629 44.0418 42.542 43.8281C42.4551 43.6145 42.4325 43.3794 42.4771 43.1527C42.5218 42.926 42.6317 42.7179 42.7929 42.5546C42.9541 42.3914 43.1594 42.2804 43.3828 42.2357C43.6062 42.191 43.8376 42.2146 44.0478 42.3035C44.258 42.3924 44.4374 42.5427 44.5635 42.7352C44.6895 42.9278 44.7564 43.1539 44.7558 43.3851C44.7549 43.6944 44.6333 43.9907 44.4176 44.209C44.202 44.4274 43.9098 44.55 43.6053 44.55ZM43.6053 42.8769C43.5063 42.8769 43.4095 42.9067 43.3272 42.9626C43.2449 43.0184 43.1807 43.0978 43.1429 43.1906C43.105 43.2835 43.0951 43.3857 43.1144 43.4843C43.1337 43.5828 43.1814 43.6734 43.2514 43.7445C43.3214 43.8155 43.4105 43.8639 43.5076 43.8836C43.6047 43.9032 43.7053 43.8931 43.7968 43.8546C43.8883 43.8162 43.9664 43.751 44.0214 43.6675C44.0764 43.5839 44.1058 43.4856 44.1058 43.3851C44.1079 43.317 44.0966 43.2491 44.0724 43.1856C44.0483 43.122 44.0117 43.064 43.965 43.0151C43.9184 42.9661 43.8624 42.9272 43.8006 42.9006C43.7388 42.8741 43.6724 42.8604 43.6053 42.8604V42.8769Z" fill="#DFEAEF"/>
<path d="M47.3558 44.55C47.1279 44.5507 46.9051 44.4826 46.7154 44.3545C46.5257 44.2264 46.3777 44.044 46.2902 43.8304C46.2027 43.6168 46.1797 43.3816 46.224 43.1547C46.2683 42.9278 46.3779 42.7194 46.539 42.5558C46.7001 42.3922 46.9054 42.2809 47.1289 42.2359C47.3523 42.1909 47.5839 42.2144 47.7943 42.3032C48.0047 42.392 48.1843 42.5422 48.3105 42.7349C48.4367 42.9275 48.5037 43.1538 48.503 43.3851C48.5022 43.6938 48.381 43.9896 48.1661 44.2079C47.9511 44.4261 47.6598 44.5491 47.3558 44.55ZM47.3558 42.8769C47.2566 42.8763 47.1596 42.9055 47.0768 42.961C46.9941 43.0164 46.9294 43.0955 46.8911 43.1883C46.8527 43.2811 46.8423 43.3834 46.8612 43.4822C46.8802 43.581 46.9276 43.6719 46.9975 43.7433C47.0673 43.8147 47.1565 43.8634 47.2537 43.8833C47.3508 43.9032 47.4517 43.8933 47.5433 43.8549C47.6349 43.8166 47.7133 43.7514 47.7684 43.6678C47.8236 43.5842 47.853 43.4858 47.853 43.3851C47.8552 43.3173 47.844 43.2497 47.82 43.1863C47.796 43.123 47.7598 43.0651 47.7134 43.0162C47.6671 42.9673 47.6116 42.9283 47.5501 42.9016C47.4887 42.8748 47.4226 42.8608 47.3558 42.8604V42.8769Z" fill="#DFEAEF"/>
<path d="M51.103 44.55C50.8752 44.5507 50.6523 44.4826 50.4626 44.3545C50.2729 44.2264 50.125 44.044 50.0375 43.8304C49.95 43.6168 49.9269 43.3816 49.9712 43.1547C50.0155 42.9278 50.1252 42.7194 50.2863 42.5558C50.4473 42.3922 50.6526 42.2809 50.8761 42.2359C51.0996 42.1909 51.3312 42.2144 51.5416 42.3032C51.7519 42.392 51.9316 42.5422 52.0577 42.7349C52.1839 42.9275 52.2509 43.1538 52.2503 43.3851C52.2494 43.6938 52.1283 43.9896 51.9133 44.2079C51.6983 44.4261 51.407 44.5491 51.103 44.55ZM51.103 42.8769C51.0039 42.8763 50.9068 42.9055 50.8241 42.961C50.7413 43.0164 50.6767 43.0955 50.6383 43.1883C50.5999 43.2811 50.5896 43.3834 50.6085 43.4822C50.6274 43.581 50.6749 43.6719 50.7447 43.7433C50.8146 43.8147 50.9038 43.8634 51.0009 43.8833C51.0981 43.9032 51.1989 43.8933 51.2905 43.8549C51.3822 43.8166 51.4606 43.7514 51.5157 43.6678C51.5708 43.5842 51.6003 43.4858 51.6003 43.3851C51.6029 43.3172 51.592 43.2494 51.5682 43.1858C51.5444 43.1223 51.5082 43.0642 51.4617 43.0152C51.4153 42.9662 51.3596 42.9273 51.2979 42.9007C51.2363 42.8741 51.17 42.8604 51.103 42.8604V42.8769Z" fill="#DFEAEF"/>
<path d="M59.8293 57.7005L58.7665 65.1717C58.7665 65.1717 54.2165 62.3205 53.7258 67.0527C53.7258 67.0527 50.6058 65.2014 50.0533 68.6565C50.0533 68.6565 47.1705 67.8216 47.6288 71.7684H81.3508C81.2445 71.1651 80.9984 70.596 80.6328 70.1083C80.2671 69.6206 79.7925 69.2281 79.248 68.9634C78.7879 68.7075 78.2623 68.5989 77.7402 68.6519C77.2182 68.7049 76.7241 68.9171 76.323 69.2604C76.323 69.2604 76.0175 66.1617 74.048 65.1189C72.5075 64.2972 70.6615 65.7789 70.6615 65.7789L69.8263 56.5389L59.8293 57.7005Z" fill="white"/>
<path d="M81.3508 72.0984H47.6288C47.5484 72.0989 47.4708 72.0692 47.4107 72.015C47.3507 71.9607 47.3126 71.8858 47.3038 71.8047C47.1315 70.3428 47.385 69.3099 48.0513 68.7324C48.2953 68.5402 48.5752 68.4003 48.8742 68.3215C49.1731 68.2426 49.4847 68.2264 49.79 68.2737C50.0013 67.353 50.44 66.7326 51.0575 66.429C51.9155 66.0198 52.91 66.3201 53.4625 66.5577C53.6673 65.4027 54.1548 64.6272 54.9185 64.2477C56.16 63.6273 57.7558 64.2741 58.4935 64.6536L59.4913 57.6544C59.5016 57.582 59.5353 57.5153 59.5871 57.4645C59.6389 57.4137 59.7057 57.3819 59.7773 57.3738L69.8003 56.1957C69.8431 56.1911 69.8864 56.1951 69.9277 56.2075C69.969 56.22 70.0074 56.2407 70.0408 56.2683C70.0745 56.2958 70.1025 56.3297 70.1232 56.3683C70.1438 56.4068 70.1567 56.4491 70.161 56.4927L70.9475 65.1882C71.643 64.7724 72.9853 64.1751 74.1975 64.8285C75.7868 65.6766 76.3588 67.7127 76.5473 68.6895C76.9763 68.4426 77.4604 68.3112 77.9536 68.3077C78.4468 68.3042 78.9326 68.4289 79.365 68.6697C79.9582 68.9577 80.4745 69.3862 80.8704 69.9192C81.2664 70.4521 81.5303 71.0739 81.64 71.7321C81.6447 71.7779 81.6399 71.8242 81.6259 71.8679C81.6119 71.9117 81.589 71.952 81.5588 71.9862C81.5057 72.0487 81.4315 72.0888 81.3508 72.0984ZM47.9245 71.4384H80.9478C80.8045 70.9658 80.5666 70.5284 80.2489 70.1536C79.9313 69.7788 79.5407 69.4747 79.1018 69.2605C78.7026 69.0372 78.2467 68.9408 77.7929 68.9838C77.3392 69.0267 76.9086 69.207 76.557 69.5013C76.5128 69.5436 76.4578 69.5723 76.3983 69.5845C76.3388 69.5966 76.2772 69.5915 76.2203 69.5699C76.1635 69.5482 76.1138 69.5109 76.0768 69.462C76.0398 69.4132 76.017 69.3548 76.011 69.2934C76.011 69.2637 75.686 66.3564 73.9245 65.4126C72.5823 64.6965 70.9053 66.0165 70.889 66.0297C70.843 66.0661 70.7881 66.0893 70.7302 66.0967C70.6722 66.1041 70.6134 66.0955 70.5599 66.0719C70.5064 66.0483 70.4601 66.0104 70.4259 65.9624C70.3918 65.9143 70.371 65.8578 70.3658 65.7987L69.5598 56.8887L60.125 58.0008L59.098 65.2179C59.09 65.2721 59.0689 65.3233 59.0366 65.3671C59.0043 65.4109 58.9617 65.4458 58.9128 65.4687C58.8634 65.4977 58.8073 65.513 58.7503 65.513C58.6932 65.513 58.6372 65.4977 58.5878 65.4687C58.5683 65.4687 56.524 64.1949 55.198 64.8582C54.548 65.1882 54.1645 65.934 54.041 67.1022C54.0356 67.1571 54.0166 67.2098 53.986 67.2553C53.9553 67.3008 53.9139 67.3379 53.8655 67.363C53.8181 67.3889 53.765 67.4026 53.7112 67.4026C53.6573 67.4026 53.6042 67.3889 53.5568 67.363C53.5568 67.363 52.2568 66.6105 51.3305 67.0527C50.83 67.2936 50.505 67.8612 50.3555 68.7357C50.3485 68.7821 50.3318 68.8263 50.3066 68.8656C50.2813 68.9049 50.2482 68.9382 50.2093 68.9634C50.1704 68.988 50.1268 69.0039 50.0815 69.0102C50.0361 69.0164 49.9899 69.0129 49.946 68.9997C49.946 68.9997 49.0425 68.7522 48.4575 69.2637C48.0318 69.63 47.8433 70.3791 47.9245 71.4384Z" fill="#093F68"/>
<path d="M56.6052 47.0382C56.6052 47.0382 53.716 48.8004 52.8417 53.031C51.9675 57.2616 53.0595 59.5749 53.0595 59.5749L58.5 55.3047L56.6052 47.0382Z" fill="#F56132"/>
<path d="M53.0595 59.9048H52.9848C52.9377 59.8935 52.8937 59.8716 52.856 59.8407C52.8184 59.8099 52.788 59.7709 52.767 59.7267C52.7215 59.6277 51.636 57.2648 52.5233 52.9748C53.4105 48.6848 56.316 46.8402 56.4233 46.7643C56.4675 46.7374 56.5174 46.7216 56.5688 46.7181C56.6202 46.7147 56.6717 46.7237 56.719 46.7444C56.7658 46.7648 56.8072 46.796 56.84 46.8355C56.8727 46.8751 56.8958 46.9219 56.9075 46.9721L58.825 55.2287C58.8377 55.2897 58.8331 55.353 58.8118 55.4114C58.7905 55.4698 58.7534 55.5209 58.7048 55.5587L53.2708 59.8289C53.2114 59.8789 53.1366 59.9058 53.0595 59.9048ZM56.3973 47.5958C54.7171 48.9916 53.568 50.9378 53.1473 53.1003C52.4973 56.1825 52.949 58.2251 53.1993 59.0402L58.1198 55.1759L56.3973 47.5958Z" fill="#093F68"/>
<path d="M73.3948 47.0382C73.3948 47.0382 76.284 48.8004 77.1583 53.031C78.0325 57.2616 76.9405 59.5749 76.9405 59.5749L71.5 55.3047L73.3948 47.0382Z" fill="#F56132"/>
<path d="M76.9405 59.9049C76.8676 59.9054 76.7966 59.881 76.739 59.8356L71.305 55.5654C71.2563 55.5275 71.2192 55.4764 71.1979 55.418C71.1767 55.3596 71.1721 55.2963 71.1847 55.2354L73.0795 46.9689C73.0912 46.9186 73.1143 46.8718 73.147 46.8322C73.1798 46.7927 73.2212 46.7615 73.268 46.7412C73.3153 46.7204 73.3668 46.7114 73.4182 46.7148C73.4696 46.7183 73.5195 46.7341 73.5637 46.761C73.684 46.8369 76.583 48.6486 77.4637 52.9716C78.3445 57.2946 77.2655 59.6244 77.22 59.7234C77.199 59.7676 77.1686 59.8066 77.1309 59.8375C77.0933 59.8683 77.0493 59.8902 77.0022 59.9016L76.9405 59.9049ZM71.8672 55.1727L76.7877 59.037C77.038 58.2252 77.4767 56.1825 76.8397 53.0969C76.419 50.9345 75.2699 48.9883 73.5897 47.5926L71.8672 55.1727Z" fill="#093F68"/>
<path d="M74.2528 38.2537C74.2528 45.3025 73.1315 51.5197 71.3278 56.4961C71.0548 57.2595 70.7666 57.9899 70.4633 58.6873H59.5108C59.2074 57.9877 58.9193 57.2573 58.6463 56.4961C56.8555 51.5197 55.7213 45.3025 55.7213 38.2537C55.7213 35.4256 56.7288 32.6437 58.0808 30.1654C59.6256 27.4392 61.5147 24.9298 63.7 22.7008C63.8648 22.5287 64.0618 22.392 64.2795 22.2986C64.4972 22.2052 64.7312 22.1571 64.9675 22.1571C65.2038 22.1571 65.4378 22.2052 65.6555 22.2986C65.8732 22.392 66.0702 22.5287 66.235 22.7008C68.3953 24.9393 70.2711 27.4437 71.8185 30.1555C73.2225 32.6701 74.2528 35.4586 74.2528 38.2537Z" fill="#FFBC0E"/>
<path d="M70.4763 59.0172H59.5238C59.4613 59.017 59.4001 58.9986 59.3476 58.9641C59.2952 58.9295 59.2537 58.8804 59.228 58.8225C58.903 58.1031 58.6235 57.3573 58.3538 56.6115C56.4363 51.282 55.4288 44.9328 55.4288 38.2536C55.4288 35.6928 56.2348 32.9175 57.8273 30.0036C59.39 27.2536 61.2962 24.7202 63.4985 22.4664C63.6941 22.2632 63.9276 22.1018 64.1855 21.9916C64.4433 21.8814 64.7203 21.8246 65 21.8246C65.2798 21.8246 65.5567 21.8814 65.8146 21.9916C66.0724 22.1018 66.306 22.2632 66.5015 22.4664C68.6833 24.7257 70.5767 27.2547 72.137 29.9937C73.762 32.934 74.5843 35.7093 74.5843 38.2437C74.5843 44.9229 73.5703 51.2721 71.6593 56.6016C71.3895 57.3474 71.097 58.0932 70.785 58.8126C70.76 58.8744 70.7171 58.9271 70.662 58.9636C70.6068 59.0002 70.5421 59.0188 70.4763 59.0172ZM59.7513 58.3572H70.2748C70.551 57.6972 70.8078 57.0372 71.0483 56.3772C72.9398 51.1203 73.9408 44.8503 73.9408 38.247C73.9408 35.8281 73.1445 33.1617 71.5748 30.327C70.0406 27.6429 68.1848 25.1622 66.0498 22.9416C65.9145 22.7976 65.7515 22.6834 65.5709 22.6062C65.3903 22.529 65.196 22.4904 65 22.4928C64.8065 22.4879 64.6142 22.5245 64.4356 22.6001C64.257 22.6757 64.096 22.7887 63.9633 22.9317C61.7992 25.1425 59.9257 27.6282 58.3895 30.327C56.8523 33.1386 56.0723 35.805 56.0723 38.247C56.0723 44.847 57.0733 51.117 58.9648 56.3772C59.2053 57.0504 59.475 57.7137 59.7383 58.3572H59.7513Z" fill="#093F68"/>
<path d="M71.3407 56.496C71.0677 57.2594 70.7796 57.9898 70.4762 58.6872H59.5237C59.2204 57.9876 58.9322 57.2572 58.6592 56.496H71.3407Z" fill="#F56132"/>
<path d="M70.4762 59.0172H59.5237C59.4612 59.0171 59.4001 58.9986 59.3476 58.9641C59.2952 58.9296 59.2536 58.8804 59.228 58.8225C58.903 58.1031 58.6235 57.3573 58.3537 56.6115C58.3356 56.5615 58.3297 56.5077 58.3365 56.4548C58.3433 56.402 58.3626 56.3516 58.3927 56.3079C58.4226 56.2642 58.4624 56.2285 58.5088 56.2038C58.5553 56.1791 58.6069 56.1661 58.6592 56.166H71.3342C71.3866 56.1661 71.4382 56.1791 71.4846 56.2038C71.531 56.2285 71.5709 56.2642 71.6007 56.3079C71.6309 56.3516 71.6502 56.402 71.657 56.4548C71.6638 56.5077 71.6579 56.5615 71.6397 56.6115C71.37 57.3573 71.0775 58.1031 70.7655 58.8225C70.7403 58.8794 70.6998 58.9279 70.6486 58.9623C70.5974 58.9968 70.5377 59.0158 70.4762 59.0172ZM59.7512 58.3572H70.2747C70.4914 57.8556 70.6951 57.3452 70.8857 56.826H59.1272C59.3201 57.3452 59.5237 57.8556 59.7382 58.3572H59.7512Z" fill="#093F68"/>
<path d="M71.8705 30.1653H58.1295C59.6743 27.4391 61.5634 24.9297 63.7487 22.7007C63.9138 22.5285 64.1111 22.3917 64.3291 22.2983C64.5471 22.2049 64.7813 22.1567 65.0179 22.1567C65.2545 22.1567 65.4887 22.2049 65.7066 22.2983C65.9246 22.3917 66.1219 22.5285 66.287 22.7007C68.446 24.944 70.3216 27.4514 71.8705 30.1653Z" fill="#F56132"/>
<path d="M71.8705 30.4953H58.1295C58.0732 30.4948 58.0181 30.4796 57.9694 30.4511C57.9207 30.4226 57.8801 30.3817 57.8516 30.3325C57.8232 30.2833 57.8077 30.2274 57.8069 30.1703C57.806 30.1133 57.8197 30.0569 57.8467 30.0069C59.4084 27.2562 61.3147 24.7226 63.518 22.4697C63.7135 22.2665 63.9471 22.1051 64.2049 21.9949C64.4628 21.8847 64.7397 21.8279 65.0195 21.8279C65.2992 21.8279 65.5762 21.8847 65.834 21.9949C66.0919 22.1051 66.3254 22.2665 66.521 22.4697C68.7001 24.7333 70.5912 27.2655 72.15 30.0069C72.177 30.0569 72.1907 30.1133 72.1898 30.1703C72.189 30.2274 72.1735 30.2833 72.145 30.3325C72.1165 30.3817 72.076 30.4226 72.0273 30.4511C71.9786 30.4796 71.9234 30.4948 71.8672 30.4953H71.8705ZM58.6885 29.8353H71.3082C69.8204 27.3419 68.0573 25.029 66.053 22.9416C65.9196 22.7996 65.7592 22.6866 65.5816 22.6095C65.4039 22.5323 65.2127 22.4926 65.0195 22.4928C64.8256 22.4883 64.6329 22.525 64.4538 22.6006C64.2747 22.6761 64.1131 22.7889 63.9795 22.9317C61.9521 25.0114 60.1759 27.3289 58.6885 29.8353Z" fill="#093F68"/>
<path d="M65 44.177C67.9742 44.177 70.3853 41.7289 70.3853 38.7089C70.3853 35.689 67.9742 33.2408 65 33.2408C62.0258 33.2408 59.6147 35.689 59.6147 38.7089C59.6147 41.7289 62.0258 44.177 65 44.177Z" fill="#F56132"/>
<path d="M65 44.5071C63.8697 44.5078 62.7646 44.168 61.8245 43.5308C60.8845 42.8935 60.1516 41.9875 59.7188 40.9273C59.286 39.8671 59.1725 38.7004 59.3929 37.5747C59.6132 36.449 60.1575 35.415 60.9567 34.6035C61.756 33.7919 62.7743 33.2394 63.8829 33.0156C64.9915 32.7919 66.1406 32.907 67.1847 33.3465C68.2289 33.786 69.1212 34.5301 69.7487 35.4847C70.3763 36.4392 70.7109 37.5613 70.7103 38.709C70.7085 40.2462 70.1064 41.72 69.0359 42.8069C67.9654 43.8939 66.5139 44.5054 65 44.5071ZM65 33.5676C63.9984 33.5669 63.0191 33.8679 62.186 34.4325C61.3529 34.997 60.7034 35.7998 60.3196 36.7392C59.9359 37.6786 59.8352 38.7125 60.0302 39.71C60.2252 40.7076 60.7072 41.624 61.4152 42.3434C62.1232 43.0627 63.0254 43.5527 64.0077 43.7514C64.99 43.95 66.0083 43.8484 66.9337 43.4593C67.8592 43.0703 68.6502 42.4113 69.2067 41.5658C69.7632 40.7202 70.0603 39.726 70.0603 38.709C70.0594 37.3463 69.5261 36.0395 68.5774 35.0756C67.6287 34.1117 66.3421 33.5693 65 33.5676Z" fill="#093F68"/>
<path d="M65 42.6426C67.1396 42.6426 68.874 40.8815 68.874 38.709C68.874 36.5365 67.1396 34.7754 65 34.7754C62.8605 34.7754 61.126 36.5365 61.126 38.709C61.126 40.8815 62.8605 42.6426 65 42.6426Z" fill="white"/>
<path d="M65 42.9726C64.1686 42.9733 63.3557 42.7235 62.6641 42.2549C61.9726 41.7863 61.4335 41.1199 61.115 40.3401C60.7965 39.5603 60.713 38.7021 60.8751 37.8741C61.0371 37.0461 61.4374 36.2855 62.0253 35.6886C62.6132 35.0917 63.3623 34.6852 64.1777 34.5207C64.9932 34.3561 65.8384 34.4409 66.6064 34.7643C67.3744 35.0876 68.0306 35.635 68.4921 36.3372C68.9536 37.0394 69.1996 37.8649 69.199 38.709C69.1981 39.8396 68.7555 40.9235 67.9682 41.7229C67.1809 42.5223 66.1134 42.9718 65 42.9726ZM65 35.1021C64.2973 35.1015 63.6102 35.3125 63.0256 35.7084C62.441 36.1043 61.9852 36.6674 61.7158 37.3265C61.4465 37.9855 61.3757 38.7108 61.5124 39.4107C61.6491 40.1106 61.9871 40.7536 62.4838 41.2583C62.9804 41.7631 63.6134 42.107 64.3025 42.2464C64.9917 42.3858 65.7061 42.3146 66.3554 42.0417C67.0047 41.7688 67.5596 41.3065 67.9501 40.7133C68.3406 40.12 68.549 39.4226 68.549 38.709C68.5481 37.7533 68.1741 36.8368 67.5088 36.1607C66.8435 35.4846 65.9413 35.1039 65 35.1021Z" fill="#093F68"/>
<path d="M72.7058 68.9699C72.6407 68.97 72.5771 68.9502 72.5232 68.9131C72.4693 68.8761 72.4276 68.8234 72.4035 68.762C71.8023 67.2176 71.0158 66.2903 70.0603 65.9999C69.6789 65.9073 69.2829 65.895 68.8967 65.9637C68.5105 66.0323 68.1422 66.1806 67.8145 66.3992C67.7443 66.45 67.657 66.4703 67.572 66.4558C67.487 66.4412 67.4111 66.393 67.3611 66.3217C67.3111 66.2503 67.2911 66.1618 67.3054 66.0754C67.3197 65.9891 67.3673 65.9121 67.4375 65.8613C67.8442 65.584 68.3038 65.3966 68.7864 65.3113C69.2691 65.226 69.764 65.2448 70.239 65.3663C71.3993 65.6963 72.3288 66.7754 73.008 68.5178C73.0238 68.5583 73.0314 68.6016 73.0306 68.6451C73.0298 68.6886 73.0206 68.7316 73.0033 68.7715C72.9861 68.8113 72.9613 68.8474 72.9303 68.8775C72.8993 68.9076 72.8628 68.9311 72.8228 68.9468C72.7857 68.9624 72.7459 68.9703 72.7058 68.9699Z" fill="#093F68"/>
<path d="M52.5037 69.4354C52.4758 69.4404 52.4472 69.4404 52.4192 69.4354C52.3361 69.4129 52.2652 69.358 52.222 69.2825C52.1787 69.207 52.1667 69.1173 52.1885 69.0328C52.5135 67.8481 53.0757 67.1056 53.8915 66.8185C55.3995 66.2905 57.1415 67.5907 57.2065 67.6468C57.2754 67.6993 57.321 67.7775 57.3332 67.8641C57.3454 67.9508 57.3232 68.0388 57.2715 68.1088C57.2198 68.1788 57.1428 68.2251 57.0574 68.2375C56.9721 68.2499 56.8854 68.2273 56.8165 68.1748C56.8165 68.1748 55.2825 67.0264 54.1027 67.4422C53.5047 67.6534 53.0725 68.2441 52.8027 69.2044C52.7826 69.2696 52.743 69.3268 52.6894 69.3682C52.6359 69.4096 52.571 69.4331 52.5037 69.4354Z" fill="#093F68"/>
<path d="M60.9927 66.2277H60.944C60.8593 66.2146 60.783 66.1681 60.7319 66.0983C60.6808 66.0284 60.6589 65.9409 60.671 65.8548L61.4022 60.7893C61.4147 60.7017 61.461 60.6228 61.5308 60.5699C61.6005 60.517 61.6882 60.4944 61.7744 60.5071C61.8606 60.5198 61.9383 60.5667 61.9904 60.6376C62.0425 60.7085 62.0647 60.7974 62.0522 60.885L61.321 65.9505C61.3085 66.0291 61.2683 66.1005 61.208 66.1515C61.1476 66.2024 61.0712 66.2295 60.9927 66.2277Z" fill="#DFEAEF"/>
<path d="M68.5002 64.2014C68.4204 64.202 68.3431 64.1727 68.2832 64.1192C68.2232 64.0656 68.1848 63.9915 68.1752 63.911L67.8047 60.875C67.794 60.7875 67.8179 60.6992 67.8712 60.6296C67.9245 60.56 68.0029 60.5147 68.0891 60.5038C68.1753 60.4929 68.2623 60.5171 68.3308 60.5713C68.3994 60.6254 68.444 60.705 68.4547 60.7925L68.8285 63.8285C68.834 63.8717 68.831 63.9155 68.8197 63.9574C68.8084 63.9994 68.7891 64.0387 68.7628 64.073C68.7365 64.1074 68.7038 64.1361 68.6666 64.1576C68.6293 64.1791 68.5883 64.1928 68.5457 64.1981L68.5002 64.2014Z" fill="#DFEAEF"/>
<path d="M63.1897 70.3627C63.1036 70.3627 63.0209 70.3279 62.9599 70.266C62.899 70.2041 62.8647 70.1202 62.8647 70.0327C62.8647 69.7522 63.4562 63.535 63.5732 62.2909C63.5773 62.2475 63.5897 62.2054 63.6098 62.167C63.6299 62.1285 63.6572 62.0944 63.6903 62.0667C63.7233 62.039 63.7614 62.0181 63.8024 62.0053C63.8434 61.9926 63.8864 61.9881 63.9291 61.9922C63.9718 61.9963 64.0133 62.0089 64.0511 62.0293C64.089 62.0497 64.1226 62.0775 64.1499 62.111C64.1772 62.1446 64.1977 62.1833 64.2103 62.2249C64.2229 62.2665 64.2273 62.3102 64.2232 62.3536C63.9437 65.3236 63.5212 69.7885 63.518 70.036C63.5176 70.0793 63.5087 70.1221 63.492 70.162C63.4753 70.2019 63.451 70.238 63.4205 70.2683C63.39 70.2987 63.354 70.3226 63.3144 70.3388C63.2748 70.355 63.2324 70.3631 63.1897 70.3627Z" fill="#DFEAEF"/>
</svg>
