<svg width="92" height="106" viewBox="0 0 92 106" fill="none" xmlns="http://www.w3.org/2000/svg">
<circle cx="46" cy="55" r="46" fill="#FFED4C"/>
<path d="M49.0281 30.2317C49.0281 30.2317 50.0256 34.0792 45.7506 35.0767C42.01 35.9584 41.2262 32.1822 41.2262 32.1822C41.2262 32.1822 40.398 28.3703 38.688 27.9963C38.0378 27.8538 37.8953 28.0141 36.0339 27.738C32.8544 27.257 32.0172 25.7163 31.75 24.318C31.6609 23.8905 31.6253 23.4719 31.5986 23.1067C31.5541 22.5991 31.5095 22.1894 31.3314 21.9578C31.1889 21.7708 29.2117 21.0138 29.4789 20.0608C29.8351 18.7961 32.1686 17.7897 32.0706 16.6141C32.0795 16.3113 31.8836 15.3227 31.8569 15.1891C31.6698 14.0669 31.7322 12.4994 32.0884 10.9497C33.0681 6.67469 35.8558 3.44172 40.6384 2.98751C44.9223 2.59563 49.8208 5.78407 51.8247 9.58704C53.1072 12.0274 51.2458 18.3241 49.0548 21.655C46.2048 26.0013 49.0281 30.2317 49.0281 30.2317Z" fill="#FFCA28"/>
<path d="M33.9588 23.846C33.2819 24.2824 32.516 24.4071 31.75 24.318C31.661 23.8905 31.6254 23.4719 31.5986 23.1068C32.2043 23.2315 32.9702 23.1958 33.4244 23.0444C34.2616 22.7594 34.7069 23.3829 33.9588 23.846Z" fill="#795548"/>
<path d="M36.4803 17.5434C36.5135 16.6783 36.0862 15.9596 35.5259 15.938C34.9655 15.9165 34.4843 16.6004 34.4511 17.4655C34.4178 18.3306 34.8451 19.0493 35.4055 19.0708C35.9658 19.0924 36.447 18.4085 36.4803 17.5434Z" fill="#404040"/>
<path d="M34.9029 15.3227C33.9232 15.6433 33.6649 15.0021 33.9855 14.4588C34.2171 14.0669 34.8049 13.7196 35.9716 13.9066C37.0671 14.0847 37.5391 14.6992 37.8419 15.0733C38.1447 15.4474 38.1269 15.8303 37.8776 15.866C37.5302 15.9372 36.1141 14.9308 34.9029 15.3227Z" fill="#6D4C41"/>
<path d="M77.0472 71.6014L60.5083 74.9056L55.9037 58.9901L44.8333 66.409L52.9023 82.6184L52.9379 82.5917C53.5792 83.7406 54.6658 84.6579 56.0462 85.0854C56.447 85.2101 56.8478 85.2814 57.2575 85.3081V85.3259L57.3911 85.317C57.8898 85.3437 58.3797 85.3081 58.8517 85.2101L79.2648 77.4528L77.0472 71.6014Z" fill="#616161"/>
<path d="M80.5918 68.2081C80.3068 67.7271 79.6923 67.5757 79.2114 67.8607L77.1006 69.1254C75.6667 69.9804 74.8918 72.4118 74.8918 72.4118L78.0268 77.6754L82.4176 81.4873C83.5487 82.369 85.1073 82.467 86.3453 81.7456L87.2983 81.1845C87.7168 80.9351 87.8593 80.3918 87.61 79.9732L80.5918 68.2081Z" fill="#325599"/>
<path d="M28.9535 99.3532L39.1155 79.9376C39.1155 79.9376 51.7713 69.4639 52.8757 68.7246C56.9993 65.9637 57.8186 62.1251 57.4089 59.3374C57.0883 57.1732 55.6544 54.2965 55.6544 54.2965L39.0443 59.2484L39.828 62.2943C39.828 62.2943 34.7425 68.8671 33.558 70.2387C32.3735 71.6103 30.3429 73.5251 28.7665 78.9312C27.101 84.6312 22.924 98.3735 22.924 98.3735L28.9535 99.3532Z" fill="#7C7C7C"/>
<path d="M28.9445 105.4C29.4967 105.49 30.0133 105.115 30.1023 104.572L30.4942 102.141C30.7703 100.493 29.4077 98.3378 29.4077 98.3378L23.3603 97.3403L17.6158 98.2399C16.2086 98.5427 15.1309 99.6649 14.8905 101.081L14.7034 102.176C14.6233 102.657 14.9439 103.112 15.4248 103.192L28.9445 105.4Z" fill="#4568AD"/>
<path d="M33.5847 41.6585L25.6047 35.5844L21.7216 39.7347L29.7728 47.5366L29.7817 47.5277C31.3581 49.1754 35.0542 50.2976 38.1269 47.501C41.0481 44.838 44.6552 39.1647 44.6552 39.1647L38.4119 34.1594L33.5847 41.6585Z" fill="url(#paint0_linear_50_44)"/>
<path d="M33.7717 38.0247C36.0606 44.4283 41.6716 44.6243 41.6716 44.6243L46.1425 36.9649C47.3449 34.9076 46.6502 32.2535 44.5928 31.0512L43.8536 30.6147C41.7963 29.4124 40.0506 30.0002 37.2808 34.0437C34.7959 37.6863 33.7717 38.0247 33.7717 38.0247Z" fill="#ED6D23"/>
<path d="M39.0442 59.2394C36.8355 50.4756 36.4258 44.3214 36.9245 39.3874C37.5658 33.1708 40.5315 29.4569 43.8625 28.2813C47.9772 26.8296 50.8272 28.9225 51.9761 32.6453C52.7598 35.1836 52.6084 37.1341 52.5461 38.3453C52.5461 38.3453 51.9761 44.9983 57.2664 53.3256C57.2664 53.3256 56.7587 56.9416 48.3156 58.9277C44.5572 59.8094 39.0442 59.2394 39.0442 59.2394Z" fill="url(#paint1_linear_50_44)"/>
<path d="M52.644 51.0902C52.644 51.0902 48.7787 49.1664 48.7342 49.1486C48.2444 48.8903 47.6387 49.0685 47.3805 49.5583L46.5522 51.108C46.4186 51.3663 46.4097 51.6513 46.4987 51.9096C46.0534 52.1678 44.958 52.8447 44.7264 53.2989C44.4592 53.8155 44.762 54.3588 45.047 54.4835C45.3765 54.626 45.528 55.0891 45.43 55.4364C45.3231 55.7927 45.332 56.1578 45.5012 56.4517C45.6705 56.7456 45.8842 56.8614 46.2939 56.9416C46.4898 56.9772 46.6947 57.2266 46.6947 57.4225C46.6858 57.7253 46.6858 58.2508 46.8372 58.4467C47.14 58.8475 47.6387 58.7228 47.897 59.0167C47.995 59.1325 48.0039 59.6402 48.2087 59.8272C48.8144 60.3972 50.7826 59.3463 50.7826 59.3463L54.5411 55.8639L52.644 51.0902Z" fill="#EDA600"/>
<path d="M51.3972 50.4846L53.7752 51.1526L55.405 55.6502C55.405 55.6502 50.3196 60.6556 49.4556 59.2573C49.1796 58.8209 49.6872 58.3488 48.948 58.0727C48.4225 57.8768 48.0306 57.6274 48.1821 56.817C48.2444 56.5142 48.0039 56.1401 47.7902 56.1134C46.8283 55.9976 46.5789 55.4632 46.8639 54.7863C47.0242 54.4123 46.9886 53.7799 46.4453 53.4949C46.2494 53.3881 45.9733 52.9516 46.098 52.3282C46.3028 51.3574 51.3972 50.4846 51.3972 50.4846Z" fill="url(#paint2_linear_50_44)"/>
<path d="M54.6657 56.2113L63.474 50.2709V50.262C64.5339 49.211 64.9079 48.4807 65.1217 47.599C65.7986 44.8381 63.9995 42.9143 63.9995 42.9143L55.8503 33.8032L50.8271 38.9956L57.9878 46.1562L52.6351 51.0992L54.6657 56.2113Z" fill="url(#paint3_linear_50_44)"/>
<path d="M54.844 44.3215C54.844 44.3215 60.2411 38.9866 60.0986 34.8808C60.0986 34.8808 57.5247 34.8719 53.6951 31.9774C51.2815 30.1605 48.0752 30.0091 46.7838 32.1288C45.6349 33.9991 45.8219 36.3058 48.0307 38.951C49.6872 40.9193 54.844 44.3215 54.844 44.3215Z" fill="#ED6D23"/>
<path d="M21.3208 36.6443L21.2941 36.6621C20.9111 37.143 20.2521 37.2766 19.8246 36.9471L18.0879 35.6379C17.6604 35.3173 17.6247 34.6582 18.0077 34.1773C18.3907 33.6963 19.0497 33.5627 19.4772 33.8923L21.214 35.2015C21.6504 35.531 21.7127 36.1634 21.3208 36.6443Z" fill="url(#paint4_linear_50_44)"/>
<path d="M22.7814 31.167C22.8081 31.1848 22.817 31.2026 22.817 31.2026C23.6097 32.0487 24.3133 32.7523 24.6161 32.9393C25.4177 33.447 26.1658 34.0882 26.6289 34.9878C27.4928 36.671 26.3884 38.3276 25.097 39.5478C23.8145 40.7768 23.0041 41.044 21.6058 40.8125C20.4658 40.6254 18.0522 38.0693 18.0522 38.0693C17.8028 37.7754 17.5178 37.4726 17.2328 37.1876C17.1259 37.0807 17.0102 36.9739 16.9033 36.8581L16.8944 36.8492C16.5648 36.5285 16.5203 36.101 16.8855 35.6557C17.3664 35.0679 17.8384 35.3707 17.8919 35.4153L17.9008 35.4242C18.1234 35.629 18.3639 35.9051 18.542 36.0387C19.0586 36.4217 19.3436 36.4929 19.3436 36.4929L21.7839 33.3935L20.9556 32.2892C20.9556 32.2892 20.9467 32.2714 20.92 32.2446C20.8309 32.1021 20.4836 31.5945 21.1427 30.9978C21.873 30.3743 22.63 31.0245 22.7814 31.167Z" fill="url(#paint5_linear_50_44)"/>
<path d="M22.7013 35.3706C22.2738 35.8249 21.6058 35.8961 21.205 35.5399L19.3614 33.8922C18.9606 33.536 18.9784 32.8769 19.4059 32.4227C19.8334 31.9685 20.5014 31.8972 20.9022 32.2535L22.7458 33.9011C23.1377 34.2663 23.1198 34.9164 22.7013 35.3706Z" fill="url(#paint6_linear_50_44)"/>
<path d="M20.3055 35.6379C20.7062 35.059 21.1961 34.3465 21.7394 33.732C21.8195 33.6429 21.8908 33.5627 21.9709 33.4826C22.719 32.7078 23.6987 32.5742 24.9278 33.2421C24.9723 33.2688 25.0079 33.2867 25.0525 33.3134C25.1237 33.3579 25.195 33.4024 25.2751 33.447L25.284 33.4559C25.3909 33.5271 25.4978 33.5984 25.6047 33.6785C25.9698 33.9457 26.2459 34.2752 26.4151 34.5959C27.092 35.6735 26.8961 36.6978 26.8961 36.6978C26.8961 36.6978 26.1123 39.0846 24.9545 38.666C23.7967 38.2474 23.2 36.5998 23.2 36.5998L23.5028 35.4063C23.1555 35.3707 22.8526 35.5221 22.4429 35.9853C22.3094 36.1367 22.1579 36.3237 21.9798 36.5463C21.962 36.5731 21.7394 36.8492 21.7215 36.867C21.4544 37.1609 21.1515 37.3034 20.7864 37.2767C20.3144 37.2499 19.9136 36.7957 19.6909 36.6176C19.8601 36.4038 20.0828 35.9496 20.3055 35.6379Z" fill="url(#paint7_linear_50_44)"/>
<path d="M19.78 38.3899L21.2228 37.2053L21.9888 36.3325L22.9863 35.4597L23.3336 35.6111L23.1199 36.7511L23.868 37.8733L24.34 38.2741L21.8908 40.0108L19.78 38.3899Z" fill="url(#paint8_radial_50_44)"/>
<path d="M19.878 37.7398C19.8513 38.292 19.3169 38.5948 19.3526 38.6037C19.504 38.666 20.2521 38.479 21.0804 37.5527C21.7216 36.8313 22.3361 35.8962 23.0843 35.6735C22.826 36.9382 23.3871 37.909 24.4202 38.292C23.6276 37.5527 22.9863 36.3059 23.7077 35.3084C23.1199 34.9521 22.4341 35.5399 22.0868 35.9674C21.686 36.4484 21.3297 37.1965 20.5905 37.0985C20.0829 37.0362 19.8958 36.7155 20.074 36.2346C20.5193 35.059 21.5613 33.8566 22.63 33.1887C23.0219 32.9482 23.8235 32.8859 24.8566 33.0907C24.0996 32.5029 22.8082 32.6899 22.3183 32.9215C21.8997 33.1174 22.0066 33.0373 21.6325 32.7968C21.4455 32.6721 21.2585 32.5474 21.0804 32.4316C21.2318 32.681 21.499 32.9838 21.5435 33.2777C21.5969 33.6429 21.2496 33.9546 21.0358 34.2129C20.4836 34.872 20.0027 34.302 19.4327 33.9457C19.8157 34.3999 19.9047 34.5424 20.1007 34.863C20.359 35.2995 19.9671 35.6557 19.6821 35.9941C19.1032 36.6888 17.9097 35.2727 17.8296 35.3618C17.7405 35.4687 19.9047 37.1341 19.878 37.7398Z" fill="#EDA600"/>
<path d="M54.5411 9.41787C53.4189 6.44319 51.041 5.50803 50.2661 5.27647C49.9188 4.19881 48.1464 0.110842 41.4222 1.09053C39.7835 1.331 38.5811 2.08803 37.5124 2.756C37.0582 3.041 36.6218 3.31709 36.221 3.49522C35.8914 3.64662 35.3125 3.78022 34.8405 3.611C33.7629 3.23694 34.1458 1.60709 34.1458 1.60709C34.1458 1.60709 30.1736 2.31959 31.8124 6.176C30.4764 6.73709 29.8352 8.13537 29.5769 9.4535C29.2207 11.2526 30.0757 12.9982 31.7946 13.7997C31.7946 13.7997 31.5007 10.8874 35.6955 11.1368C36.9958 11.2169 38.3496 11.4396 39.5697 10.9765C40.0329 10.7983 40.4693 10.5133 40.9235 10.2996H41.0838C42.6602 11.1813 40.496 14.8863 42.2238 17.1129C42.5622 17.5493 42.865 17.3979 42.865 17.3979L43.5954 16.3737C44.1475 15.6701 44.6463 15.0555 45.3143 15.2158C47.2825 15.6879 46.8639 19.2058 44.5038 19.9451C44.2722 20.0163 44.7443 23.9618 49.6071 24.0508C52.1186 24.0954 53.0449 22.0291 53.0449 22.0291C53.0449 22.0291 51.9672 22.2785 51.7535 21.3612C51.6377 20.8891 52.083 20.2568 52.8846 19.571C55.1824 17.5938 54.4075 15.2693 54.0869 14.539C54.4254 13.8799 55.4139 11.7424 54.5411 9.41787Z" fill="#543930"/>
<path d="M54.069 14.5478C54.1136 14.4677 53.3387 16.3202 50.1325 15.955C48.8143 15.9283 46.9173 19.0811 48.8054 21.2186C50.4798 23.1067 53.027 22.038 53.027 22.038C53.027 22.038 52.6797 22.1359 52.172 21.9489C51.8425 21.8242 51.7356 21.3967 51.7356 21.3789C51.6198 20.9069 52.0651 20.2745 52.8667 19.5888C55.1645 17.5938 54.3896 15.2692 54.069 14.5478Z" fill="url(#paint9_radial_50_44)"/>
<path d="M54.5411 9.4179C53.9533 7.8504 52.84 6.52337 51.3616 5.73962C51.1478 5.62384 50.6224 5.35665 50.2572 5.2854C50.4175 5.98009 50.3908 6.71931 50.0791 7.46743C50.0702 7.49415 49.7139 8.61634 48.7253 9.50696C49.4111 10.4956 49.7496 11.689 50.0613 12.8646C50.3374 13.8888 50.5957 15.011 50.1325 15.964C50.7471 15.9373 51.7268 16.1243 52.8133 15.6612C53.8553 15.2159 54.4164 14.0313 54.6925 12.9715C54.9864 11.7959 54.9686 10.5579 54.5411 9.4179Z" fill="url(#paint10_radial_50_44)"/>
<path d="M50.0702 7.46737C50.8807 5.49018 49.8208 3.63768 48.191 2.3819C46.2761 0.912369 43.7289 0.752057 41.4222 1.09049C39.7835 1.33096 38.5811 2.08799 37.5124 2.75596C37.0582 3.04096 36.6218 3.31706 36.221 3.49518C35.8914 3.64659 35.3125 3.78018 34.8405 3.61096C33.7629 3.2369 34.1458 1.60706 34.1458 1.60706C34.1458 1.60706 30.1736 2.31956 31.8124 6.17596C30.4764 6.73706 29.8352 8.13534 29.5769 9.45346C29.2207 11.2525 30.0757 12.9982 31.7946 13.7997C31.7946 13.7997 31.5007 10.8874 35.6955 11.1367C36.9958 11.2169 38.3496 11.4396 39.5697 10.9764C40.6474 10.5667 41.0214 9.99674 42.2149 10.0858C43.5063 10.1838 45.2163 10.7003 46.5433 10.5222C49.233 10.1571 50.0613 7.50299 50.0702 7.46737Z" fill="url(#paint11_radial_50_44)"/>
<path d="M48.8055 21.2187C47.9594 20.2835 47.7546 18.7694 46.4186 17.9323C46.1515 18.8051 45.5013 19.6333 44.4949 19.9451C44.2633 20.0163 44.7354 23.9618 49.5982 24.0508C52.1097 24.0954 53.036 22.0291 53.036 22.0291C53.036 22.0291 50.5155 23.0979 48.8055 21.2187Z" fill="url(#paint12_radial_50_44)"/>
<defs>
<linearGradient id="paint0_linear_50_44" x1="21.9021" y1="40.8962" x2="36.8149" y2="41.7247" gradientUnits="userSpaceOnUse">
<stop offset="0.5979" stop-color="#FFCA28"/>
<stop offset="1" stop-color="#FFB300"/>
</linearGradient>
<linearGradient id="paint1_linear_50_44" x1="36.0056" y1="41.536" x2="58.7935" y2="47.9616" gradientUnits="userSpaceOnUse">
<stop stop-color="#F78C1F"/>
<stop offset="0.482" stop-color="#F47F12"/>
<stop offset="1" stop-color="#EF6C00"/>
</linearGradient>
<linearGradient id="paint2_linear_50_44" x1="54.4139" y1="52.7679" x2="48.6145" y2="55.5847" gradientUnits="userSpaceOnUse">
<stop offset="0.5979" stop-color="#FFCA28"/>
<stop offset="1" stop-color="#FFB300"/>
</linearGradient>
<linearGradient id="paint3_linear_50_44" x1="61.4143" y1="51.7181" x2="54.1236" y2="43.7647" gradientUnits="userSpaceOnUse">
<stop offset="0.5979" stop-color="#FFCA28"/>
<stop offset="1" stop-color="#FFB300"/>
</linearGradient>
<linearGradient id="paint4_linear_50_44" x1="20.5338" y1="34.5359" x2="18.7475" y2="36.3394" gradientUnits="userSpaceOnUse">
<stop offset="0.5" stop-color="#FFCA28"/>
<stop offset="1" stop-color="#FFB300"/>
</linearGradient>
<linearGradient id="paint5_linear_50_44" x1="19.4203" y1="39.4203" x2="24.9895" y2="33.1643" gradientUnits="userSpaceOnUse">
<stop stop-color="#FFB300"/>
<stop offset="0.1375" stop-color="#FFCA28"/>
<stop offset="0.831" stop-color="#FFCA28"/>
</linearGradient>
<linearGradient id="paint6_linear_50_44" x1="21.9103" y1="33.0644" x2="20.1685" y2="34.7456" gradientUnits="userSpaceOnUse">
<stop offset="0.5" stop-color="#FFCA28"/>
<stop offset="1" stop-color="#FFB300"/>
</linearGradient>
<linearGradient id="paint7_linear_50_44" x1="21.924" y1="34.6141" x2="26.3397" y2="37.9807" gradientUnits="userSpaceOnUse">
<stop offset="0.5" stop-color="#FFCA28"/>
<stop offset="1" stop-color="#FFB300"/>
</linearGradient>
<radialGradient id="paint8_radial_50_44" cx="0" cy="0" r="1" gradientUnits="userSpaceOnUse" gradientTransform="translate(22.2516 36.7777) scale(2.7669 2.7669)">
<stop stop-color="#FFB300"/>
<stop offset="1" stop-color="#FFCA28"/>
</radialGradient>
<radialGradient id="paint9_radial_50_44" cx="0" cy="0" r="1" gradientUnits="userSpaceOnUse" gradientTransform="translate(47.9862 19.0661) rotate(21.3098) scale(6.34924 9.14408)">
<stop offset="0.45" stop-color="#6D4C41" stop-opacity="0"/>
<stop offset="1" stop-color="#6D4C41"/>
</radialGradient>
<radialGradient id="paint10_radial_50_44" cx="0" cy="0" r="1" gradientUnits="userSpaceOnUse" gradientTransform="translate(48.83 12.7071) rotate(-6.6787) scale(6.43592 8.12132)">
<stop offset="0.45" stop-color="#6D4C41" stop-opacity="0"/>
<stop offset="1" stop-color="#6D4C41"/>
</radialGradient>
<radialGradient id="paint11_radial_50_44" cx="0" cy="0" r="1" gradientUnits="userSpaceOnUse" gradientTransform="translate(41.6556 10.2664) rotate(-7.776) scale(13.2465 9.95626)">
<stop offset="0.45" stop-color="#6D4C41" stop-opacity="0"/>
<stop offset="1" stop-color="#6D4C41"/>
</radialGradient>
<radialGradient id="paint12_radial_50_44" cx="0" cy="0" r="1" gradientUnits="userSpaceOnUse" gradientTransform="translate(49.4753 19.9089) rotate(15.3024) scale(7.1308 4.58462)">
<stop offset="0.45" stop-color="#6D4C41" stop-opacity="0"/>
<stop offset="1" stop-color="#6D4C41"/>
</radialGradient>
</defs>
</svg>
