<svg width="114" height="114" viewBox="0 0 114 114" fill="none" xmlns="http://www.w3.org/2000/svg">
<path d="M60.0281 32.2317C60.0281 32.2317 61.0256 36.0792 56.7506 37.0767C53.01 37.9584 52.2262 34.1822 52.2262 34.1822C52.2262 34.1822 51.398 30.3703 49.688 29.9963C49.0378 29.8538 48.8953 30.0141 47.0339 29.738C43.8544 29.257 43.0172 27.7163 42.75 26.318C42.6609 25.8905 42.6253 25.4719 42.5986 25.1067C42.5541 24.5991 42.5095 24.1894 42.3314 23.9578C42.1889 23.7708 40.2117 23.0138 40.4789 22.0608C40.8351 20.7961 43.1686 19.7897 43.0706 18.6141C43.0795 18.3113 42.8836 17.3227 42.8569 17.1891C42.6698 16.0669 42.7322 14.4994 43.0884 12.9497C44.0681 8.67469 46.8558 5.44172 51.6384 4.98751C55.9223 4.59563 60.8208 7.78407 62.8247 11.587C64.1072 14.0274 62.2458 20.3241 60.0548 23.655C57.2048 28.0013 60.0281 32.2317 60.0281 32.2317Z" fill="#FFCA28"/>
<path d="M44.9588 25.8459C44.2819 26.2823 43.5159 26.407 42.75 26.318C42.6609 25.8905 42.6253 25.4719 42.5986 25.1067C43.2042 25.2314 43.9702 25.1958 44.4244 25.0444C45.2616 24.7594 45.7069 25.3828 44.9588 25.8459Z" fill="#795548"/>
<path d="M47.4802 19.5434C47.5134 18.6783 47.0861 17.9595 46.5258 17.938C45.9654 17.9164 45.4842 18.6003 45.451 19.4654C45.4178 20.3305 45.8451 21.0493 46.4054 21.0708C46.9658 21.0923 47.447 20.4085 47.4802 19.5434Z" fill="#404040"/>
<path d="M45.9028 17.3227C44.9231 17.6433 44.6648 17.0021 44.9855 16.4588C45.217 16.0669 45.8048 15.7196 46.9716 15.9066C48.067 16.0847 48.5391 16.6992 48.8419 17.0733C49.1447 17.4474 49.1269 17.8303 48.8775 17.866C48.5302 17.9372 47.1141 16.9308 45.9028 17.3227Z" fill="#6D4C41"/>
<path d="M88.0472 73.6012L71.5083 76.9055L66.9038 60.99L55.8333 68.4089L63.9023 84.6183L63.938 84.5916C64.5792 85.7405 65.6658 86.6578 67.0463 87.0853C67.447 87.21 67.8478 87.2812 68.2575 87.308V87.3258L68.3911 87.3169C68.8898 87.3436 69.3797 87.308 69.8517 87.21L90.2648 79.4526L88.0472 73.6012Z" fill="#616161"/>
<path d="M91.5919 70.2079C91.3069 69.727 90.6923 69.5756 90.2114 69.8606L88.1006 71.1253C86.6667 71.9803 85.8919 74.4117 85.8919 74.4117L89.0269 79.6753L93.4177 83.4872C94.5487 84.3689 96.1073 84.4668 97.3453 83.7454L98.2983 83.1843C98.7169 82.935 98.8594 82.3917 98.61 81.9731L91.5919 70.2079Z" fill="#325599"/>
<path d="M39.9535 101.353L50.1155 81.9375C50.1155 81.9375 62.7713 71.4637 63.8756 70.7245C67.9992 67.9636 68.8186 64.125 68.4089 61.3373C68.0883 59.1731 66.6544 56.2964 66.6544 56.2964L50.0442 61.2483L50.828 64.2942C50.828 64.2942 45.7425 70.867 44.558 72.2386C43.3734 73.6101 41.3428 75.525 39.7664 80.9311C38.101 86.6311 33.9239 100.373 33.9239 100.373L39.9535 101.353Z" fill="#7C7C7C"/>
<path d="M39.9445 107.4C40.4967 107.49 41.0133 107.115 41.1023 106.572L41.4942 104.141C41.7703 102.493 40.4077 100.338 40.4077 100.338L34.3603 99.3403L28.6158 100.24C27.2086 100.543 26.1309 101.665 25.8905 103.081L25.7034 104.176C25.6233 104.657 25.9439 105.112 26.4248 105.192L39.9445 107.4Z" fill="#4568AD"/>
<path d="M44.5847 43.6584L36.6047 37.5844L32.7216 41.7347L40.7728 49.5366L40.7817 49.5276C42.3581 51.1753 46.0542 52.2975 49.1269 49.5009C52.0481 46.838 55.6552 41.1647 55.6552 41.1647L49.4119 36.1594L44.5847 43.6584Z" fill="url(#paint0_linear_6_409)"/>
<path d="M44.7717 40.0247C47.0606 46.4283 52.6716 46.6242 52.6716 46.6242L57.1425 38.9648C58.3449 36.9075 57.6502 34.2534 55.5928 33.0511L54.8536 32.6147C52.7963 31.4123 51.0506 32.0002 48.2808 36.0436C45.7959 39.6862 44.7717 40.0247 44.7717 40.0247Z" fill="#ED6D23"/>
<path d="M50.0442 61.2394C47.8355 52.4756 47.4258 46.3214 47.9245 41.3874C48.5658 35.1708 51.5315 31.4569 54.8625 30.2813C58.9772 28.8296 61.8272 30.9225 62.9761 34.6453C63.7598 37.1836 63.6084 39.1341 63.5461 40.3453C63.5461 40.3453 62.9761 46.9983 68.2664 55.3256C68.2664 55.3256 67.7587 58.9416 59.3156 60.9277C55.5572 61.8094 50.0442 61.2394 50.0442 61.2394Z" fill="url(#paint1_linear_6_409)"/>
<path d="M63.6441 53.0902C63.6441 53.0902 59.7788 51.1664 59.7342 51.1486C59.2444 50.8903 58.6388 51.0685 58.3805 51.5583L57.5522 53.108C57.4186 53.3663 57.4097 53.6513 57.4988 53.9096C57.0534 54.1678 55.958 54.8447 55.7264 55.2989C55.4592 55.8155 55.762 56.3588 56.047 56.4835C56.3766 56.626 56.528 57.0891 56.43 57.4364C56.3231 57.7927 56.332 58.1578 56.5013 58.4517C56.6705 58.7456 56.8842 58.8614 57.2939 58.9416C57.4899 58.9772 57.6947 59.2266 57.6947 59.4225C57.6858 59.7253 57.6858 60.2508 57.8372 60.4467C58.14 60.8475 58.6388 60.7228 58.897 61.0167C58.995 61.1325 59.0039 61.6402 59.2088 61.8272C59.8144 62.3972 61.7827 61.3463 61.7827 61.3463L65.5411 57.8639L63.6441 53.0902Z" fill="#EDA600"/>
<path d="M62.3972 52.4846L64.7752 53.1525L66.405 57.6502C66.405 57.6502 61.3195 62.6555 60.4556 61.2572C60.1795 60.8208 60.6872 60.3488 59.948 60.0727C59.4225 59.8767 59.0306 59.6274 59.182 58.8169C59.2444 58.5141 59.0039 58.14 58.7901 58.1133C57.8283 57.9975 57.5789 57.4631 57.8639 56.7863C58.0242 56.4122 57.9886 55.7799 57.4453 55.4949C57.2494 55.388 56.9733 54.9516 57.098 54.3282C57.3028 53.3574 62.3972 52.4846 62.3972 52.4846Z" fill="url(#paint2_linear_6_409)"/>
<path d="M65.6658 58.2112L74.4741 52.2708V52.2619C75.5339 51.2109 75.908 50.4806 76.1217 49.5989C76.7986 46.8379 74.9995 44.9142 74.9995 44.9142L66.8503 35.8031L61.8272 40.9954L68.9878 48.1561L63.6351 53.099L65.6658 58.2112Z" fill="url(#paint3_linear_6_409)"/>
<path d="M65.8439 46.3214C65.8439 46.3214 71.2411 40.9866 71.0986 36.8808C71.0986 36.8808 68.5247 36.8719 64.695 33.9774C62.2814 32.1605 59.0751 32.0091 57.7837 34.1288C56.6348 35.9991 56.8219 38.3058 59.0306 40.9509C60.6872 42.9192 65.8439 46.3214 65.8439 46.3214Z" fill="#ED6D23"/>
<path d="M32.3208 38.6442L32.2941 38.6621C31.9111 39.143 31.252 39.2766 30.8245 38.9471L29.0878 37.6378C28.6603 37.3172 28.6247 36.6581 29.0076 36.1772C29.3906 35.6963 30.0497 35.5627 30.4772 35.8922L32.2139 37.2014C32.6503 37.531 32.7126 38.1633 32.3208 38.6442Z" fill="url(#paint4_linear_6_409)"/>
<path d="M33.7814 33.1669C33.8081 33.1847 33.817 33.2025 33.817 33.2025C34.6097 34.0486 35.3133 34.7522 35.6161 34.9392C36.4177 35.4469 37.1658 36.0881 37.6289 36.9876C38.4928 38.6709 37.3884 40.3275 36.097 41.5476C34.8145 42.7767 34.0041 43.0439 32.6058 42.8123C31.4658 42.6253 29.0522 40.0692 29.0522 40.0692C28.8028 39.7753 28.5178 39.4725 28.2328 39.1875C28.1259 39.0806 28.0102 38.9737 27.9033 38.858L27.8944 38.8491C27.5648 38.5284 27.5203 38.1009 27.8855 37.6556C28.3664 37.0678 28.8384 37.3706 28.8919 37.4151L28.9008 37.4241C29.1234 37.6289 29.3639 37.905 29.542 38.0386C30.0586 38.4216 30.3436 38.4928 30.3436 38.4928L32.7839 35.3934L31.9556 34.2891C31.9556 34.2891 31.9467 34.2712 31.92 34.2445C31.8309 34.102 31.4836 33.5944 32.1427 32.9976C32.873 32.3742 33.63 33.0244 33.7814 33.1669Z" fill="url(#paint5_linear_6_409)"/>
<path d="M33.7013 37.3706C33.2738 37.8249 32.6058 37.8961 32.205 37.5399L30.3614 35.8922C29.9606 35.536 29.9784 34.8769 30.4059 34.4227C30.8334 33.9685 31.5014 33.8972 31.9022 34.2535L33.7458 35.9011C34.1377 36.2663 34.1198 36.9164 33.7013 37.3706Z" fill="url(#paint6_linear_6_409)"/>
<path d="M31.3055 37.6378C31.7063 37.0589 32.1961 36.3464 32.7394 35.7318C32.8195 35.6428 32.8908 35.5626 32.9709 35.4825C33.7191 34.7076 34.6988 34.574 35.9278 35.242C35.9724 35.2687 36.008 35.2865 36.0525 35.3133C36.1238 35.3578 36.195 35.4023 36.2752 35.4468L36.2841 35.4558C36.391 35.527 36.4978 35.5983 36.6047 35.6784C36.9699 35.9456 37.2459 36.2751 37.4152 36.5958C38.092 37.6734 37.8961 38.6976 37.8961 38.6976C37.8961 38.6976 37.1124 41.0845 35.9545 40.6659C34.7967 40.2473 34.2 38.5997 34.2 38.5997L34.5028 37.4062C34.1555 37.3706 33.8527 37.522 33.443 37.9851C33.3094 38.1365 33.158 38.3236 32.9799 38.5462C32.962 38.5729 32.7394 38.849 32.7216 38.8668C32.4544 39.1608 32.1516 39.3033 31.7864 39.2765C31.3144 39.2498 30.9136 38.7956 30.6909 38.6175C30.8602 38.4037 31.0828 37.9495 31.3055 37.6378Z" fill="url(#paint7_linear_6_409)"/>
<path d="M30.78 40.3899L32.2228 39.2053L32.9887 38.3325L33.9862 37.4597L34.3336 37.6111L34.1198 38.7511L34.868 39.8733L35.34 40.2741L32.8908 42.0108L30.78 40.3899Z" fill="url(#paint8_radial_6_409)"/>
<path d="M30.878 39.7397C30.8512 40.2919 30.3169 40.5947 30.3525 40.6036C30.5039 40.666 31.252 40.4789 32.0803 39.5527C32.7216 38.8313 33.3361 37.8961 34.0842 37.6735C33.8259 38.9381 34.387 39.9089 35.4201 40.2919C34.6275 39.5527 33.9862 38.3058 34.7076 37.3083C34.1198 36.952 33.4341 37.5399 33.0867 37.9674C32.6859 38.4483 32.3297 39.1964 31.5905 39.0985C31.0828 39.0361 30.8958 38.7155 31.0739 38.2345C31.5192 37.0589 32.5612 35.8566 33.63 35.1886C34.0219 34.9481 34.8234 34.8858 35.8565 35.0906C35.0995 34.5028 33.8081 34.6899 33.3183 34.9214C32.8997 35.1174 33.0066 35.0372 32.6325 34.7967C32.4455 34.672 32.2584 34.5474 32.0803 34.4316C32.2317 34.681 32.4989 34.9838 32.5434 35.2777C32.5969 35.6428 32.2495 35.9545 32.0358 36.2128C31.4836 36.8719 31.0026 36.3019 30.4326 35.9456C30.8156 36.3999 30.9047 36.5424 31.1006 36.863C31.3589 37.2994 30.967 37.6556 30.682 37.9941C30.1031 38.6888 28.9097 37.2727 28.8295 37.3617C28.7405 37.4686 30.9047 39.1341 30.878 39.7397Z" fill="#EDA600"/>
<path d="M65.5411 11.4178C64.4189 8.44312 62.041 7.50797 61.2661 7.27641C60.9188 6.19875 59.1464 2.11078 52.4222 3.09047C50.7834 3.33094 49.5811 4.08797 48.5124 4.75594C48.0581 5.04094 47.6217 5.31703 47.2209 5.49516C46.8914 5.64656 46.3125 5.78016 45.8405 5.61094C44.7628 5.23687 45.1458 3.60703 45.1458 3.60703C45.1458 3.60703 41.1736 4.31953 42.8124 8.17594C41.4764 8.73703 40.8352 10.1353 40.5769 11.4534C40.2206 13.2525 41.0756 14.9981 42.7945 15.7997C42.7945 15.7997 42.5006 12.8873 46.6955 13.1367C47.9958 13.2169 49.3495 13.4395 50.5697 12.9764C51.0328 12.7983 51.4692 12.5133 51.9234 12.2995H52.0838C53.6602 13.1812 51.4959 16.8862 53.2238 19.1128C53.5622 19.5492 53.865 19.3978 53.865 19.3978L54.5953 18.3736C55.1475 17.67 55.6463 17.0555 56.3142 17.2158C58.2825 17.6878 57.8639 21.2058 55.5038 21.945C55.2722 22.0162 55.7442 25.9617 60.607 26.0508C63.1186 26.0953 64.0449 24.0291 64.0449 24.0291C64.0449 24.0291 62.9672 24.2784 62.7534 23.3611C62.6377 22.8891 63.083 22.2567 63.8845 21.5709C66.1824 19.5937 65.4075 17.2692 65.0869 16.5389C65.4253 15.8798 66.4139 13.7423 65.5411 11.4178Z" fill="#543930"/>
<path d="M65.0691 16.5478C65.1136 16.4677 64.3387 18.3202 61.1325 17.955C59.8144 17.9283 57.9173 21.0811 59.8055 23.2186C61.4798 25.1067 64.027 24.038 64.027 24.038C64.027 24.038 63.6797 24.1359 63.172 23.9489C62.8425 23.8242 62.7356 23.3967 62.7356 23.3789C62.6198 22.9069 63.0651 22.2745 63.8667 21.5888C66.1645 19.5938 65.3897 17.2692 65.0691 16.5478Z" fill="url(#paint9_radial_6_409)"/>
<path d="M65.5411 11.4178C64.9533 9.85034 63.84 8.52331 62.3616 7.73956C62.1478 7.62378 61.6223 7.35659 61.2572 7.28534C61.4175 7.98003 61.3908 8.71925 61.0791 9.46737C61.0702 9.49409 60.7139 10.6163 59.7253 11.5069C60.4111 12.4955 60.7495 13.6889 61.0612 14.8646C61.3373 15.8888 61.5956 17.011 61.1325 17.9639C61.747 17.9372 62.7267 18.1242 63.8133 17.6611C64.8553 17.2158 65.4164 16.0313 65.6925 14.9714C65.9864 13.7958 65.9686 12.5578 65.5411 11.4178Z" fill="url(#paint10_radial_6_409)"/>
<path d="M61.0702 9.46737C61.8806 7.49018 60.8208 5.63768 59.1909 4.3819C57.2761 2.91237 54.7289 2.75206 52.4222 3.09049C50.7834 3.33096 49.5811 4.08799 48.5124 4.75596C48.0581 5.04096 47.6217 5.31706 47.2209 5.49518C46.8914 5.64659 46.3125 5.78018 45.8405 5.61096C44.7628 5.2369 45.1458 3.60706 45.1458 3.60706C45.1458 3.60706 41.1736 4.31956 42.8124 8.17596C41.4764 8.73706 40.8352 10.1353 40.5769 11.4535C40.2206 13.2525 41.0756 14.9982 42.7945 15.7997C42.7945 15.7997 42.5006 12.8874 46.6955 13.1367C47.9958 13.2169 49.3495 13.4396 50.5697 12.9764C51.6474 12.5667 52.0214 11.9967 53.2149 12.0858C54.5063 12.1838 56.2163 12.7003 57.5433 12.5222C60.233 12.1571 61.0613 9.50299 61.0702 9.46737Z" fill="url(#paint11_radial_6_409)"/>
<path d="M59.8055 23.2186C58.9594 22.2834 58.7545 20.7694 57.4186 19.9322C57.1514 20.805 56.5012 21.6333 55.4948 21.945C55.2633 22.0163 55.7353 25.9617 60.5981 26.0508C63.1097 26.0953 64.0359 24.0291 64.0359 24.0291C64.0359 24.0291 61.5155 25.0978 59.8055 23.2186Z" fill="url(#paint12_radial_6_409)"/>
<defs>
<linearGradient id="paint0_linear_6_409" x1="32.9021" y1="42.8961" x2="47.8149" y2="43.7247" gradientUnits="userSpaceOnUse">
<stop offset="0.5979" stop-color="#FFCA28"/>
<stop offset="1" stop-color="#FFB300"/>
</linearGradient>
<linearGradient id="paint1_linear_6_409" x1="47.0056" y1="43.536" x2="69.7935" y2="49.9616" gradientUnits="userSpaceOnUse">
<stop stop-color="#F78C1F"/>
<stop offset="0.482" stop-color="#F47F12"/>
<stop offset="1" stop-color="#EF6C00"/>
</linearGradient>
<linearGradient id="paint2_linear_6_409" x1="65.4139" y1="54.7679" x2="59.6145" y2="57.5846" gradientUnits="userSpaceOnUse">
<stop offset="0.5979" stop-color="#FFCA28"/>
<stop offset="1" stop-color="#FFB300"/>
</linearGradient>
<linearGradient id="paint3_linear_6_409" x1="72.4143" y1="53.718" x2="65.1237" y2="45.7646" gradientUnits="userSpaceOnUse">
<stop offset="0.5979" stop-color="#FFCA28"/>
<stop offset="1" stop-color="#FFB300"/>
</linearGradient>
<linearGradient id="paint4_linear_6_409" x1="31.5337" y1="36.5358" x2="29.7475" y2="38.3393" gradientUnits="userSpaceOnUse">
<stop offset="0.5" stop-color="#FFCA28"/>
<stop offset="1" stop-color="#FFB300"/>
</linearGradient>
<linearGradient id="paint5_linear_6_409" x1="30.4203" y1="41.4202" x2="35.9895" y2="35.1642" gradientUnits="userSpaceOnUse">
<stop stop-color="#FFB300"/>
<stop offset="0.1375" stop-color="#FFCA28"/>
<stop offset="0.831" stop-color="#FFCA28"/>
</linearGradient>
<linearGradient id="paint6_linear_6_409" x1="32.9103" y1="35.0644" x2="31.1685" y2="36.7456" gradientUnits="userSpaceOnUse">
<stop offset="0.5" stop-color="#FFCA28"/>
<stop offset="1" stop-color="#FFB300"/>
</linearGradient>
<linearGradient id="paint7_linear_6_409" x1="32.924" y1="36.614" x2="37.3398" y2="39.9806" gradientUnits="userSpaceOnUse">
<stop offset="0.5" stop-color="#FFCA28"/>
<stop offset="1" stop-color="#FFB300"/>
</linearGradient>
<radialGradient id="paint8_radial_6_409" cx="0" cy="0" r="1" gradientUnits="userSpaceOnUse" gradientTransform="translate(33.2516 38.7777) scale(2.7669 2.7669)">
<stop stop-color="#FFB300"/>
<stop offset="1" stop-color="#FFCA28"/>
</radialGradient>
<radialGradient id="paint9_radial_6_409" cx="0" cy="0" r="1" gradientUnits="userSpaceOnUse" gradientTransform="translate(58.9862 21.0661) rotate(21.3098) scale(6.34924 9.14408)">
<stop offset="0.45" stop-color="#6D4C41" stop-opacity="0"/>
<stop offset="1" stop-color="#6D4C41"/>
</radialGradient>
<radialGradient id="paint10_radial_6_409" cx="0" cy="0" r="1" gradientUnits="userSpaceOnUse" gradientTransform="translate(59.83 14.707) rotate(-6.6787) scale(6.43592 8.12132)">
<stop offset="0.45" stop-color="#6D4C41" stop-opacity="0"/>
<stop offset="1" stop-color="#6D4C41"/>
</radialGradient>
<radialGradient id="paint11_radial_6_409" cx="0" cy="0" r="1" gradientUnits="userSpaceOnUse" gradientTransform="translate(52.6556 12.2664) rotate(-7.776) scale(13.2465 9.95626)">
<stop offset="0.45" stop-color="#6D4C41" stop-opacity="0"/>
<stop offset="1" stop-color="#6D4C41"/>
</radialGradient>
<radialGradient id="paint12_radial_6_409" cx="0" cy="0" r="1" gradientUnits="userSpaceOnUse" gradientTransform="translate(60.4753 21.9088) rotate(15.3024) scale(7.1308 4.58462)">
<stop offset="0.45" stop-color="#6D4C41" stop-opacity="0"/>
<stop offset="1" stop-color="#6D4C41"/>
</radialGradient>
</defs>
</svg>
