<svg width="77" height="71" viewBox="0 0 77 71" fill="none" xmlns="http://www.w3.org/2000/svg">
<ellipse cx="38.5" cy="35.5" rx="38.5" ry="35.5" fill="#FFED4C"/>
<path d="M14.0215 9.1875C14.0215 8.08294 14.9169 7.1875 16.0215 7.1875H59.9412C61.0458 7.1875 61.9412 8.08294 61.9412 9.1875V42.8124H14.0215V9.1875Z" fill="url(#paint0_linear_30_45)"/>
<path d="M14.0215 9.1875C14.0215 8.08294 14.9169 7.1875 16.0215 7.1875H59.9412C61.0458 7.1875 61.9412 8.08294 61.9412 9.1875V42.8124H14.0215V9.1875Z" fill="url(#paint1_linear_30_45)"/>
<path d="M15.9902 9.59373C15.9902 9.31759 16.2141 9.09375 16.4902 9.09375H59.4724C59.7486 9.09375 59.9724 9.31759 59.9724 9.59375V40.4062C59.9724 40.6824 59.7486 40.9062 59.4724 40.9062H16.4902C16.2141 40.9062 15.9902 40.6824 15.9902 40.4062V9.59373Z" fill="url(#paint2_linear_30_45)"/>
<path d="M14.0215 42.8124H61.9412L65.681 59.3936C66.0114 60.5 64.9412 61.1016 63.8552 61.1016H12.3474C10.6208 61.1016 10.1264 60.2714 10.3215 59.3968L14.0215 42.8124Z" fill="url(#paint3_linear_30_45)"/>
<path d="M10.2831 59.8124L10.2815 61.5234C10.312 62.2316 10.8935 62.8204 12.3474 62.8204H63.8552C64.798 62.8204 65.729 62.367 65.742 61.5234V59.8124C65.7234 60.651 64.795 61.1016 63.8552 61.1016H12.3474C10.8988 61.1016 10.3175 60.5172 10.2831 59.8124Z" fill="url(#paint4_linear_30_45)"/>
<path d="M10.2831 59.8124L10.2815 61.5234C10.312 62.2316 10.8935 62.8204 12.3474 62.8204H63.8552C64.798 62.8204 65.729 62.367 65.742 61.5234V59.8124C65.7234 60.651 64.795 61.1016 63.8552 61.1016H12.3474C10.8988 61.1016 10.3175 60.5172 10.2831 59.8124Z" fill="url(#paint5_linear_30_45)"/>
<path d="M10.2831 59.8124L10.2815 61.5234C10.312 62.2316 10.8935 62.8204 12.3474 62.8204H63.8552C64.798 62.8204 65.729 62.367 65.742 61.5234V59.8124C65.7234 60.651 64.795 61.1016 63.8552 61.1016H12.3474C10.8988 61.1016 10.3175 60.5172 10.2831 59.8124Z" fill="url(#paint6_linear_30_45)"/>
<path d="M27.9046 55.5888C27.9518 55.3554 28.1568 55.1876 28.3948 55.1876H47.5934C47.8308 55.1876 48.0354 55.3544 48.0832 55.5868L48.706 58.6182C48.7696 58.9282 48.5328 59.2188 48.2162 59.2188H27.7838C27.468 59.2188 27.2314 58.9296 27.2938 58.62L27.9046 55.5888Z" stroke="url(#paint7_linear_30_45)" stroke-width="0.15"/>
<path d="M27.9046 55.5888C27.9518 55.3554 28.1568 55.1876 28.3948 55.1876H47.5934C47.8308 55.1876 48.0354 55.3544 48.0832 55.5868L48.706 58.6182C48.7696 58.9282 48.5328 59.2188 48.2162 59.2188H27.7838C27.468 59.2188 27.2314 58.9296 27.2938 58.62L27.9046 55.5888Z" fill="url(#paint8_linear_30_45)"/>
<path d="M15.7639 45.4948C15.8478 45.132 16.171 44.875 16.5434 44.875H59.532C59.9066 44.875 60.231 45.1348 60.3128 45.5004L61.8648 52.4416C61.9346 52.7542 61.6026 53.0508 60.9776 53.0508H15.0713C14.2511 53.0508 14.0926 52.7196 14.1651 52.4062L15.7639 45.4948Z" stroke="url(#paint9_linear_30_45)" stroke-width="0.15"/>
<path d="M15.7639 45.4948C15.8478 45.132 16.171 44.875 16.5434 44.875H59.532C59.9066 44.875 60.231 45.1348 60.3128 45.5004L61.8648 52.4416C61.9346 52.7542 61.6026 53.0508 60.9776 53.0508H15.0713C14.2511 53.0508 14.0926 52.7196 14.1651 52.4062L15.7639 45.4948Z" fill="url(#paint10_linear_30_45)"/>
<path d="M17.5023 45.8114C17.513 45.7662 17.5532 45.7344 17.5996 45.7344H19.5887C19.6509 45.7344 19.698 45.7906 19.6872 45.8518L19.4648 47.105C19.4564 47.1528 19.4149 47.1876 19.3664 47.1876H17.3032C17.2386 47.1876 17.191 47.1272 17.2059 47.0644L17.5023 45.8114Z" fill="#D7D3E6"/>
<path d="M58.4606 45.8114C58.45 45.7662 58.4096 45.7344 58.3632 45.7344H56.3742C56.312 45.7344 56.2648 45.7906 56.2758 45.8518L56.498 47.105C56.5066 47.1528 56.548 47.1876 56.5966 47.1876H58.6598C58.7242 47.1876 58.7718 47.1272 58.757 47.0644L58.4606 45.8114Z" fill="#D7D3E6"/>
<path d="M17.0501 48.0862C17.0602 48.0404 17.1008 48.0078 17.1478 48.0078H19.1375C19.1991 48.0078 19.246 48.063 19.2362 48.1238L19.0341 49.3768C19.0263 49.4254 18.9844 49.461 18.9354 49.461H16.8715C16.8076 49.461 16.7601 49.4018 16.7739 49.3394L17.0501 48.0862Z" fill="#D7D3E6"/>
<path d="M58.9128 48.0862C58.9026 48.0404 58.862 48.0078 58.815 48.0078H56.8254C56.7638 48.0078 56.7168 48.063 56.7266 48.1238L56.9288 49.3768C56.9366 49.4254 56.9784 49.461 57.0274 49.461H59.0914C59.1552 49.461 59.2028 49.4018 59.189 49.3394L58.9128 48.0862Z" fill="#D7D3E6"/>
<path d="M16.5506 50.3996C16.5604 50.3534 16.6012 50.3204 16.6484 50.3204H18.7085C18.7698 50.3204 18.8167 50.375 18.8073 50.4356L18.604 51.7434C18.5964 51.7922 18.5545 51.8282 18.5052 51.8282H16.3705C16.307 51.8282 16.2595 51.7696 16.2727 51.7074L16.5506 50.3996Z" fill="#D7D3E6"/>
<path d="M59.4122 50.3996C59.4024 50.3534 59.3616 50.3204 59.3144 50.3204H57.2544C57.193 50.3204 57.146 50.375 57.1556 50.4356L57.3588 51.7434C57.3664 51.7922 57.4084 51.8282 57.4576 51.8282H59.5922C59.6558 51.8282 59.7032 51.7696 59.69 51.7074L59.4122 50.3996Z" fill="#D7D3E6"/>
<path d="M21.0347 45.8134C21.0446 45.7672 21.0853 45.7344 21.1325 45.7344H23.1224C23.1838 45.7344 23.2306 45.7892 23.2212 45.8498L23.0258 47.103C23.0182 47.1516 22.9763 47.1876 22.927 47.1876H20.863C20.7993 47.1876 20.7518 47.1288 20.7652 47.0664L21.0347 45.8134Z" fill="#D7D3E6"/>
<path d="M54.928 45.8134C54.918 45.7672 54.8774 45.7344 54.8302 45.7344H52.8402C52.7788 45.7344 52.732 45.7892 52.7414 45.8498L52.9368 47.103C52.9444 47.1516 52.9864 47.1876 53.0356 47.1876H55.0996C55.1634 47.1876 55.2108 47.1288 55.1974 47.0664L54.928 45.8134Z" fill="#D7D3E6"/>
<path d="M20.6527 48.088C20.6621 48.0414 20.7031 48.0078 20.7507 48.0078H22.7413C22.8021 48.0078 22.8488 48.0616 22.8403 48.1218L22.6692 49.3396C22.6623 49.389 22.62 49.4258 22.5702 49.4258H20.5058C20.4426 49.4258 20.3953 49.368 20.4078 49.306L20.6527 48.088Z" fill="#D7D3E6"/>
<path d="M55.31 48.088C55.3006 48.0414 55.2596 48.0078 55.212 48.0078H53.2214C53.1606 48.0078 53.1138 48.0616 53.1224 48.1218L53.2934 49.3396C53.3004 49.389 53.3426 49.4258 53.3924 49.4258H55.4568C55.52 49.4258 55.5674 49.368 55.555 49.306L55.31 48.088Z" fill="#D7D3E6"/>
<path d="M20.2254 50.4042C20.2333 50.3558 20.2751 50.3204 20.3242 50.3204H22.3859C22.4452 50.3204 22.4915 50.3718 22.4853 50.4308L22.35 51.723C22.3447 51.7738 22.3018 51.8124 22.2506 51.8124H20.1144C20.0528 51.8124 20.0058 51.7574 20.0157 51.6964L20.2254 50.4042Z" fill="#D7D3E6"/>
<path d="M55.7372 50.4042C55.7294 50.3558 55.6876 50.3204 55.6386 50.3204H53.5768C53.5174 50.3204 53.4712 50.3718 53.4774 50.4308L53.6126 51.723C53.618 51.7738 53.661 51.8124 53.7122 51.8124H55.8482C55.9098 51.8124 55.9568 51.7574 55.947 51.6964L55.7372 50.4042Z" fill="#D7D3E6"/>
<path d="M24.5319 45.8194C24.5393 45.7706 24.5813 45.7344 24.6308 45.7344H26.6226C26.6814 45.7344 26.7276 45.785 26.7222 45.8436L26.6068 47.0966C26.6022 47.1482 26.559 47.1876 26.5072 47.1876H24.4413C24.3801 47.1876 24.3333 47.133 24.3425 47.0726L24.5319 45.8194Z" fill="#D7D3E6"/>
<path d="M51.4308 45.8194C51.4234 45.7706 51.3814 45.7344 51.3318 45.7344H49.34C49.2812 45.7344 49.235 45.785 49.2404 45.8436L49.3558 47.0966C49.3606 47.1482 49.4036 47.1876 49.4554 47.1876H51.5214C51.5824 47.1876 51.6294 47.133 51.6202 47.0726L51.4308 45.8194Z" fill="#D7D3E6"/>
<path d="M28.0272 45.8246C28.0322 45.7734 28.0754 45.7344 28.1268 45.7344H30.1196C30.1764 45.7344 30.2218 45.7816 30.2196 45.8382L30.1716 47.0836C30.1696 47.1372 30.1254 47.1796 30.0718 47.1796H28.0048C27.9458 47.1796 27.8996 47.1288 27.9052 47.07L28.0272 45.8246Z" fill="#D7D3E6"/>
<path d="M47.9356 45.8246C47.9306 45.7734 47.8876 45.7344 47.836 45.7344H45.8432C45.7864 45.7344 45.741 45.7816 45.7432 45.8382L45.7912 47.0836C45.7932 47.1372 45.8374 47.1796 45.8912 47.1796H47.958C48.0172 47.1796 48.0634 47.1288 48.0576 47.07L47.9356 45.8246Z" fill="#D7D3E6"/>
<path d="M31.5762 45.8274C31.58 45.775 31.6236 45.7344 31.676 45.7344H33.6692C33.7248 45.7344 33.7698 45.7798 33.7692 45.8354L33.7558 47.0808C33.7552 47.1356 33.7106 47.1796 33.6558 47.1796H31.5886C31.5306 47.1796 31.4848 47.1306 31.4888 47.0726L31.5762 45.8274Z" fill="#D7D3E6"/>
<path d="M44.3864 45.8274C44.3826 45.775 44.339 45.7344 44.2866 45.7344H42.2934C42.2378 45.7344 42.1928 45.7798 42.1934 45.8354L42.2068 47.0808C42.2074 47.1356 42.252 47.1796 42.3068 47.1796H44.374C44.432 47.1796 44.4778 47.1306 44.4738 47.0726L44.3864 45.8274Z" fill="#D7D3E6"/>
<path d="M35.1298 45.8344C35.1298 45.7792 35.1746 45.7344 35.2298 45.7344H37.2174C37.2726 45.7344 37.3174 45.7792 37.3174 45.8344V47.0796C37.3174 47.135 37.2726 47.1796 37.2174 47.1796H35.2298C35.1746 47.1796 35.1298 47.135 35.1298 47.0796V45.8344Z" fill="#D7D3E6"/>
<path d="M35.1298 48.096C35.1298 48.0408 35.1746 47.996 35.2298 47.996H37.2174C37.2726 47.996 37.3174 48.0408 37.3174 48.096V49.3414C37.3174 49.3966 37.2726 49.4414 37.2174 49.4414H35.2298C35.1746 49.4414 35.1298 49.3966 35.1298 49.3414V48.096Z" fill="#D7D3E6"/>
<path d="M38.6612 45.8344C38.6612 45.7792 38.706 45.7344 38.7612 45.7344H40.7486C40.8038 45.7344 40.8486 45.7792 40.8486 45.8344V47.0796C40.8486 47.135 40.8038 47.1796 40.7486 47.1796H38.7612C38.706 47.1796 38.6612 47.135 38.6612 47.0796V45.8344Z" fill="#D7D3E6"/>
<path d="M38.6612 48.096C38.6612 48.0408 38.706 47.996 38.7612 47.996H40.7486C40.8038 47.996 40.8486 48.0408 40.8486 48.096V49.3414C40.8486 49.3966 40.8038 49.4414 40.7486 49.4414H38.7612C38.706 49.4414 38.6612 49.3966 38.6612 49.3414V48.096Z" fill="#D7D3E6"/>
<path d="M27.8548 48.0986C27.8596 48.0472 27.9026 48.0078 27.9544 48.0078H29.9474C30.0038 48.0078 30.0492 48.0546 30.0474 48.111L30.0078 49.333C30.006 49.3868 29.9618 49.4296 29.9078 49.4296H27.841C27.782 49.4296 27.736 49.379 27.7414 49.3204L27.8548 48.0986Z" fill="#D7D3E6"/>
<path d="M48.108 48.0986C48.1032 48.0472 48.06 48.0078 48.0084 48.0078H46.0152C45.9588 48.0078 45.9136 48.0546 45.9154 48.111L45.9548 49.333C45.9566 49.3868 46.0008 49.4296 46.0548 49.4296H48.1216C48.1806 49.4296 48.2268 49.379 48.2212 49.3204L48.108 48.0986Z" fill="#D7D3E6"/>
<path d="M24.2581 48.0948C24.2646 48.045 24.307 48.0078 24.3572 48.0078H26.3496C26.4076 48.0078 26.4536 48.057 26.4494 48.1148L26.363 49.3328C26.3592 49.3852 26.3156 49.4258 26.2632 49.4258H24.1969C24.1365 49.4258 24.0899 49.3726 24.0978 49.3128L24.2581 48.0948Z" fill="#D7D3E6"/>
<path d="M51.7048 48.0948C51.6982 48.045 51.6558 48.0078 51.6056 48.0078H49.6132C49.5552 48.0078 49.5094 48.057 49.5134 48.1148L49.5998 49.3328C49.6036 49.3852 49.6472 49.4258 49.6996 49.4258H51.766C51.8264 49.4258 51.873 49.3726 51.865 49.3128L51.7048 48.0948Z" fill="#D7D3E6"/>
<path d="M31.4746 48.1018C31.4778 48.049 31.5216 48.0078 31.5744 48.0078H33.5678C33.623 48.0078 33.6678 48.0526 33.6678 48.1078V49.3296C33.6678 49.385 33.623 49.4296 33.5678 49.4296H31.5006C31.443 49.4296 31.3974 49.3812 31.4008 49.3236L31.4746 48.1018Z" fill="#D7D3E6"/>
<path d="M44.4878 48.1018C44.4846 48.049 44.441 48.0078 44.388 48.0078H42.3946C42.3394 48.0078 42.2946 48.0526 42.2946 48.1078V49.3296C42.2946 49.385 42.3394 49.4296 42.3946 49.4296H44.4618C44.5194 49.4296 44.5652 49.3812 44.5618 49.3236L44.4878 48.1018Z" fill="#D7D3E6"/>
<path d="M23.9001 50.4078C23.9064 50.3578 23.9489 50.3204 23.9993 50.3204H26.0618C26.1198 50.3204 26.1656 50.3694 26.1616 50.4272L26.0736 51.7192C26.07 51.7718 26.0264 51.8124 25.9738 51.8124H23.8368C23.7767 51.8124 23.7301 51.7598 23.7376 51.7L23.9001 50.4078Z" fill="#D7D3E6"/>
<path d="M52.0626 50.4078C52.0562 50.3578 52.0138 50.3204 51.9634 50.3204H49.9008C49.8428 50.3204 49.797 50.3694 49.801 50.4272L49.889 51.7192C49.8926 51.7718 49.9362 51.8124 49.9888 51.8124H52.1258C52.186 51.8124 52.2326 51.7598 52.225 51.7L52.0626 50.4078Z" fill="#D7D3E6"/>
<path d="M27.63 50.412C27.6342 50.3602 27.6776 50.3204 27.7296 50.3204H29.7928C29.849 50.3204 29.8942 50.3668 29.8928 50.423L29.8588 51.7152C29.8574 51.7694 29.813 51.8124 29.7588 51.8124H27.6212C27.5628 51.8124 27.5168 51.7624 27.5216 51.7042L27.63 50.412Z" fill="#D7D3E6"/>
<path d="M48.3326 50.412C48.3284 50.3602 48.285 50.3204 48.233 50.3204H46.1698C46.1136 50.3204 46.0684 50.3668 46.0698 50.423L46.1038 51.7152C46.1052 51.7694 46.1496 51.8124 46.2038 51.8124H48.3414C48.3998 51.8124 48.446 51.7624 48.441 51.7042L48.3326 50.412Z" fill="#D7D3E6"/>
<path d="M31.4652 50.4C31.4676 50.3466 31.5116 50.3046 31.565 50.3046H44.3736C44.4272 50.3046 44.4714 50.347 44.4736 50.4006L44.5278 51.7084C44.5302 51.7652 44.4848 51.8124 44.4278 51.8124H31.504C31.447 51.8124 31.4016 51.7648 31.4042 51.7078L31.4652 50.4Z" fill="#D7D3E6"/>
<defs>
<linearGradient id="paint0_linear_30_45" x1="56.7536" y1="8.0625" x2="37.2536" y2="41.375" gradientUnits="userSpaceOnUse">
<stop offset="0.411199" stop-color="#6863AC"/>
<stop offset="1" stop-color="#574974"/>
</linearGradient>
<linearGradient id="paint1_linear_30_45" x1="37.9814" y1="42.0624" x2="37.9814" y2="42.8124" gradientUnits="userSpaceOnUse">
<stop stop-color="#534370" stop-opacity="0"/>
<stop offset="1" stop-color="#534370"/>
</linearGradient>
<linearGradient id="paint2_linear_30_45" x1="55.6286" y1="12" x2="24.0036" y2="44.125" gradientUnits="userSpaceOnUse">
<stop offset="0.373087" stop-color="#59E8FF"/>
<stop offset="0.933488" stop-color="#2DB3FF"/>
</linearGradient>
<linearGradient id="paint3_linear_30_45" x1="38.0116" y1="42.8124" x2="38.0116" y2="61.1016" gradientUnits="userSpaceOnUse">
<stop stop-color="#C9C6DA"/>
<stop offset="1" stop-color="#DAD5E4"/>
</linearGradient>
<linearGradient id="paint4_linear_30_45" x1="38.0118" y1="61.3126" x2="38.0118" y2="62.8204" gradientUnits="userSpaceOnUse">
<stop stop-color="#8C8396"/>
<stop offset="1" stop-color="#998AA9"/>
</linearGradient>
<linearGradient id="paint5_linear_30_45" x1="66.2536" y1="61.8126" x2="63.4412" y2="61.8126" gradientUnits="userSpaceOnUse">
<stop stop-color="#B0A8B8"/>
<stop offset="1" stop-color="#B0A8B8" stop-opacity="0"/>
</linearGradient>
<linearGradient id="paint6_linear_30_45" x1="10.8786" y1="61.3164" x2="12.8161" y2="61.3164" gradientUnits="userSpaceOnUse">
<stop stop-color="#81778C"/>
<stop offset="1" stop-color="#81778C" stop-opacity="0"/>
</linearGradient>
<linearGradient id="paint7_linear_30_45" x1="38" y1="55.1876" x2="38" y2="59.2188" gradientUnits="userSpaceOnUse">
<stop stop-color="#D8D4E5"/>
<stop offset="1" stop-color="#D8D4E5" stop-opacity="0"/>
</linearGradient>
<linearGradient id="paint8_linear_30_45" x1="38" y1="55.1876" x2="38" y2="59.2188" gradientUnits="userSpaceOnUse">
<stop stop-color="#A9A7B8"/>
<stop offset="1" stop-color="#838191"/>
</linearGradient>
<linearGradient id="paint9_linear_30_45" x1="38.0118" y1="44.875" x2="38.0118" y2="53.0508" gradientUnits="userSpaceOnUse">
<stop stop-color="#C9C7DA"/>
<stop offset="1" stop-color="#C9C7DA" stop-opacity="0"/>
</linearGradient>
<linearGradient id="paint10_linear_30_45" x1="38.0118" y1="44.875" x2="38.0118" y2="53.0508" gradientUnits="userSpaceOnUse">
<stop stop-color="#A9A8BD"/>
<stop offset="1" stop-color="#8A8999"/>
</linearGradient>
</defs>
</svg>
