<svg width="77" height="71" viewBox="0 0 77 71" fill="none" xmlns="http://www.w3.org/2000/svg">
<ellipse cx="38.5" cy="35.5" rx="38.5" ry="35.5" fill="#FFED4C"/>
<path fill-rule="evenodd" clip-rule="evenodd" d="M21.875 17H53.875V50H21.875V17Z" fill="#BD7575"/>
<path fill-rule="evenodd" clip-rule="evenodd" d="M14 49.9206C14 47.7071 15.775 45.6993 17.9693 45.4355L37.875 43.0425L57.7807 45.4355C59.9729 45.6991 61.75 47.7005 61.75 49.9206V62.0425H14V49.9206Z" fill="#FF78C7"/>
<path fill-rule="evenodd" clip-rule="evenodd" d="M31.6705 41.4905C26.7664 38.0067 23.375 30.9211 23.375 25.1331C23.375 17.1249 29.8669 10.6331 37.875 10.6331C45.8831 10.6331 52.375 17.1249 52.375 25.1331C52.375 30.9211 48.9836 38.0067 44.0795 41.4905V48.9058C44.0795 48.9058 39.8735 50.8154 37.875 50.8154C35.8765 50.8154 31.6705 48.9058 31.6705 48.9058V41.4905Z" fill="#FFDD95"/>
<path d="M24.875 31C26.5319 31 27.875 29.6569 27.875 28C27.875 26.3431 26.5319 25 24.875 25C23.2181 25 21.875 26.3431 21.875 28C21.875 29.6569 23.2181 31 24.875 31Z" fill="#FFDD95"/>
<path d="M50.875 31C52.5319 31 53.875 29.6569 53.875 28C53.875 26.3431 52.5319 25 50.875 25C49.2181 25 47.875 26.3431 47.875 28C47.875 29.6569 49.2181 31 50.875 31Z" fill="#FFDD95"/>
<path d="M21 27V11.9912C21 8.13005 23.5416 5 26.6717 5H49.3283C52.4607 5 55 8.1287 55 11.9912V27" stroke="#979797" stroke-width="2" stroke-linecap="round"/>
<path d="M44 45C53.9411 45 62 36.9411 62 27" stroke="#868686" stroke-width="2" stroke-linecap="round"/>
<path d="M43 44H36C35.4477 44 35 44.4477 35 45C35 45.5523 35.4477 46 36 46H43C43.5523 46 44 45.5523 44 45C44 44.4477 43.5523 44 43 44Z" stroke="#5B68C0" stroke-width="2"/>
<path fill-rule="evenodd" clip-rule="evenodd" d="M61 23H62V28H61V23Z" stroke="#979797" stroke-width="2"/>
<path fill-rule="evenodd" clip-rule="evenodd" d="M21.875 14.5C21.875 10.9101 24.7854 8 28.37 8H47.38C50.9671 8 53.875 10.9175 53.875 14.5V21L37.875 15.0792L21.875 21V14.5Z" fill="#BD7575"/>
<path d="M58 17H54C52.8954 17 52 17.8954 52 19V32C52 33.1046 52.8954 34 54 34H58C59.1046 34 60 33.1046 60 32V19C60 17.8954 59.1046 17 58 17Z" fill="#5B68C0"/>
<path d="M22 17H18C16.8954 17 16 17.8954 16 19V32C16 33.1046 16.8954 34 18 34H22C23.1046 34 24 33.1046 24 32V19C24 17.8954 23.1046 17 22 17Z" fill="#5B68C0"/>
</svg>
