<svg width="48" height="48" viewBox="0 0 48 48" fill="none" xmlns="http://www.w3.org/2000/svg">
<ellipse cx="24" cy="23.5862" rx="19.8621" ry="19.4483" fill="#FFED4C"/>
<path d="M24 45.5C12.14 45.5 2.5 35.86 2.5 24C2.5 12.14 12.14 2.5 24 2.5C35.86 2.5 45.5 12.14 45.5 24C45.5 35.86 35.86 45.5 24 45.5ZM24 5.5C13.8 5.5 5.5 13.8 5.5 24C5.5 34.2 13.8 42.5 24 42.5C34.2 42.5 42.5 34.2 42.5 24C42.5 13.8 34.2 5.5 24 5.5Z" fill="#292D32"/>
<path d="M21.159 31.1602C20.759 31.1602 20.379 31.0002 20.099 30.7202L14.4389 25.0602C13.8589 24.4802 13.8589 23.5202 14.4389 22.9402C15.0189 22.3602 15.9789 22.3602 16.5589 22.9402L21.159 27.5402L31.439 17.2602C32.019 16.6802 32.979 16.6802 33.559 17.2602C34.139 17.8402 34.139 18.8002 33.559 19.3802L22.219 30.7202C21.939 31.0002 21.559 31.1602 21.159 31.1602Z" fill="#292D32"/>
</svg>
